M48
;Layer_Color=9474304
;FILE_FORMAT=2:5
INCH,LZ
;TYPE=PLATED
T1F00S00C0.02800
T2F00S00C0.03150
T3F00S00C0.03346
T4F00S00C0.03543
T5F00S00C0.03937
T6F00S00C0.05315
T7F00S00C0.12598
%
T01
X0476575Y0271496
X0493405Y0273819
X0514272Y0271161
X0524606Y0253346
X0524311Y030935
X0485532Y0308071
X0480217Y030059
X0486713Y029252
X0455965Y0286417
X0454823Y0273425
X0465846Y0271654
X0467717Y0250394
X0463386Y024252
X0462303Y0234842
X0446358Y0235433
X0437303Y0223524
X0429012Y0215673
X0406595Y0220276
X040502Y0227658
X0402559Y0236398
X0394232Y0228346
X0390059Y0216535
X0401024Y021624
X0378346Y0212697
X0388976Y0240945
X0398057Y026464
X0416929Y0282382
X0415551Y0289567
X0407874Y0302461
X0425886Y0308366
X0437795Y0307874
X0455905Y0253398
X0356594Y0296063
X0338583Y0306201
X0312894Y0286319
X0314075Y0251279
X0319666Y0224095
X0337402Y0207382
X0371102Y0156398
X0275098Y0186516
X0277658Y0201476
X0259252Y0210531
X0268209Y0238681
X0277756Y0258465
X0257185Y0275098
X0213583Y0300787
X0212795Y0245276
X0200787Y0220669
X0228051Y0200847
X0254953Y0173228
X0203445Y0170768
X0287992Y0219193
X0311352Y0231077
X0275Y0339764
X020689Y034311
X0195669Y0397933
X0232382Y0402165
X0310531Y038691
X0321063Y0396457
X0387106Y0389469
X0475394Y0370079
X0494783Y0361122
X0503937Y0367323
X0499409Y037441
X0522001Y036744
X0529429Y0356004
X0542717Y037441
X0509252Y0321024
X0501083Y0326181
X0474925Y0328665
T02
X0463661Y0392224
X0473661
X0483661
X0493661
X0574705Y0332382
X0604134
T03
X0538996Y029061
X0548996
Y032061
X0538996
T04
X0429173Y0169095
X0439173
Y0179095
X0429173
Y0189094
X0439173
T05
X0581791Y0250984
Y0260827
Y0270669
Y0280512
X030935Y0157382
X0299508
X0289665
X0279823
X0247933
X023809
X0228248
X0218406
X0184941Y0165059
Y0174902
Y0184744
Y0194587
X0183366Y0222342
Y0232185
Y0242028
Y025187
T06
X0183545Y0283848
Y029369
Y0320169
Y0330011
X0184153Y0362894
Y0372736
T07
X0158957Y0133268
X0606201
X0158957Y039941
X0606201
M30
