G04*
G04 #@! TF.GenerationSoftware,Altium Limited,Altium Designer,22.1.2 (22)*
G04*
G04 Layer_Color=65535*
%FSLAX25Y25*%
%MOIN*%
G70*
G04*
G04 #@! TF.SameCoordinates,3CC87442-B0F0-4D04-9EAA-D9769B1F071C*
G04*
G04*
G04 #@! TF.FilePolarity,Positive*
G04*
G01*
G75*
%ADD10C,0.00787*%
%ADD11C,0.00984*%
%ADD12C,0.00500*%
%ADD13C,0.00000*%
%ADD14C,0.04000*%
%ADD15C,0.01000*%
%ADD16C,0.00800*%
%ADD17C,0.01575*%
%ADD18C,0.00400*%
%ADD19R,0.01000X0.07000*%
G36*
X540802Y253577D02*
X540621D01*
Y253938D01*
Y254118D01*
X540802D01*
Y253577D01*
D02*
G37*
G36*
X561718D02*
X561538D01*
Y253397D01*
X561358D01*
Y253758D01*
Y253938D01*
Y254118D01*
X561718D01*
Y253577D01*
D02*
G37*
G36*
X560456Y253217D02*
X560817D01*
Y252495D01*
X560997D01*
Y252315D01*
X560817D01*
Y252135D01*
X560997D01*
Y246184D01*
X561177D01*
Y249069D01*
X561358D01*
Y252495D01*
X561538D01*
Y252315D01*
X561718D01*
Y235726D01*
X561538D01*
Y235005D01*
X561358D01*
Y234283D01*
X561177D01*
Y233923D01*
X560997D01*
Y233562D01*
X560817D01*
Y233201D01*
X560637D01*
Y233021D01*
X560456D01*
Y232661D01*
X560276D01*
Y232480D01*
X559915D01*
Y232300D01*
X559735D01*
Y232119D01*
X559374D01*
Y231939D01*
X559194D01*
Y231759D01*
X558833D01*
Y231579D01*
X558473D01*
Y231398D01*
X557932D01*
Y231218D01*
X557210D01*
Y231038D01*
X556489D01*
Y230857D01*
X540441D01*
Y231038D01*
X540261D01*
Y231398D01*
X540441D01*
Y235906D01*
X540261D01*
Y236087D01*
X540441D01*
Y236447D01*
X555588D01*
Y236627D01*
X555948D01*
Y236808D01*
X556309D01*
Y236988D01*
X556489D01*
Y237168D01*
X556670D01*
Y237529D01*
X556850D01*
Y237890D01*
X557030D01*
Y238250D01*
X557210D01*
Y248709D01*
X557571D01*
Y248528D01*
X557751D01*
Y246364D01*
Y246184D01*
X557932D01*
Y249610D01*
X557751D01*
Y249791D01*
X557571D01*
Y249610D01*
X556309D01*
Y249791D01*
X556129D01*
Y249610D01*
X555948D01*
Y249791D01*
X555768D01*
Y249610D01*
X554145D01*
Y249791D01*
X553965D01*
Y249610D01*
X545129D01*
Y249791D01*
X544769D01*
Y249610D01*
X543326D01*
Y249791D01*
X543146D01*
Y249610D01*
X542605D01*
Y249791D01*
X542424D01*
Y249610D01*
X541703D01*
Y249791D01*
X541523D01*
Y249971D01*
X541343D01*
Y252856D01*
X541523D01*
Y253217D01*
X541884D01*
Y253397D01*
X542244D01*
Y253217D01*
X559915D01*
Y253397D01*
X560456D01*
Y253217D01*
D02*
G37*
G36*
X561538Y252856D02*
X561358D01*
Y253217D01*
X561538D01*
Y252856D01*
D02*
G37*
G36*
X540802Y249430D02*
X540982D01*
Y249250D01*
X541162D01*
Y249430D01*
X541343D01*
Y249250D01*
X556850D01*
Y249069D01*
X556670D01*
Y248889D01*
X540441D01*
Y251413D01*
X540621D01*
Y253036D01*
X540802D01*
Y249430D01*
D02*
G37*
G36*
X553243Y244922D02*
X553424D01*
Y244381D01*
X553243D01*
Y244201D01*
X553424D01*
Y243840D01*
Y243660D01*
Y240053D01*
X540441D01*
Y240234D01*
X540261D01*
Y240414D01*
X540441D01*
Y244201D01*
X540621D01*
Y244381D01*
X540441D01*
Y244922D01*
X540621D01*
Y245102D01*
X540802D01*
Y243840D01*
X540982D01*
Y243479D01*
X541162D01*
Y243840D01*
X541343D01*
Y244020D01*
X541703D01*
Y244201D01*
X552162D01*
Y244020D01*
X552522D01*
Y243660D01*
X552883D01*
Y244020D01*
X553063D01*
Y244561D01*
X552883D01*
Y244742D01*
X553063D01*
Y245102D01*
X553243D01*
Y244922D01*
D02*
G37*
G36*
X561718Y230497D02*
X561538D01*
Y230136D01*
X561358D01*
Y230316D01*
X561177D01*
Y230677D01*
X561358D01*
Y230857D01*
X561538D01*
Y231038D01*
X561718D01*
Y230497D01*
D02*
G37*
G36*
X560817Y229775D02*
X560456D01*
Y229956D01*
X560637D01*
Y230136D01*
X560817D01*
Y229775D01*
D02*
G37*
G36*
X560276Y229415D02*
X559915D01*
Y229595D01*
X560276D01*
Y229415D01*
D02*
G37*
G36*
X559555Y229054D02*
X559194D01*
Y229235D01*
X559555D01*
Y229054D01*
D02*
G37*
G36*
X553424Y228513D02*
X552522D01*
Y228694D01*
X552883D01*
Y228874D01*
X553424D01*
Y228513D01*
D02*
G37*
G36*
X542424D02*
X542244D01*
Y228694D01*
X542424D01*
Y228513D01*
D02*
G37*
G36*
X541523D02*
X541162D01*
Y228694D01*
X541523D01*
Y228513D01*
D02*
G37*
G36*
X540802Y228694D02*
X540982D01*
Y228513D01*
X540802D01*
Y228333D01*
X540441D01*
Y228513D01*
Y228694D01*
Y228874D01*
X540802D01*
Y228694D01*
D02*
G37*
G36*
X561538Y228153D02*
X561718D01*
Y200925D01*
X561538D01*
Y200384D01*
X561358D01*
Y199663D01*
X561177D01*
Y199302D01*
X560997D01*
Y198941D01*
X560817D01*
Y198581D01*
X560637D01*
Y198400D01*
X560456D01*
Y198220D01*
X560276D01*
Y198040D01*
X560096D01*
Y197859D01*
X559915D01*
Y197679D01*
X559735D01*
Y197499D01*
X559374D01*
Y197318D01*
X559194D01*
Y197138D01*
X558833D01*
Y196958D01*
X558653D01*
Y196777D01*
X558112D01*
Y196597D01*
X557391D01*
Y196417D01*
X555047D01*
Y196597D01*
X554325D01*
Y196777D01*
X553785D01*
Y196958D01*
X553424D01*
Y197138D01*
X553063D01*
Y197318D01*
X552883D01*
Y197499D01*
X552703D01*
Y197679D01*
X552522D01*
Y197859D01*
X552342D01*
Y198040D01*
X552162D01*
Y198220D01*
X551981D01*
Y198400D01*
X551801D01*
Y198581D01*
X551621D01*
Y198941D01*
X551440D01*
Y199482D01*
X551260D01*
Y200204D01*
X551080D01*
Y200564D01*
X550899D01*
Y200745D01*
X550719D01*
Y200564D01*
X550539D01*
Y200204D01*
X550358D01*
Y199663D01*
X550178D01*
Y199302D01*
X549998D01*
Y198941D01*
X549818D01*
Y198761D01*
X549637D01*
Y198581D01*
X549457D01*
Y198400D01*
X549277D01*
Y198220D01*
X549096D01*
Y198040D01*
X548555D01*
Y197859D01*
X548195D01*
Y197679D01*
X547654D01*
Y197499D01*
X540441D01*
Y197679D01*
X540261D01*
Y198040D01*
X540441D01*
Y202548D01*
X540261D01*
Y202728D01*
X540441D01*
Y202908D01*
X540621D01*
Y203089D01*
X540802D01*
Y202908D01*
X545851D01*
Y203089D01*
X546932D01*
Y203269D01*
X547293D01*
Y203449D01*
X547654D01*
Y203630D01*
X547834D01*
Y203810D01*
X548014D01*
Y203990D01*
X548195D01*
Y204351D01*
X548375D01*
Y204712D01*
X548555D01*
Y210482D01*
X548736D01*
Y211924D01*
X548555D01*
Y212465D01*
X548736D01*
Y212645D01*
X552342D01*
Y212465D01*
X552522D01*
Y212645D01*
X553243D01*
Y212465D01*
X553424D01*
Y211924D01*
X553243D01*
Y211744D01*
X553424D01*
Y203630D01*
X553604D01*
Y203089D01*
X553785D01*
Y202908D01*
X553965D01*
Y202728D01*
X554145D01*
Y202548D01*
X554325D01*
Y202367D01*
X554686D01*
Y202187D01*
X555948D01*
Y202367D01*
X556129D01*
Y202548D01*
X556489D01*
Y202728D01*
X556670D01*
Y202908D01*
X556850D01*
Y203449D01*
X557030D01*
Y203990D01*
X557210D01*
Y227431D01*
X557391D01*
Y228333D01*
X557210D01*
Y228694D01*
X557391D01*
Y228874D01*
X557751D01*
Y228694D01*
X557932D01*
Y228874D01*
X558653D01*
Y228694D01*
X558292D01*
Y228513D01*
X557571D01*
Y223645D01*
X557751D01*
Y219497D01*
X557932D01*
Y224366D01*
X558112D01*
Y224727D01*
X557932D01*
Y225989D01*
X558112D01*
Y226169D01*
X557932D01*
Y226349D01*
X558112D01*
Y227251D01*
X557932D01*
Y227431D01*
X558112D01*
Y227972D01*
X558292D01*
Y228153D01*
X558833D01*
Y228333D01*
X559194D01*
Y228513D01*
X559735D01*
Y228694D01*
X560096D01*
Y228874D01*
X560456D01*
Y229054D01*
X560817D01*
Y228874D01*
X560997D01*
Y219497D01*
X561177D01*
Y223464D01*
X561358D01*
Y225087D01*
Y225268D01*
Y229956D01*
X561538D01*
Y228153D01*
D02*
G37*
G36*
X540802Y224366D02*
X540982D01*
Y223645D01*
X541162D01*
Y224546D01*
Y224727D01*
X541343D01*
Y227792D01*
X541523D01*
Y227972D01*
X552342D01*
Y227612D01*
X552522D01*
Y225268D01*
X552703D01*
Y224366D01*
X552883D01*
Y225448D01*
X553063D01*
Y227972D01*
X553243D01*
Y225989D01*
X553424D01*
Y214629D01*
X548555D01*
Y220399D01*
X548736D01*
Y223104D01*
X548555D01*
Y223284D01*
X548375D01*
Y223464D01*
X545490D01*
Y223284D01*
X545310D01*
Y223104D01*
X545129D01*
Y220038D01*
X545310D01*
Y214629D01*
X540261D01*
Y220760D01*
X540441D01*
Y228153D01*
X540802D01*
Y224366D01*
D02*
G37*
G36*
X541343Y193893D02*
X541162D01*
Y194073D01*
X541343D01*
Y193893D01*
D02*
G37*
G36*
X540802Y194073D02*
X540982D01*
Y193893D01*
X540441D01*
Y194253D01*
X540802D01*
Y194073D01*
D02*
G37*
G36*
X561718Y193893D02*
X561538D01*
Y193532D01*
X561718D01*
Y190466D01*
X561899D01*
Y189745D01*
X561718D01*
Y189565D01*
X561899D01*
Y189024D01*
X561718D01*
Y188844D01*
X545310D01*
Y179648D01*
X544588D01*
Y179828D01*
X544047D01*
Y180008D01*
X543687D01*
Y180189D01*
X543146D01*
Y180369D01*
X542605D01*
Y180549D01*
X542064D01*
Y180729D01*
X541703D01*
Y180910D01*
X541343D01*
Y181090D01*
X540441D01*
Y181270D01*
X540261D01*
Y189024D01*
X540441D01*
Y193351D01*
X540621D01*
Y193532D01*
X540802D01*
Y192450D01*
X540982D01*
Y191729D01*
X541162D01*
Y192630D01*
X541343D01*
Y193532D01*
X541703D01*
Y193712D01*
X560637D01*
Y193532D01*
X560997D01*
Y192630D01*
X561177D01*
Y192270D01*
X561358D01*
Y193893D01*
X561177D01*
Y194253D01*
X561718D01*
Y193893D01*
D02*
G37*
G36*
X540982Y178926D02*
X540802D01*
Y178746D01*
X540441D01*
Y178926D01*
Y179107D01*
X540982D01*
Y178926D01*
D02*
G37*
G36*
X542966Y178385D02*
X543326D01*
Y178205D01*
X544047D01*
Y178025D01*
X544408D01*
Y177844D01*
X545310D01*
Y177664D01*
X545490D01*
Y177484D01*
X546211D01*
Y177303D01*
X546752D01*
Y177123D01*
X547293D01*
Y176943D01*
X548195D01*
Y176762D01*
X548555D01*
Y176582D01*
X549277D01*
Y176402D01*
X549637D01*
Y176222D01*
X550358D01*
Y176041D01*
X550899D01*
Y175861D01*
X551260D01*
Y175681D01*
X551981D01*
Y175500D01*
X552342D01*
Y175320D01*
X553063D01*
Y175140D01*
X553424D01*
Y170091D01*
X553063D01*
Y170271D01*
X552342D01*
Y170451D01*
X551801D01*
Y170632D01*
X551260D01*
Y170812D01*
X550539D01*
Y170992D01*
X550178D01*
Y171173D01*
X549277D01*
Y171353D01*
X548916D01*
Y171533D01*
X548195D01*
Y171714D01*
X547293D01*
Y171894D01*
X546752D01*
Y172074D01*
X546031D01*
Y172255D01*
X545310D01*
Y166665D01*
X546211D01*
Y166845D01*
X546572D01*
Y167025D01*
X547113D01*
Y167206D01*
X547654D01*
Y167386D01*
X548014D01*
Y167566D01*
X548736D01*
Y167747D01*
X549277D01*
Y167927D01*
X549818D01*
Y168107D01*
X550358D01*
Y168288D01*
X550719D01*
Y168468D01*
X551260D01*
Y168648D01*
X551621D01*
Y168828D01*
X552342D01*
Y169009D01*
X552703D01*
Y169189D01*
X553243D01*
Y169369D01*
X553785D01*
Y169550D01*
X554325D01*
Y169730D01*
X555047D01*
Y169910D01*
X555407D01*
Y170091D01*
X555948D01*
Y170271D01*
X556489D01*
Y170451D01*
X556850D01*
Y170632D01*
X557391D01*
Y170812D01*
X557751D01*
Y170992D01*
X558473D01*
Y171173D01*
X558833D01*
Y171353D01*
X559555D01*
Y171533D01*
X560276D01*
Y171714D01*
X560637D01*
Y171894D01*
X561177D01*
Y172074D01*
X561358D01*
Y172255D01*
X561718D01*
Y172074D01*
X561899D01*
Y166124D01*
X561718D01*
Y165944D01*
X560817D01*
Y165763D01*
X560456D01*
Y165583D01*
X559915D01*
Y165402D01*
X559374D01*
Y165222D01*
X558833D01*
Y165042D01*
X558292D01*
Y164862D01*
X557751D01*
Y164681D01*
X557030D01*
Y164501D01*
X556670D01*
Y164321D01*
X556129D01*
Y164140D01*
X555227D01*
Y163960D01*
X554866D01*
Y163780D01*
X554145D01*
Y163599D01*
X553604D01*
Y163419D01*
X553063D01*
Y163239D01*
X552522D01*
Y163058D01*
X551981D01*
Y162878D01*
X551260D01*
Y162698D01*
X551080D01*
Y162517D01*
X550358D01*
Y162337D01*
X549818D01*
Y162157D01*
X549096D01*
Y161977D01*
X548375D01*
Y161796D01*
X547834D01*
Y161616D01*
X547293D01*
Y161436D01*
X546932D01*
Y161255D01*
X546211D01*
Y161075D01*
X545670D01*
Y160895D01*
X545310D01*
Y160714D01*
X544588D01*
Y160534D01*
X544047D01*
Y160354D01*
X543326D01*
Y160173D01*
X542605D01*
Y159993D01*
X542244D01*
Y159813D01*
X541523D01*
Y159632D01*
X541162D01*
Y159452D01*
X540261D01*
Y171894D01*
X540441D01*
Y178205D01*
X540621D01*
Y178385D01*
X540802D01*
Y176943D01*
X540982D01*
Y175681D01*
X541162D01*
Y177123D01*
X541343D01*
Y178025D01*
X542244D01*
Y177844D01*
X542785D01*
Y177664D01*
X543506D01*
Y177484D01*
X544047D01*
Y177303D01*
X544769D01*
Y177123D01*
X545310D01*
Y176943D01*
X545851D01*
Y176762D01*
X546391D01*
Y176582D01*
X546932D01*
Y176402D01*
X547473D01*
Y176222D01*
X548014D01*
Y176041D01*
X548375D01*
Y176402D01*
X547473D01*
Y176582D01*
X546932D01*
Y176762D01*
X546752D01*
Y176943D01*
X546031D01*
Y177123D01*
X545670D01*
Y177303D01*
X545310D01*
Y177484D01*
X544769D01*
Y177664D01*
X544408D01*
Y177844D01*
X543687D01*
Y178025D01*
X543326D01*
Y178205D01*
X542785D01*
Y178385D01*
X542244D01*
Y178566D01*
X542966D01*
Y178385D01*
D02*
G37*
G36*
X560276Y163239D02*
X559374D01*
Y163419D01*
X560276D01*
Y163239D01*
D02*
G37*
G36*
X559014Y162878D02*
X558653D01*
Y162698D01*
X558112D01*
Y162878D01*
X558292D01*
Y163058D01*
X559014D01*
Y162878D01*
D02*
G37*
G36*
X561718Y163599D02*
X561538D01*
Y163058D01*
X561718D01*
Y158190D01*
X561899D01*
Y147191D01*
X561718D01*
Y146289D01*
X561538D01*
Y145748D01*
X561358D01*
Y145207D01*
X561177D01*
Y145027D01*
X560997D01*
Y144666D01*
X560817D01*
Y144306D01*
X560637D01*
Y144125D01*
X560456D01*
Y143945D01*
X560276D01*
Y143765D01*
X560096D01*
Y143584D01*
X559915D01*
Y143404D01*
X559555D01*
Y143224D01*
X559374D01*
Y143043D01*
X558833D01*
Y142863D01*
X558473D01*
Y142683D01*
X557932D01*
Y142502D01*
X557030D01*
Y142322D01*
X555407D01*
Y142502D01*
X554506D01*
Y142683D01*
X553965D01*
Y142863D01*
X553604D01*
Y143043D01*
X553243D01*
Y143224D01*
X552883D01*
Y143404D01*
X552703D01*
Y143584D01*
X552522D01*
Y143765D01*
X552342D01*
Y143945D01*
X552162D01*
Y144125D01*
X551981D01*
Y144306D01*
X551801D01*
Y144666D01*
X551621D01*
Y144846D01*
X551440D01*
Y145207D01*
X551080D01*
Y144846D01*
X550899D01*
Y144486D01*
X550719D01*
Y144306D01*
X550539D01*
Y143945D01*
X550358D01*
Y143765D01*
X550178D01*
Y143584D01*
X549998D01*
Y143404D01*
X549818D01*
Y143224D01*
X549637D01*
Y143043D01*
X549277D01*
Y142863D01*
X549096D01*
Y142683D01*
X548736D01*
Y142502D01*
X548195D01*
Y142322D01*
X547654D01*
Y142142D01*
X544769D01*
Y142322D01*
X544408D01*
Y142502D01*
X543687D01*
Y142683D01*
X543506D01*
Y142863D01*
X543146D01*
Y143043D01*
X542785D01*
Y143224D01*
X542424D01*
Y143404D01*
X542244D01*
Y143584D01*
X542064D01*
Y143765D01*
X541884D01*
Y143945D01*
X541703D01*
Y144125D01*
X541523D01*
Y144486D01*
X541343D01*
Y144846D01*
X541162D01*
Y145027D01*
X540982D01*
Y145387D01*
X540802D01*
Y145748D01*
X540621D01*
Y146469D01*
X540441D01*
Y147551D01*
X540261D01*
Y156026D01*
X540441D01*
Y157829D01*
X540621D01*
Y158010D01*
X541703D01*
Y158190D01*
X542244D01*
Y158370D01*
X542966D01*
Y158551D01*
X543687D01*
Y158731D01*
X544047D01*
Y158911D01*
X544769D01*
Y159091D01*
X545129D01*
Y158911D01*
X545310D01*
Y149715D01*
X545490D01*
Y149354D01*
X545670D01*
Y149174D01*
X545851D01*
Y148994D01*
X546031D01*
Y148813D01*
X546572D01*
Y148633D01*
X547473D01*
Y148813D01*
X547834D01*
Y148994D01*
X548195D01*
Y149174D01*
X548375D01*
Y149535D01*
X548555D01*
Y150617D01*
X548736D01*
Y159091D01*
X548916D01*
Y159632D01*
X548736D01*
Y159993D01*
X548916D01*
Y160173D01*
X549277D01*
Y160354D01*
X549818D01*
Y160534D01*
X550539D01*
Y160714D01*
X551080D01*
Y160895D01*
X551621D01*
Y161075D01*
X552342D01*
Y161255D01*
X552883D01*
Y161436D01*
X553243D01*
Y161616D01*
X553424D01*
Y157829D01*
X553604D01*
Y149715D01*
X553785D01*
Y149174D01*
X553965D01*
Y148994D01*
X554145D01*
Y148813D01*
X554325D01*
Y148633D01*
X554686D01*
Y148453D01*
X555948D01*
Y148633D01*
X556309D01*
Y148813D01*
X556489D01*
Y148994D01*
X556670D01*
Y149174D01*
X556850D01*
Y149715D01*
X557030D01*
Y157649D01*
X557210D01*
Y162698D01*
X557751D01*
Y162157D01*
X557571D01*
Y161075D01*
X557932D01*
Y162157D01*
X558292D01*
Y162337D01*
X559014D01*
Y162517D01*
X559915D01*
Y162698D01*
X560276D01*
Y162878D01*
X560997D01*
Y161977D01*
Y161796D01*
Y161616D01*
X561177D01*
Y161075D01*
X561358D01*
Y163599D01*
X561177D01*
Y163780D01*
X561358D01*
Y163960D01*
X561718D01*
Y163599D01*
D02*
G37*
G36*
X537376Y254118D02*
X537556D01*
Y253938D01*
X537376D01*
Y142683D01*
X537556D01*
Y142322D01*
X537376D01*
Y142142D01*
X537015D01*
Y142322D01*
X529983D01*
Y142142D01*
X529442D01*
Y142322D01*
X529261D01*
Y142683D01*
X529442D01*
Y180008D01*
Y180189D01*
Y254298D01*
X537376D01*
Y254118D01*
D02*
G37*
%LPC*%
G36*
X560276Y238971D02*
X560096D01*
Y238791D01*
X560276D01*
Y238971D01*
D02*
G37*
G36*
X558833D02*
X558653D01*
Y238431D01*
X558473D01*
Y237890D01*
X558292D01*
Y237529D01*
X558112D01*
Y237168D01*
X557932D01*
Y236808D01*
X557751D01*
Y236627D01*
X557571D01*
Y236267D01*
X557391D01*
Y236087D01*
X557210D01*
Y235906D01*
X556850D01*
Y235726D01*
X556489D01*
Y235545D01*
X556129D01*
Y235365D01*
X555407D01*
Y235185D01*
X541703D01*
Y232661D01*
X541523D01*
Y232300D01*
X541703D01*
Y232119D01*
X556129D01*
Y232300D01*
X557391D01*
Y232480D01*
X557932D01*
Y232661D01*
X558292D01*
Y232841D01*
X558653D01*
Y233021D01*
X558833D01*
Y233201D01*
X559014D01*
Y233382D01*
X559194D01*
Y233562D01*
X559374D01*
Y233742D01*
X559555D01*
Y233923D01*
X559735D01*
Y234103D01*
X559915D01*
Y234283D01*
X560096D01*
Y235005D01*
X560276D01*
Y235545D01*
X560456D01*
Y238250D01*
X560276D01*
Y238431D01*
X560456D01*
Y238611D01*
X559915D01*
Y238250D01*
X559735D01*
Y238070D01*
X559194D01*
Y238250D01*
X559014D01*
Y238431D01*
X558833D01*
Y238971D01*
D02*
G37*
G36*
X557932Y218776D02*
X557751D01*
Y218596D01*
Y218415D01*
X557932D01*
Y218776D01*
D02*
G37*
G36*
X561177Y218596D02*
X560997D01*
Y218235D01*
X561177D01*
Y218415D01*
Y218596D01*
D02*
G37*
G36*
X559555Y208137D02*
X559374D01*
Y207596D01*
X559555D01*
Y208137D01*
D02*
G37*
G36*
X551801D02*
X551621D01*
Y207957D01*
X551260D01*
Y207596D01*
X551440D01*
Y207777D01*
X551621D01*
Y207596D01*
X551801D01*
Y207416D01*
X551981D01*
Y207777D01*
X551801D01*
Y208137D01*
D02*
G37*
G36*
X560276D02*
X559915D01*
Y207777D01*
X560096D01*
Y206695D01*
X559915D01*
Y206334D01*
X559735D01*
Y206515D01*
X559555D01*
Y206875D01*
X559374D01*
Y206695D01*
X559014D01*
Y207777D01*
X558833D01*
Y208137D01*
X558653D01*
Y206875D01*
X558473D01*
Y204712D01*
X558292D01*
Y204531D01*
X558473D01*
Y204170D01*
X558292D01*
Y203449D01*
X558112D01*
Y202728D01*
X557932D01*
Y202367D01*
X557751D01*
Y202187D01*
X557571D01*
Y202007D01*
X557391D01*
Y201826D01*
X557210D01*
Y201646D01*
X556850D01*
Y201466D01*
X556670D01*
Y201286D01*
X556129D01*
Y201105D01*
X555407D01*
Y200925D01*
X555047D01*
Y201105D01*
X554506D01*
Y201286D01*
X553785D01*
Y201466D01*
X553604D01*
Y201646D01*
X553243D01*
Y201826D01*
X553063D01*
Y202007D01*
X552883D01*
Y202187D01*
X552703D01*
Y202548D01*
X552522D01*
Y202908D01*
X552342D01*
Y203630D01*
X552162D01*
Y206695D01*
X551981D01*
Y206875D01*
Y207056D01*
Y207236D01*
X551621D01*
Y206695D01*
X551440D01*
Y206875D01*
X551260D01*
Y206695D01*
X551080D01*
Y206515D01*
X550719D01*
Y206695D01*
X550358D01*
Y207236D01*
X550539D01*
Y207416D01*
X550358D01*
Y207777D01*
X550539D01*
Y207957D01*
X550358D01*
Y208137D01*
X549998D01*
Y207056D01*
X550178D01*
Y206875D01*
X549998D01*
Y205793D01*
X549818D01*
Y204712D01*
X549637D01*
Y204351D01*
X549457D01*
Y203630D01*
X549277D01*
Y203449D01*
X549096D01*
Y203269D01*
X548916D01*
Y202908D01*
X548555D01*
Y202728D01*
X548375D01*
Y202548D01*
X548195D01*
Y202367D01*
X548014D01*
Y202187D01*
X547473D01*
Y202007D01*
X547113D01*
Y201826D01*
X541703D01*
Y201466D01*
X541523D01*
Y201286D01*
X541703D01*
Y200564D01*
X541523D01*
Y200384D01*
X541703D01*
Y199302D01*
X541523D01*
Y198941D01*
X541703D01*
Y198761D01*
X541884D01*
Y198581D01*
X542064D01*
Y198761D01*
X547473D01*
Y198941D01*
X548014D01*
Y199122D01*
X548375D01*
Y199302D01*
X548555D01*
Y199482D01*
X548736D01*
Y199663D01*
X548916D01*
Y199843D01*
X549096D01*
Y200384D01*
X549277D01*
Y201105D01*
X549457D01*
Y201286D01*
X550719D01*
Y201466D01*
X550899D01*
Y201286D01*
X551981D01*
Y201105D01*
X552162D01*
Y200925D01*
X552342D01*
Y200204D01*
X552522D01*
Y199843D01*
X552703D01*
Y199482D01*
X552883D01*
Y199122D01*
X553063D01*
Y198941D01*
X553243D01*
Y198581D01*
X553424D01*
Y198400D01*
X553785D01*
Y198220D01*
X554145D01*
Y198040D01*
X554686D01*
Y197859D01*
X555768D01*
Y197679D01*
X556670D01*
Y197859D01*
X557571D01*
Y198040D01*
X558112D01*
Y198220D01*
X558473D01*
Y198400D01*
X558833D01*
Y198581D01*
X559014D01*
Y198761D01*
X559194D01*
Y198941D01*
X559374D01*
Y199122D01*
X559555D01*
Y199302D01*
X559735D01*
Y199663D01*
X559915D01*
Y199843D01*
X560096D01*
Y200384D01*
X560276D01*
Y200745D01*
X560456D01*
Y203089D01*
X560637D01*
Y204531D01*
X560456D01*
Y207957D01*
X560276D01*
Y208137D01*
D02*
G37*
%LPD*%
G36*
X559915Y205974D02*
X559735D01*
Y206154D01*
X559915D01*
Y205974D01*
D02*
G37*
G36*
X551260Y205793D02*
X551080D01*
Y205974D01*
X551260D01*
Y205793D01*
D02*
G37*
G36*
X559374Y205433D02*
Y205252D01*
X559014D01*
Y205433D01*
X559194D01*
Y205613D01*
X559374D01*
Y205433D01*
D02*
G37*
%LPC*%
G36*
X551981Y219497D02*
X551801D01*
Y219317D01*
X551621D01*
Y219137D01*
X551440D01*
Y219317D01*
X551260D01*
Y219137D01*
X551080D01*
Y219317D01*
X550899D01*
Y219137D01*
X550719D01*
Y219317D01*
X550539D01*
Y219137D01*
X550358D01*
Y219497D01*
X550178D01*
Y219317D01*
X549998D01*
Y218415D01*
X549818D01*
Y215891D01*
X549998D01*
Y215711D01*
X552162D01*
Y215891D01*
X552342D01*
Y216612D01*
X552162D01*
Y216793D01*
Y216973D01*
Y219137D01*
X551981D01*
Y219497D01*
D02*
G37*
G36*
X542244Y219678D02*
X541884D01*
Y219137D01*
X541703D01*
Y216252D01*
X541523D01*
Y215891D01*
X541703D01*
Y215711D01*
X543867D01*
Y216071D01*
X544047D01*
Y216252D01*
X543867D01*
Y218956D01*
X543687D01*
Y219317D01*
X543326D01*
Y219497D01*
X543146D01*
Y219317D01*
X542966D01*
Y219137D01*
X542785D01*
Y218956D01*
X542424D01*
Y219137D01*
X542605D01*
Y219497D01*
X542244D01*
Y219678D01*
D02*
G37*
G36*
X543687Y183073D02*
X543146D01*
Y182713D01*
X542966D01*
Y182533D01*
X542605D01*
Y182713D01*
X542244D01*
Y182893D01*
X542064D01*
Y183073D01*
X541884D01*
Y182893D01*
X541703D01*
Y182352D01*
X541884D01*
Y182172D01*
X542244D01*
Y181992D01*
X542785D01*
Y181811D01*
X543146D01*
Y181631D01*
X543867D01*
Y181992D01*
X543687D01*
Y182533D01*
Y182713D01*
Y183073D01*
D02*
G37*
G36*
X549277Y176041D02*
X548736D01*
Y175861D01*
X549277D01*
Y176041D01*
D02*
G37*
G36*
X549998Y164140D02*
X549457D01*
Y163960D01*
X549998D01*
Y164140D01*
D02*
G37*
G36*
X544047Y163239D02*
X543867D01*
Y163058D01*
X544047D01*
Y163239D01*
D02*
G37*
G36*
X548916Y163780D02*
X547834D01*
Y163599D01*
X547654D01*
Y163419D01*
X546391D01*
Y163239D01*
X546211D01*
Y163058D01*
X544408D01*
Y162698D01*
X543687D01*
Y163058D01*
X542605D01*
Y163239D01*
X542424D01*
Y163058D01*
X542244D01*
Y163239D01*
X542064D01*
Y163780D01*
X541884D01*
Y162878D01*
X541703D01*
Y161255D01*
X542064D01*
Y161436D01*
X542424D01*
Y161616D01*
X543146D01*
Y161796D01*
X543506D01*
Y161977D01*
X543867D01*
Y162157D01*
X544769D01*
Y162337D01*
X545310D01*
Y162517D01*
X546031D01*
Y162698D01*
X546391D01*
Y162878D01*
X546752D01*
Y163058D01*
X547473D01*
Y163239D01*
X547834D01*
Y163419D01*
X548555D01*
Y163599D01*
X548916D01*
Y163780D01*
D02*
G37*
G36*
X552883Y160895D02*
X552703D01*
Y160714D01*
X552883D01*
Y160895D01*
D02*
G37*
G36*
X555768Y146650D02*
X555047D01*
Y146469D01*
X555227D01*
Y146289D01*
X555588D01*
Y146469D01*
X555768D01*
Y146650D01*
D02*
G37*
G36*
X549998Y146830D02*
X549637D01*
Y146289D01*
X549457D01*
Y146109D01*
X549096D01*
Y145387D01*
X548916D01*
Y145568D01*
X548736D01*
Y145748D01*
X543326D01*
Y145387D01*
X543146D01*
Y145748D01*
X542966D01*
Y145928D01*
X542605D01*
Y146289D01*
X542424D01*
Y146650D01*
X542064D01*
Y146469D01*
X542244D01*
Y145928D01*
X542424D01*
Y145387D01*
X542605D01*
Y145207D01*
X542785D01*
Y145027D01*
X542966D01*
Y144846D01*
X543146D01*
Y144666D01*
X543326D01*
Y144486D01*
X543506D01*
Y144306D01*
X543687D01*
Y144125D01*
X544047D01*
Y143945D01*
X544588D01*
Y143765D01*
X544949D01*
Y143584D01*
X547473D01*
Y143765D01*
X548014D01*
Y143945D01*
X548375D01*
Y144125D01*
X548555D01*
Y144306D01*
X548916D01*
Y144486D01*
X549096D01*
Y144846D01*
X549277D01*
Y145207D01*
X549457D01*
Y145387D01*
X549637D01*
Y146109D01*
X549818D01*
Y146289D01*
X549998D01*
Y146830D01*
D02*
G37*
G36*
X552703Y146650D02*
X552522D01*
Y146109D01*
X552703D01*
Y145928D01*
X552883D01*
Y145387D01*
X553063D01*
Y145207D01*
X553243D01*
Y144846D01*
X553424D01*
Y144666D01*
X553604D01*
Y144486D01*
X553965D01*
Y144306D01*
X554325D01*
Y144125D01*
X554686D01*
Y143945D01*
X555588D01*
Y143765D01*
X556850D01*
Y143945D01*
X557932D01*
Y144125D01*
X558292D01*
Y144306D01*
X558653D01*
Y144486D01*
X558833D01*
Y144666D01*
X559014D01*
Y144846D01*
X559194D01*
Y145027D01*
X559374D01*
Y145207D01*
X559555D01*
Y145387D01*
X559735D01*
Y145748D01*
X559915D01*
Y146469D01*
X559555D01*
Y145748D01*
X559014D01*
Y145387D01*
X558833D01*
Y145568D01*
X558653D01*
Y145748D01*
X553785D01*
Y145568D01*
X553604D01*
Y145387D01*
X553424D01*
Y145928D01*
X553063D01*
Y146109D01*
X552883D01*
Y146469D01*
X552703D01*
Y146650D01*
D02*
G37*
G36*
X535933Y252315D02*
X530884D01*
Y252135D01*
X530704D01*
Y249971D01*
X530884D01*
Y249791D01*
X531606D01*
Y249971D01*
X531786D01*
Y251233D01*
X535933D01*
Y251413D01*
X536114D01*
Y251954D01*
X535933D01*
Y252315D01*
D02*
G37*
G36*
X531425Y248528D02*
X530704D01*
Y248348D01*
Y247627D01*
X530884D01*
Y247446D01*
X531245D01*
Y247266D01*
X531606D01*
Y247086D01*
X531966D01*
Y246545D01*
X531786D01*
Y246364D01*
X531966D01*
Y246004D01*
X531786D01*
Y245824D01*
X531966D01*
Y245102D01*
X531786D01*
Y244922D01*
X531425D01*
Y244742D01*
X531065D01*
Y244561D01*
X530884D01*
Y244381D01*
X530704D01*
Y243660D01*
X531606D01*
Y243840D01*
X531966D01*
Y244020D01*
X532327D01*
Y244201D01*
X532688D01*
Y244381D01*
X533048D01*
Y244561D01*
X533409D01*
Y244742D01*
X533769D01*
Y244922D01*
X534310D01*
Y245102D01*
X534491D01*
Y245283D01*
X535032D01*
Y245463D01*
X535572D01*
Y245643D01*
X535933D01*
Y245824D01*
X536114D01*
Y246364D01*
X535933D01*
Y246545D01*
X535212D01*
Y246725D01*
X535032D01*
Y246905D01*
X534491D01*
Y247086D01*
X534130D01*
Y247266D01*
X533769D01*
Y247446D01*
X533409D01*
Y247627D01*
X532868D01*
Y247807D01*
X532327D01*
Y247987D01*
X532147D01*
Y248168D01*
X531786D01*
Y248348D01*
X531425D01*
Y248528D01*
D02*
G37*
G36*
X535753Y242037D02*
X531065D01*
Y241857D01*
X530704D01*
Y239873D01*
X530884D01*
Y239512D01*
X531065D01*
Y239152D01*
X531245D01*
Y238971D01*
X531425D01*
Y238791D01*
X531786D01*
Y238611D01*
X532868D01*
Y238791D01*
X533228D01*
Y238971D01*
X533409D01*
Y239332D01*
X533950D01*
Y239152D01*
X534310D01*
Y238971D01*
X535032D01*
Y239152D01*
X535392D01*
Y239332D01*
X535572D01*
Y239512D01*
X535753D01*
Y239693D01*
X535933D01*
Y240234D01*
X536114D01*
Y241496D01*
X535933D01*
Y241857D01*
X535753D01*
Y242037D01*
D02*
G37*
G36*
X533769Y236988D02*
X532868D01*
Y236808D01*
X532327D01*
Y236627D01*
X531966D01*
Y236447D01*
X531786D01*
Y236267D01*
X531606D01*
Y236087D01*
X531245D01*
Y235906D01*
X531065D01*
Y235545D01*
X530884D01*
Y235365D01*
X530704D01*
Y234824D01*
X530524D01*
Y233562D01*
X530704D01*
Y233021D01*
X530884D01*
Y232661D01*
X531065D01*
Y232300D01*
X531245D01*
Y232119D01*
X531606D01*
Y231939D01*
X531786D01*
Y231759D01*
X531966D01*
Y231579D01*
X532507D01*
Y231398D01*
X534130D01*
Y231579D01*
X534491D01*
Y231759D01*
X534851D01*
Y231939D01*
X535032D01*
Y232119D01*
X535392D01*
Y232300D01*
X535572D01*
Y232661D01*
X535753D01*
Y232841D01*
X535933D01*
Y233201D01*
X536114D01*
Y235005D01*
X535933D01*
Y235365D01*
X535753D01*
Y235545D01*
X535572D01*
Y235906D01*
X535392D01*
Y236087D01*
X535212D01*
Y236267D01*
X534851D01*
Y236447D01*
X534671D01*
Y236627D01*
X534130D01*
Y236808D01*
X533769D01*
Y236988D01*
D02*
G37*
G36*
X535753Y229595D02*
X530884D01*
Y229415D01*
X530704D01*
Y228513D01*
X532507D01*
Y228333D01*
X532327D01*
Y228153D01*
X532147D01*
Y227972D01*
X531786D01*
Y227792D01*
X531606D01*
Y227612D01*
X531425D01*
Y227431D01*
X531065D01*
Y227251D01*
X530884D01*
Y227071D01*
X530704D01*
Y226710D01*
X530524D01*
Y226530D01*
X530704D01*
Y226169D01*
X531065D01*
Y226349D01*
X531606D01*
Y226530D01*
X531786D01*
Y226710D01*
X531966D01*
Y226890D01*
X532147D01*
Y227071D01*
X532327D01*
Y227251D01*
X532688D01*
Y227431D01*
X532868D01*
Y227251D01*
X533048D01*
Y227071D01*
X533228D01*
Y226710D01*
X533589D01*
Y226530D01*
X533769D01*
Y226349D01*
X534851D01*
Y226530D01*
X535212D01*
Y226710D01*
X535392D01*
Y226890D01*
X535572D01*
Y227071D01*
X535753D01*
Y227251D01*
X535933D01*
Y227792D01*
X536114D01*
Y228874D01*
X535933D01*
Y229415D01*
X535753D01*
Y229595D01*
D02*
G37*
G36*
X531425Y224727D02*
X530704D01*
Y223825D01*
X530884D01*
Y223645D01*
X531245D01*
Y223464D01*
X531606D01*
Y223284D01*
X531786D01*
Y221120D01*
X531425D01*
Y220940D01*
X530884D01*
Y220760D01*
X530704D01*
Y220399D01*
X530524D01*
Y220038D01*
X530704D01*
Y219858D01*
X531606D01*
Y220038D01*
X531786D01*
Y220219D01*
X532147D01*
Y220399D01*
X532507D01*
Y220579D01*
X532868D01*
Y220760D01*
X533589D01*
Y220940D01*
X533769D01*
Y221120D01*
X534310D01*
Y221301D01*
X534491D01*
Y221481D01*
X535032D01*
Y221661D01*
X535392D01*
Y221842D01*
X535753D01*
Y222022D01*
X535933D01*
Y222563D01*
X535753D01*
Y222743D01*
X535212D01*
Y222923D01*
X534851D01*
Y223104D01*
X534310D01*
Y223284D01*
X533950D01*
Y223464D01*
X533589D01*
Y223645D01*
X533228D01*
Y223825D01*
X532868D01*
Y224005D01*
X532327D01*
Y224186D01*
X532147D01*
Y224366D01*
X531786D01*
Y224546D01*
X531425D01*
Y224727D01*
D02*
G37*
G36*
X535753Y219137D02*
X535212D01*
Y218956D01*
X535032D01*
Y218776D01*
X534851D01*
Y218415D01*
X535032D01*
Y218055D01*
X534851D01*
Y217875D01*
X530704D01*
Y217334D01*
X530524D01*
Y217153D01*
X530704D01*
Y216793D01*
X534851D01*
Y216612D01*
X535032D01*
Y216432D01*
X534851D01*
Y215891D01*
X535032D01*
Y215711D01*
X535212D01*
Y215530D01*
X535753D01*
Y215711D01*
X535933D01*
Y216432D01*
X536114D01*
Y216612D01*
X535933D01*
Y218055D01*
X536114D01*
Y218415D01*
X535933D01*
Y218956D01*
X535753D01*
Y219137D01*
D02*
G37*
G36*
X534130Y214088D02*
X532327D01*
Y213908D01*
X532147D01*
Y213727D01*
X531786D01*
Y213547D01*
X531425D01*
Y213367D01*
X531245D01*
Y213186D01*
X531065D01*
Y213006D01*
X530884D01*
Y212645D01*
X530704D01*
Y212465D01*
Y212285D01*
X530524D01*
Y210482D01*
X530704D01*
Y210121D01*
X530884D01*
Y209760D01*
X531065D01*
Y209580D01*
X531245D01*
Y209400D01*
X531425D01*
Y209219D01*
X531606D01*
Y209039D01*
X531966D01*
Y208859D01*
X532147D01*
Y208678D01*
X532688D01*
Y208498D01*
X533769D01*
Y208678D01*
X534310D01*
Y208859D01*
X534491D01*
Y209039D01*
X534851D01*
Y209219D01*
X535032D01*
Y209400D01*
X535392D01*
Y209580D01*
X535572D01*
Y209941D01*
X535753D01*
Y210301D01*
X535933D01*
Y210662D01*
X536114D01*
Y211924D01*
X535933D01*
Y212465D01*
X535753D01*
Y212645D01*
X535572D01*
Y213006D01*
X535392D01*
Y213186D01*
X535212D01*
Y213367D01*
X535032D01*
Y213547D01*
X534671D01*
Y213727D01*
X534310D01*
Y213908D01*
X534130D01*
Y214088D01*
D02*
G37*
G36*
X535753Y206695D02*
X530704D01*
Y206515D01*
X530524D01*
Y205974D01*
X530704D01*
Y205613D01*
X532327D01*
Y205433D01*
X532147D01*
Y205252D01*
X531786D01*
Y205072D01*
X531606D01*
Y204892D01*
X531245D01*
Y204712D01*
X531065D01*
Y204531D01*
X530884D01*
Y204351D01*
X530704D01*
Y204170D01*
X530524D01*
Y203449D01*
X531245D01*
Y203630D01*
X531606D01*
Y203810D01*
X531786D01*
Y203990D01*
X531966D01*
Y204170D01*
X532147D01*
Y204351D01*
X532327D01*
Y204531D01*
X532507D01*
Y204712D01*
X532868D01*
Y204351D01*
X533048D01*
Y204170D01*
X533228D01*
Y203810D01*
X533589D01*
Y203630D01*
X535032D01*
Y203810D01*
X535212D01*
Y203990D01*
X535572D01*
Y204351D01*
X535753D01*
Y204712D01*
X535933D01*
Y206515D01*
X535753D01*
Y206695D01*
D02*
G37*
G36*
Y202187D02*
X535572D01*
Y202007D01*
X535032D01*
Y201826D01*
X534851D01*
Y201646D01*
X534491D01*
Y201466D01*
X534130D01*
Y201286D01*
X533950D01*
Y201105D01*
X533589D01*
Y200925D01*
X533409D01*
Y200745D01*
X533048D01*
Y200564D01*
X530704D01*
Y200384D01*
X530524D01*
Y199663D01*
X530704D01*
Y199482D01*
X533228D01*
Y199302D01*
X533589D01*
Y199122D01*
X533769D01*
Y198941D01*
X534130D01*
Y198761D01*
X534310D01*
Y198581D01*
X534671D01*
Y198400D01*
X534851D01*
Y198220D01*
X535212D01*
Y198040D01*
X535933D01*
Y198941D01*
X535753D01*
Y199122D01*
X535572D01*
Y199302D01*
X535212D01*
Y199482D01*
X534851D01*
Y199663D01*
X534491D01*
Y199843D01*
X534130D01*
Y200204D01*
X534491D01*
Y200384D01*
X534851D01*
Y200564D01*
X535212D01*
Y200745D01*
X535572D01*
Y200925D01*
X535753D01*
Y201105D01*
X535933D01*
Y202007D01*
X535753D01*
Y202187D01*
D02*
G37*
G36*
Y192630D02*
X530704D01*
Y192450D01*
X530524D01*
Y189745D01*
X530704D01*
Y189565D01*
X531425D01*
Y189745D01*
X531606D01*
Y191548D01*
X533048D01*
Y189745D01*
X533228D01*
Y189565D01*
X533950D01*
Y190106D01*
X534130D01*
Y190827D01*
X533950D01*
Y191368D01*
X534130D01*
Y191548D01*
X534851D01*
Y189745D01*
X535032D01*
Y189565D01*
X535753D01*
Y189745D01*
X535933D01*
Y192450D01*
X535753D01*
Y192630D01*
D02*
G37*
G36*
X533950Y187762D02*
X532507D01*
Y187581D01*
X531966D01*
Y187401D01*
X531786D01*
Y187221D01*
X531606D01*
Y187040D01*
X531425D01*
Y186860D01*
X531065D01*
Y186680D01*
X530884D01*
Y186319D01*
X530704D01*
Y186139D01*
X530524D01*
Y185418D01*
X530343D01*
Y184696D01*
X530524D01*
Y183975D01*
X530704D01*
Y183434D01*
X530524D01*
Y183073D01*
X530343D01*
Y182352D01*
X530704D01*
Y182533D01*
X531065D01*
Y182713D01*
X531245D01*
Y182893D01*
X531606D01*
Y182713D01*
X531786D01*
Y182533D01*
X532147D01*
Y182352D01*
X532507D01*
Y182172D01*
X533950D01*
Y182352D01*
X534310D01*
Y182533D01*
X534671D01*
Y182713D01*
X534851D01*
Y182893D01*
X535032D01*
Y183073D01*
X535212D01*
Y183254D01*
X535392D01*
Y183434D01*
X535572D01*
Y183795D01*
X535753D01*
Y184155D01*
X535933D01*
Y185778D01*
X535753D01*
Y186139D01*
X535572D01*
Y186500D01*
X535392D01*
Y186680D01*
X535212D01*
Y186860D01*
X535032D01*
Y187040D01*
X534851D01*
Y187221D01*
X534671D01*
Y187401D01*
X534310D01*
Y187581D01*
X533950D01*
Y187762D01*
D02*
G37*
G36*
X535572Y180549D02*
X532147D01*
Y180369D01*
X531606D01*
Y180189D01*
X531245D01*
Y180008D01*
X531065D01*
Y179828D01*
X530884D01*
Y179648D01*
X530704D01*
Y179287D01*
X530524D01*
Y178926D01*
X530343D01*
Y178025D01*
X530524D01*
Y177484D01*
X530704D01*
Y177303D01*
X530884D01*
Y177123D01*
X531065D01*
Y176943D01*
X531245D01*
Y176762D01*
X531425D01*
Y176582D01*
X532147D01*
Y176402D01*
X535572D01*
Y176582D01*
X535753D01*
Y176762D01*
X535933D01*
Y177123D01*
X535753D01*
Y177484D01*
X531966D01*
Y177664D01*
X531606D01*
Y178025D01*
X531425D01*
Y178926D01*
X531606D01*
Y179107D01*
X531786D01*
Y179287D01*
X532147D01*
Y179467D01*
X535753D01*
Y179648D01*
X535933D01*
Y180189D01*
X535753D01*
Y180369D01*
X535572D01*
Y180549D01*
D02*
G37*
G36*
X535392Y174418D02*
X530704D01*
Y174238D01*
X530524D01*
Y173517D01*
X530704D01*
Y173336D01*
X535753D01*
Y173697D01*
X535933D01*
Y174058D01*
X535753D01*
Y174238D01*
X535392D01*
Y174418D01*
D02*
G37*
G36*
X535572Y171173D02*
X530524D01*
Y170091D01*
X532507D01*
Y169189D01*
X532688D01*
Y168828D01*
X532868D01*
Y168468D01*
X533048D01*
Y168288D01*
X533228D01*
Y168107D01*
X533589D01*
Y167927D01*
X534671D01*
Y168107D01*
X535032D01*
Y168288D01*
X535212D01*
Y168468D01*
X535392D01*
Y168648D01*
X535572D01*
Y169189D01*
X535753D01*
Y170992D01*
X535572D01*
Y171173D01*
D02*
G37*
G36*
X531966Y166484D02*
X530524D01*
Y165763D01*
X530704D01*
Y165583D01*
X531065D01*
Y165402D01*
X531966D01*
Y165222D01*
X533048D01*
Y165042D01*
X532868D01*
Y164862D01*
X532507D01*
Y164681D01*
X531966D01*
Y164501D01*
X531786D01*
Y164321D01*
X530884D01*
Y164140D01*
X530704D01*
Y163960D01*
X530524D01*
Y163780D01*
X530704D01*
Y163419D01*
X530884D01*
Y163239D01*
X531425D01*
Y163058D01*
X531786D01*
Y162878D01*
X531966D01*
Y162698D01*
X532688D01*
Y162517D01*
X532868D01*
Y162337D01*
X533048D01*
Y162157D01*
X531245D01*
Y161977D01*
X530704D01*
Y161796D01*
X530524D01*
Y161616D01*
X530343D01*
Y161075D01*
X530524D01*
Y160895D01*
X531606D01*
Y161075D01*
X532507D01*
Y161255D01*
X533228D01*
Y161436D01*
X534310D01*
Y161616D01*
X535392D01*
Y161796D01*
X535572D01*
Y162337D01*
X535392D01*
Y162517D01*
X534851D01*
Y162698D01*
X534491D01*
Y162878D01*
X534130D01*
Y163058D01*
X533589D01*
Y163239D01*
X533409D01*
Y163419D01*
X532688D01*
Y163599D01*
X532507D01*
Y163780D01*
X532688D01*
Y163960D01*
X533409D01*
Y164140D01*
X533589D01*
Y164321D01*
X533950D01*
Y164501D01*
X534491D01*
Y164681D01*
X534671D01*
Y164862D01*
X535392D01*
Y165042D01*
X535753D01*
Y165583D01*
X535572D01*
Y165763D01*
X534851D01*
Y165944D01*
X533769D01*
Y166124D01*
X532507D01*
Y166304D01*
X531966D01*
Y166484D01*
D02*
G37*
G36*
X535212Y159091D02*
X530884D01*
Y158911D01*
X530524D01*
Y158551D01*
X530343D01*
Y156387D01*
X530524D01*
Y156026D01*
X530704D01*
Y155846D01*
X531245D01*
Y156026D01*
X531425D01*
Y157829D01*
X531606D01*
Y158010D01*
X532868D01*
Y156206D01*
X533048D01*
Y156026D01*
X533769D01*
Y156206D01*
X533950D01*
Y158010D01*
X534671D01*
Y157829D01*
X534851D01*
Y157469D01*
X534671D01*
Y156387D01*
X534851D01*
Y156026D01*
X535032D01*
Y155846D01*
X535572D01*
Y156026D01*
X535753D01*
Y158731D01*
X535572D01*
Y158911D01*
X535212D01*
Y159091D01*
D02*
G37*
G36*
X535753Y153862D02*
X530524D01*
Y153682D01*
X530343D01*
Y152961D01*
X530524D01*
Y152780D01*
X533589D01*
Y152600D01*
X533409D01*
Y152420D01*
X533228D01*
Y152240D01*
X533048D01*
Y152059D01*
X532868D01*
Y151879D01*
X532688D01*
Y151699D01*
X532507D01*
Y151518D01*
X532327D01*
Y151338D01*
X532147D01*
Y151157D01*
X531966D01*
Y150977D01*
X531786D01*
Y150797D01*
X531606D01*
Y150617D01*
X531425D01*
Y150436D01*
X531245D01*
Y150256D01*
X531065D01*
Y150076D01*
X530704D01*
Y149895D01*
X530524D01*
Y149535D01*
X530343D01*
Y148994D01*
X535392D01*
Y149174D01*
X535572D01*
Y149354D01*
X535753D01*
Y149895D01*
X535572D01*
Y150076D01*
X532507D01*
Y150436D01*
X532688D01*
Y150617D01*
X533048D01*
Y150797D01*
X533228D01*
Y150977D01*
X533409D01*
Y151157D01*
X533589D01*
Y151338D01*
X533769D01*
Y151518D01*
X533950D01*
Y151699D01*
X534130D01*
Y151879D01*
X534310D01*
Y152240D01*
X534491D01*
Y152420D01*
X534851D01*
Y152600D01*
X535032D01*
Y152780D01*
X535212D01*
Y152961D01*
X535572D01*
Y153321D01*
X535753D01*
Y153502D01*
X535933D01*
Y153682D01*
X535753D01*
Y153862D01*
D02*
G37*
G36*
X535392Y147551D02*
X535032D01*
Y147371D01*
X534671D01*
Y146289D01*
X533950D01*
Y146469D01*
X533589D01*
Y146289D01*
X531425D01*
Y146469D01*
X530884D01*
Y146289D01*
X530524D01*
Y146109D01*
X530343D01*
Y145387D01*
X530524D01*
Y145207D01*
X534671D01*
Y144306D01*
X534851D01*
Y144125D01*
X535572D01*
Y144306D01*
X535753D01*
Y147191D01*
X535572D01*
Y147371D01*
X535392D01*
Y147551D01*
D02*
G37*
%LPD*%
G36*
X533228Y246545D02*
X533409D01*
Y246364D01*
X533769D01*
Y246184D01*
X534130D01*
Y246004D01*
X533950D01*
Y245824D01*
X533589D01*
Y245643D01*
X533048D01*
Y245824D01*
X532868D01*
Y246004D01*
X533048D01*
Y246184D01*
Y246364D01*
X532868D01*
Y246545D01*
X533048D01*
Y246725D01*
X533228D01*
Y246545D01*
D02*
G37*
G36*
X535032Y240234D02*
X534851D01*
Y240053D01*
X534130D01*
Y240234D01*
X533950D01*
Y240775D01*
X535032D01*
Y240234D01*
D02*
G37*
G36*
X532147Y240775D02*
X533048D01*
Y240234D01*
X532868D01*
Y239873D01*
X532688D01*
Y239693D01*
X531966D01*
Y239873D01*
X531786D01*
Y240234D01*
X531606D01*
Y240775D01*
X531786D01*
Y240955D01*
X532147D01*
Y240775D01*
D02*
G37*
G36*
X533950Y235726D02*
X534310D01*
Y235545D01*
X534491D01*
Y235365D01*
X534671D01*
Y235185D01*
X534851D01*
Y234824D01*
X535032D01*
Y233382D01*
X534851D01*
Y233021D01*
X534671D01*
Y232841D01*
X534491D01*
Y232661D01*
X534310D01*
Y232480D01*
X532327D01*
Y232661D01*
X532147D01*
Y232841D01*
X531966D01*
Y233021D01*
X531786D01*
Y233382D01*
X531606D01*
Y234644D01*
X531786D01*
Y235185D01*
X531966D01*
Y235365D01*
X532147D01*
Y235545D01*
X532327D01*
Y235726D01*
X532688D01*
Y235906D01*
X533950D01*
Y235726D01*
D02*
G37*
G36*
X534851Y228333D02*
X535032D01*
Y227972D01*
X534851D01*
Y227612D01*
X534671D01*
Y227431D01*
X533950D01*
Y227612D01*
X533769D01*
Y228153D01*
X533589D01*
Y228333D01*
X533769D01*
Y228513D01*
X534851D01*
Y228333D01*
D02*
G37*
G36*
X533228Y222563D02*
X533769D01*
Y222382D01*
X534130D01*
Y222202D01*
X533769D01*
Y222022D01*
X533409D01*
Y221842D01*
X532868D01*
Y222743D01*
X533228D01*
Y222563D01*
D02*
G37*
G36*
X534130Y212826D02*
X534310D01*
Y212645D01*
X534491D01*
Y212465D01*
X534671D01*
Y212285D01*
X534851D01*
Y211744D01*
X535032D01*
Y210842D01*
X534851D01*
Y210482D01*
Y210301D01*
X534671D01*
Y210121D01*
X534491D01*
Y209941D01*
X534310D01*
Y209760D01*
X533228D01*
Y209580D01*
X533048D01*
Y209760D01*
X532147D01*
Y209941D01*
X531966D01*
Y210121D01*
X531786D01*
Y210482D01*
X531606D01*
Y212104D01*
X531786D01*
Y212465D01*
X531966D01*
Y212645D01*
X532147D01*
Y212826D01*
X532327D01*
Y213006D01*
X534130D01*
Y212826D01*
D02*
G37*
G36*
X534851Y204892D02*
X534671D01*
Y204712D01*
X534491D01*
Y204531D01*
X533950D01*
Y204712D01*
X533769D01*
Y205072D01*
X533589D01*
Y205613D01*
X534851D01*
Y204892D01*
D02*
G37*
G36*
X533589Y186500D02*
X534310D01*
Y186319D01*
X534491D01*
Y185959D01*
X534671D01*
Y185778D01*
X534851D01*
Y184155D01*
X534671D01*
Y183795D01*
X534491D01*
Y183615D01*
X534310D01*
Y183434D01*
X533950D01*
Y183254D01*
X532507D01*
Y183434D01*
X532147D01*
Y183795D01*
X532327D01*
Y183975D01*
X532507D01*
Y184155D01*
X532688D01*
Y184516D01*
X532868D01*
Y185057D01*
X531966D01*
Y184696D01*
X531786D01*
Y184516D01*
X531425D01*
Y185418D01*
X531606D01*
Y185778D01*
Y185959D01*
X531786D01*
Y186139D01*
X531966D01*
Y186319D01*
X532147D01*
Y186500D01*
X532868D01*
Y186680D01*
X533589D01*
Y186500D01*
D02*
G37*
G36*
X534851Y169730D02*
X534671D01*
Y169189D01*
X534491D01*
Y169009D01*
X533769D01*
Y169189D01*
X533589D01*
Y169550D01*
X533409D01*
Y170091D01*
X534851D01*
Y169730D01*
D02*
G37*
D10*
X332776Y382579D02*
G03*
X332776Y382579I-394J0D01*
G01*
X539390Y286280D02*
G03*
X539390Y286280I-394J0D01*
G01*
X393504Y355807D02*
G03*
X393504Y355807I-394J0D01*
G01*
X355906Y320472D02*
G03*
X355906Y320472I-394J0D01*
G01*
X450295Y355118D02*
G03*
X450295Y355118I-394J0D01*
G01*
X206437Y369988D02*
G03*
X206437Y369988I-394J0D01*
G01*
X267627Y241674D02*
G03*
X267627Y241674I-394J0D01*
G01*
X411221Y268602D02*
X436024D01*
Y243799D02*
Y268602D01*
X411221Y243799D02*
X436024D01*
X411221D02*
Y268602D01*
X147933Y353248D02*
X184153D01*
X147933D02*
Y382382D01*
X193209D01*
X264871Y248761D02*
Y250336D01*
X269595Y248761D02*
Y250336D01*
X147324Y310523D02*
X183545D01*
X147324D02*
Y339657D01*
X192600D01*
X147324Y274202D02*
X183545D01*
X147324D02*
Y303336D01*
X192600D01*
X610532Y235335D02*
X619193D01*
X610532Y235433D02*
Y295276D01*
D11*
X409941Y270374D02*
G03*
X409941Y270374I-492J0D01*
G01*
D12*
X355807Y274009D02*
G03*
X352055Y267808I3248J-6201D01*
G01*
X366055D02*
G03*
X362303Y274009I-7000J0D01*
G01*
X352055Y242508D02*
G03*
X355807Y236307I7000J0D01*
G01*
X362303D02*
G03*
X366055Y242508I-3248J6201D01*
G01*
X608268Y332382D02*
G03*
X608268Y332382I-18898J0D01*
G01*
X337421Y346791D02*
Y357197D01*
X297421D02*
X337421D01*
X297421Y346791D02*
Y357197D01*
X533957Y291831D02*
Y319390D01*
X554035Y291831D02*
Y319390D01*
X329384Y236568D02*
Y242868D01*
Y228268D02*
Y234468D01*
X322584Y228194D02*
X329384D01*
X322584Y228268D02*
Y234368D01*
Y236668D02*
Y242868D01*
X329384D01*
X306150Y236568D02*
Y242868D01*
Y228268D02*
Y234468D01*
X299350Y228194D02*
X306150D01*
X299350Y228268D02*
Y234368D01*
Y236668D02*
Y242868D01*
X306150D01*
X264694Y322991D02*
Y324329D01*
X270048Y322991D02*
Y324329D01*
X264694Y271789D02*
Y273128D01*
X270048Y271789D02*
Y273128D01*
X234941Y349705D02*
X284154D01*
X234941Y398917D02*
X284154D01*
Y349705D02*
Y362303D01*
X234941Y349705D02*
Y362303D01*
Y386319D02*
Y398917D01*
X284154Y386319D02*
Y398917D01*
X357480Y368209D02*
Y380413D01*
Y347736D02*
Y359941D01*
X390158Y355906D02*
Y359941D01*
X381988Y347736D02*
X390158Y355906D01*
X357480Y380413D02*
X381988D01*
X390158Y368209D02*
Y372244D01*
X381988Y380413D02*
X390158Y372244D01*
X357480Y347736D02*
X381988D01*
X362451Y308858D02*
X389518D01*
X362451D02*
Y312953D01*
X389518Y308858D02*
Y312953D01*
X362451Y332087D02*
X389518D01*
Y327992D02*
Y332087D01*
X362451Y327992D02*
Y332087D01*
X414272Y367520D02*
Y379724D01*
Y347047D02*
Y359252D01*
X446949Y355217D02*
Y359252D01*
X438779Y347047D02*
X446949Y355217D01*
X414272Y379724D02*
X438779D01*
X446949Y367520D02*
Y371555D01*
X438779Y379724D02*
X446949Y371555D01*
X414272Y347047D02*
X438779D01*
X201831Y379882D02*
Y394528D01*
X228287Y379882D02*
Y394528D01*
X201831Y379882D02*
X202854D01*
X227303D02*
X228287D01*
X222421Y394528D02*
X228287D01*
X201831D02*
X208130D01*
X233366Y322991D02*
Y324329D01*
X238720Y322991D02*
Y324329D01*
X379292Y183944D02*
Y189945D01*
X371692Y183944D02*
X379292D01*
X371692D02*
Y189744D01*
Y198345D02*
X379292D01*
X371692Y192445D02*
Y198345D01*
X379292Y192445D02*
Y198345D01*
X532678Y141798D02*
X538978D01*
X541078D02*
X547278D01*
X547352Y134998D02*
Y141798D01*
X541178Y134998D02*
X547278D01*
X532678D02*
X538878D01*
X532678D02*
Y141798D01*
X510630D02*
X516930D01*
X519030D02*
X525230D01*
X525304Y134998D02*
Y141798D01*
X519130Y134998D02*
X525230D01*
X510630D02*
X516830D01*
X510630D02*
Y141798D01*
X490452D02*
X496752D01*
X498852D02*
X505052D01*
X505126Y134998D02*
Y141798D01*
X498952Y134998D02*
X505052D01*
X490452D02*
X496652D01*
X490452D02*
Y141798D01*
X470274D02*
X476574D01*
X478674D02*
X484874D01*
X484948Y134998D02*
Y141798D01*
X478774Y134998D02*
X484874D01*
X470274D02*
X476474D01*
X470274D02*
Y141798D01*
X369155Y226008D02*
Y283508D01*
X349455Y226008D02*
X369155Y226008D01*
X349455Y226008D02*
Y283508D01*
X369155Y283508D01*
X366055Y242508D02*
Y268008D01*
X352019Y242472D02*
Y268008D01*
X306950Y256678D02*
Y262678D01*
X299350Y256678D02*
X306950D01*
X299350D02*
Y262478D01*
Y271078D02*
X306950D01*
X299350Y265178D02*
Y271078D01*
X306950Y265178D02*
Y271078D01*
X322584Y256404D02*
Y262704D01*
Y264804D02*
Y271004D01*
Y271078D02*
X329384D01*
Y264904D02*
Y271004D01*
Y256404D02*
Y262604D01*
X322584Y256404D02*
X329384D01*
X503899Y210952D02*
Y217952D01*
X518516D01*
Y210952D02*
Y217952D01*
X503899Y210952D02*
X518516D01*
X503899Y179772D02*
Y186772D01*
X518516D01*
Y179772D02*
Y186772D01*
X503899Y179772D02*
X518516D01*
X482302Y218367D02*
X488302D01*
Y210767D02*
Y218367D01*
X482502Y210767D02*
X488302D01*
X473902D02*
Y218367D01*
Y210767D02*
X479802D01*
X473902Y218367D02*
X479802D01*
X482302Y186772D02*
X488302D01*
Y179172D02*
Y186772D01*
X482502Y179172D02*
X488302D01*
X473902D02*
Y186772D01*
Y179172D02*
X479802D01*
X473902Y186772D02*
X479802D01*
X503899Y242132D02*
Y249132D01*
X518516D01*
Y242132D02*
Y249132D01*
X503899Y242132D02*
X518516D01*
X482302Y249132D02*
X488302D01*
Y241532D02*
Y249132D01*
X482502Y241532D02*
X488302D01*
X473902D02*
Y249132D01*
Y241532D02*
X479802D01*
X473902Y249132D02*
X479802D01*
X262637Y223936D02*
Y229936D01*
X270237D01*
Y224136D02*
Y229936D01*
X262637Y215536D02*
X270237D01*
Y221436D01*
X262637Y215536D02*
Y221436D01*
X350817Y183944D02*
Y189945D01*
X343217Y183944D02*
X350817D01*
X343217D02*
Y189744D01*
Y198345D02*
X350817D01*
X343217Y192445D02*
Y198345D01*
X350817Y192445D02*
Y198345D01*
X557480Y386417D02*
Y387372D01*
X526378Y386417D02*
Y387372D01*
Y386417D02*
X557480D01*
X526378Y394672D02*
Y396072D01*
X557480Y394772D02*
Y396172D01*
X526378Y405004D02*
Y411004D01*
X557480Y405004D02*
Y411004D01*
X526378D02*
X557480D01*
X318996Y121161D02*
Y166437D01*
X270177D02*
X318996D01*
X270177Y121161D02*
Y166437D01*
Y121161D02*
X318996D01*
X480816Y354174D02*
X486816D01*
Y346574D02*
Y354174D01*
X481016Y346574D02*
X486816D01*
X472416D02*
Y354174D01*
Y346574D02*
X478316D01*
X472416Y354174D02*
X478316D01*
X500798D02*
X506798D01*
Y346574D02*
Y354174D01*
X500998Y346574D02*
X506798D01*
X492398D02*
Y354174D01*
Y346574D02*
X498298D01*
X492398Y354174D02*
X498298D01*
X291812Y188996D02*
Y190335D01*
X286457Y188996D02*
Y190335D01*
X526495Y352619D02*
X532495D01*
Y345019D02*
Y352619D01*
X526695Y345019D02*
X532495D01*
X518095D02*
Y352619D01*
Y345019D02*
X523995D01*
X518095Y352619D02*
X523995D01*
X320286Y188996D02*
Y190335D01*
X314932Y188996D02*
Y190335D01*
X257579Y121161D02*
Y166437D01*
X208760D02*
X257579D01*
X208760Y121161D02*
Y166437D01*
Y121161D02*
X257579D01*
X234862Y188996D02*
Y190335D01*
X229508Y188996D02*
Y190335D01*
X263337Y188996D02*
Y190335D01*
X257983Y188996D02*
Y190335D01*
X572736Y290158D02*
X618012D01*
X572736Y241339D02*
Y290158D01*
Y241339D02*
X618012D01*
Y290158D01*
X148721Y155413D02*
X193996D01*
Y204232D01*
X148721D02*
X193996D01*
X148721Y155413D02*
Y204232D01*
X147146Y212697D02*
X192421D01*
Y261516D01*
X147146D02*
X192421D01*
X147146Y212697D02*
Y261516D01*
X494178Y283996D02*
X500178D01*
X494178D02*
Y291596D01*
X499978D01*
X508578Y283996D02*
Y291596D01*
X502678D02*
X508578D01*
X502678Y283996D02*
X508578D01*
X494572Y310078D02*
X500572D01*
X494572D02*
Y317678D01*
X500372D01*
X508972Y310078D02*
Y317678D01*
X503072D02*
X508972D01*
X503072Y310078D02*
X508972D01*
X470950Y282519D02*
X476950D01*
X470950D02*
Y290119D01*
X476750D01*
X485350Y282519D02*
Y290119D01*
X479450D02*
X485350D01*
X479450Y282519D02*
X485350D01*
D13*
X323146Y155413D02*
G03*
X323146Y155413I-1000J0D01*
G01*
X261728D02*
G03*
X261728Y155413I-1000J0D01*
G01*
X584760Y293307D02*
G03*
X584760Y293307I-1000J0D01*
G01*
X183972Y152264D02*
G03*
X183972Y152264I-1000J0D01*
G01*
X182398Y209547D02*
G03*
X182398Y209547I-1000J0D01*
G01*
D14*
X462961Y401324D02*
D03*
D15*
X460061Y398824D02*
X499161D01*
X457061D02*
X460061D01*
X457061Y385824D02*
Y398824D01*
Y385824D02*
X499161D01*
Y398824D01*
X444173Y164094D02*
Y194095D01*
X424173D02*
X444173D01*
X424173Y164094D02*
Y194095D01*
Y164094D02*
X444173D01*
X350394Y134941D02*
X397638D01*
X350394D02*
Y150915D01*
X397638D01*
Y134941D02*
Y150915D01*
X296000Y390336D02*
Y387712D01*
X297312Y386400D01*
X298624Y387712D01*
Y390336D01*
X299936Y386400D02*
Y390336D01*
X301904D01*
X302560Y389680D01*
Y388368D01*
X301904Y387712D01*
X299936D01*
X301248D02*
X302560Y386400D01*
X303871D02*
X305183D01*
X304527D01*
Y390336D01*
X303871Y389680D01*
X533900Y331036D02*
X535212D01*
X534556D01*
Y327100D01*
X533900D01*
X535212D01*
X539804Y330380D02*
X539148Y331036D01*
X537836D01*
X537180Y330380D01*
Y327756D01*
X537836Y327100D01*
X539148D01*
X539804Y327756D01*
X543739Y327100D02*
X541116D01*
X543739Y329724D01*
Y330380D01*
X543083Y331036D01*
X541772D01*
X541116Y330380D01*
X325924Y249380D02*
X325268Y250036D01*
X323956D01*
X323300Y249380D01*
Y246756D01*
X323956Y246100D01*
X325268D01*
X325924Y246756D01*
X327236Y246100D02*
X328548D01*
X327892D01*
Y250036D01*
X327236Y249380D01*
X330516D02*
X331171Y250036D01*
X332483D01*
X333139Y249380D01*
Y248724D01*
X332483Y248068D01*
X331827D01*
X332483D01*
X333139Y247412D01*
Y246756D01*
X332483Y246100D01*
X331171D01*
X330516Y246756D01*
X302724Y249380D02*
X302068Y250036D01*
X300756D01*
X300100Y249380D01*
Y246756D01*
X300756Y246100D01*
X302068D01*
X302724Y246756D01*
X304036Y246100D02*
X305348D01*
X304692D01*
Y250036D01*
X304036Y249380D01*
X309283Y246100D02*
Y250036D01*
X307315Y248068D01*
X309939D01*
X404300Y283436D02*
Y280156D01*
X404956Y279500D01*
X406268D01*
X406924Y280156D01*
Y283436D01*
X410860Y279500D02*
X408236D01*
X410860Y282124D01*
Y282780D01*
X410204Y283436D01*
X408892D01*
X408236Y282780D01*
X147900Y386500D02*
Y390436D01*
X149868D01*
X150524Y389780D01*
Y388468D01*
X149868Y387812D01*
X147900D01*
X151836Y390436D02*
Y386500D01*
X153148Y387812D01*
X154460Y386500D01*
Y390436D01*
X155772Y386500D02*
Y390436D01*
X157739D01*
X158395Y389780D01*
Y388468D01*
X157739Y387812D01*
X155772D01*
X157083D02*
X158395Y386500D01*
X159707Y389780D02*
X160363Y390436D01*
X161675D01*
X162331Y389780D01*
Y389124D01*
X161019Y387812D01*
Y387156D02*
Y386500D01*
X264600Y333300D02*
Y337236D01*
X266568D01*
X267224Y336580D01*
Y335268D01*
X266568Y334612D01*
X264600D01*
X265912D02*
X267224Y333300D01*
X268536D02*
X269848D01*
X269192D01*
Y337236D01*
X268536Y336580D01*
X266824Y311380D02*
X266168Y312036D01*
X264856D01*
X264200Y311380D01*
Y308756D01*
X264856Y308100D01*
X266168D01*
X266824Y308756D01*
X268136Y308100D02*
X269448D01*
X268792D01*
Y312036D01*
X268136Y311380D01*
X264600Y282100D02*
Y286036D01*
X266568D01*
X267224Y285380D01*
Y284068D01*
X266568Y283412D01*
X264600D01*
X265912D02*
X267224Y282100D01*
X271160D02*
X268536D01*
X271160Y284724D01*
Y285380D01*
X270504Y286036D01*
X269192D01*
X268536Y285380D01*
X234700Y407136D02*
Y403200D01*
X237324D01*
X238636D02*
X239948D01*
X239292D01*
Y407136D01*
X238636Y406480D01*
X355324Y388180D02*
X354668Y388836D01*
X353356D01*
X352700Y388180D01*
Y385556D01*
X353356Y384900D01*
X354668D01*
X355324Y385556D01*
X359260Y384900D02*
X356636D01*
X359260Y387524D01*
Y388180D01*
X358604Y388836D01*
X357292D01*
X356636Y388180D01*
X355700Y340136D02*
Y336200D01*
X357668D01*
X358324Y336856D01*
Y339480D01*
X357668Y340136D01*
X355700D01*
X359636Y336200D02*
X360948D01*
X360292D01*
Y340136D01*
X359636Y339480D01*
X412124Y387480D02*
X411468Y388136D01*
X410156D01*
X409500Y387480D01*
Y384856D01*
X410156Y384200D01*
X411468D01*
X412124Y384856D01*
X413436Y387480D02*
X414092Y388136D01*
X415404D01*
X416060Y387480D01*
Y386824D01*
X415404Y386168D01*
X414748D01*
X415404D01*
X416060Y385512D01*
Y384856D01*
X415404Y384200D01*
X414092D01*
X413436Y384856D01*
X201700Y410936D02*
Y407656D01*
X202356Y407000D01*
X203668D01*
X204324Y407656D01*
Y410936D01*
X205636Y407000D02*
X206948D01*
X206292D01*
Y410936D01*
X205636Y410280D01*
X233200Y333300D02*
Y337236D01*
X235168D01*
X235824Y336580D01*
Y335268D01*
X235168Y334612D01*
X233200D01*
X234512D02*
X235824Y333300D01*
X237136Y336580D02*
X237792Y337236D01*
X239104D01*
X239760Y336580D01*
Y335924D01*
X239104Y335268D01*
X238448D01*
X239104D01*
X239760Y334612D01*
Y333956D01*
X239104Y333300D01*
X237792D01*
X237136Y333956D01*
X235924Y311380D02*
X235268Y312036D01*
X233956D01*
X233300Y311380D01*
Y308756D01*
X233956Y308100D01*
X235268D01*
X235924Y308756D01*
X237236Y312036D02*
X239860D01*
Y311380D01*
X237236Y308756D01*
Y308100D01*
X235924Y285780D02*
X235268Y286436D01*
X233956D01*
X233300Y285780D01*
Y283156D01*
X233956Y282500D01*
X235268D01*
X235924Y283156D01*
X239860Y286436D02*
X238548Y285780D01*
X237236Y284468D01*
Y283156D01*
X237892Y282500D01*
X239204D01*
X239860Y283156D01*
Y283812D01*
X239204Y284468D01*
X237236D01*
X235924Y260180D02*
X235268Y260836D01*
X233956D01*
X233300Y260180D01*
Y257556D01*
X233956Y256900D01*
X235268D01*
X235924Y257556D01*
X239860Y260836D02*
X237236D01*
Y258868D01*
X238548Y259524D01*
X239204D01*
X239860Y258868D01*
Y257556D01*
X239204Y256900D01*
X237892D01*
X237236Y257556D01*
X235924Y234580D02*
X235268Y235236D01*
X233956D01*
X233300Y234580D01*
Y231956D01*
X233956Y231300D01*
X235268D01*
X235924Y231956D01*
X239204Y231300D02*
Y235236D01*
X237236Y233268D01*
X239860D01*
X264200Y263236D02*
Y259300D01*
X266824D01*
X270760D02*
X268136D01*
X270760Y261924D01*
Y262580D01*
X270104Y263236D01*
X268792D01*
X268136Y262580D01*
X460224Y410236D02*
X458912D01*
X459568D01*
Y406956D01*
X458912Y406300D01*
X458256D01*
X457600Y406956D01*
X464160Y406300D02*
X461536D01*
X464160Y408924D01*
Y409580D01*
X463504Y410236D01*
X462192D01*
X461536Y409580D01*
X372400Y201600D02*
Y205536D01*
X374368D01*
X375024Y204880D01*
Y203568D01*
X374368Y202912D01*
X372400D01*
X373712D02*
X375024Y201600D01*
X378304D02*
Y205536D01*
X376336Y203568D01*
X378960D01*
X536024Y148280D02*
X535368Y148936D01*
X534056D01*
X533400Y148280D01*
Y145656D01*
X534056Y145000D01*
X535368D01*
X536024Y145656D01*
X537336Y145000D02*
X538648D01*
X537992D01*
Y148936D01*
X537336Y148280D01*
X540616Y145000D02*
X541927D01*
X541271D01*
Y148936D01*
X540616Y148280D01*
X514024D02*
X513368Y148936D01*
X512056D01*
X511400Y148280D01*
Y145656D01*
X512056Y145000D01*
X513368D01*
X514024Y145656D01*
X515336Y145000D02*
X516648D01*
X515992D01*
Y148936D01*
X515336Y148280D01*
X518615D02*
X519272Y148936D01*
X520583D01*
X521239Y148280D01*
Y145656D01*
X520583Y145000D01*
X519272D01*
X518615Y145656D01*
Y148280D01*
X493824D02*
X493168Y148936D01*
X491856D01*
X491200Y148280D01*
Y145656D01*
X491856Y145000D01*
X493168D01*
X493824Y145656D01*
X495136D02*
X495792Y145000D01*
X497104D01*
X497760Y145656D01*
Y148280D01*
X497104Y148936D01*
X495792D01*
X495136Y148280D01*
Y147624D01*
X495792Y146968D01*
X497760D01*
X473624Y148280D02*
X472968Y148936D01*
X471656D01*
X471000Y148280D01*
Y145656D01*
X471656Y145000D01*
X472968D01*
X473624Y145656D01*
X474936Y148280D02*
X475592Y148936D01*
X476904D01*
X477560Y148280D01*
Y147624D01*
X476904Y146968D01*
X477560Y146312D01*
Y145656D01*
X476904Y145000D01*
X475592D01*
X474936Y145656D01*
Y146312D01*
X475592Y146968D01*
X474936Y147624D01*
Y148280D01*
X475592Y146968D02*
X476904D01*
X350200Y290736D02*
Y290080D01*
X351512Y288768D01*
X352824Y290080D01*
Y290736D01*
X351512Y288768D02*
Y286800D01*
X354136D02*
X355448D01*
X354792D01*
Y290736D01*
X354136Y290080D01*
X300100Y274300D02*
Y278236D01*
X302068D01*
X302724Y277580D01*
Y276268D01*
X302068Y275612D01*
X300100D01*
X301412D02*
X302724Y274300D01*
X306660Y278236D02*
X304036D01*
Y276268D01*
X305348Y276924D01*
X306004D01*
X306660Y276268D01*
Y274956D01*
X306004Y274300D01*
X304692D01*
X304036Y274956D01*
X325924Y277580D02*
X325268Y278236D01*
X323956D01*
X323300Y277580D01*
Y274956D01*
X323956Y274300D01*
X325268D01*
X325924Y274956D01*
X327236Y274300D02*
X328548D01*
X327892D01*
Y278236D01*
X327236Y277580D01*
X333139Y274300D02*
X330516D01*
X333139Y276924D01*
Y277580D01*
X332483Y278236D01*
X331171D01*
X330516Y277580D01*
X501600Y225136D02*
Y221200D01*
X504224D01*
X508160Y225136D02*
X505536D01*
Y221200D01*
X508160D01*
X505536Y223168D02*
X506848D01*
X509472Y225136D02*
Y221200D01*
X511439D01*
X512095Y221856D01*
Y224480D01*
X511439Y225136D01*
X509472D01*
X516031Y221200D02*
X513407D01*
X516031Y223824D01*
Y224480D01*
X515375Y225136D01*
X514063D01*
X513407Y224480D01*
X501600Y193936D02*
Y190000D01*
X504224D01*
X508160Y193936D02*
X505536D01*
Y190000D01*
X508160D01*
X505536Y191968D02*
X506848D01*
X509472Y193936D02*
Y190000D01*
X511439D01*
X512095Y190656D01*
Y193280D01*
X511439Y193936D01*
X509472D01*
X513407Y190000D02*
X514719D01*
X514063D01*
Y193936D01*
X513407Y193280D01*
X474700Y221600D02*
Y225536D01*
X476668D01*
X477324Y224880D01*
Y223568D01*
X476668Y222912D01*
X474700D01*
X476012D02*
X477324Y221600D01*
X478636Y225536D02*
X481260D01*
Y224880D01*
X478636Y222256D01*
Y221600D01*
X474700Y190000D02*
Y193936D01*
X476668D01*
X477324Y193280D01*
Y191968D01*
X476668Y191312D01*
X474700D01*
X476012D02*
X477324Y190000D01*
X481260Y193936D02*
X479948Y193280D01*
X478636Y191968D01*
Y190656D01*
X479292Y190000D01*
X480604D01*
X481260Y190656D01*
Y191312D01*
X480604Y191968D01*
X478636D01*
X501600Y256336D02*
Y252400D01*
X504224D01*
X508160Y256336D02*
X505536D01*
Y252400D01*
X508160D01*
X505536Y254368D02*
X506848D01*
X509472Y256336D02*
Y252400D01*
X511439D01*
X512095Y253056D01*
Y255680D01*
X511439Y256336D01*
X509472D01*
X513407Y255680D02*
X514063Y256336D01*
X515375D01*
X516031Y255680D01*
Y255024D01*
X515375Y254368D01*
X514719D01*
X515375D01*
X516031Y253712D01*
Y253056D01*
X515375Y252400D01*
X514063D01*
X513407Y253056D01*
X427324Y201536D02*
X426012D01*
X426668D01*
Y198256D01*
X426012Y197600D01*
X425356D01*
X424700Y198256D01*
X428636Y200880D02*
X429292Y201536D01*
X430604D01*
X431260Y200880D01*
Y200224D01*
X430604Y199568D01*
X429948D01*
X430604D01*
X431260Y198912D01*
Y198256D01*
X430604Y197600D01*
X429292D01*
X428636Y198256D01*
X474700Y252400D02*
Y256336D01*
X476668D01*
X477324Y255680D01*
Y254368D01*
X476668Y253712D01*
X474700D01*
X476012D02*
X477324Y252400D01*
X478636D02*
X479948D01*
X479292D01*
Y256336D01*
X478636Y255680D01*
X481916D02*
X482572Y256336D01*
X483883D01*
X484539Y255680D01*
Y255024D01*
X483883Y254368D01*
X483227D01*
X483883D01*
X484539Y253712D01*
Y253056D01*
X483883Y252400D01*
X482572D01*
X481916Y253056D01*
X263400Y233200D02*
Y237136D01*
X265368D01*
X266024Y236480D01*
Y235168D01*
X265368Y234512D01*
X263400D01*
X264712D02*
X266024Y233200D01*
X267336Y236480D02*
X267992Y237136D01*
X269304D01*
X269960Y236480D01*
Y235824D01*
X269304Y235168D01*
X269960Y234512D01*
Y233856D01*
X269304Y233200D01*
X267992D01*
X267336Y233856D01*
Y234512D01*
X267992Y235168D01*
X267336Y235824D01*
Y236480D01*
X267992Y235168D02*
X269304D01*
X344000Y201600D02*
Y205536D01*
X345968D01*
X346624Y204880D01*
Y203568D01*
X345968Y202912D01*
X344000D01*
X345312D02*
X346624Y201600D01*
X347936Y202256D02*
X348592Y201600D01*
X349904D01*
X350560Y202256D01*
Y204880D01*
X349904Y205536D01*
X348592D01*
X347936Y204880D01*
Y204224D01*
X348592Y203568D01*
X350560D01*
X353524Y157680D02*
X352868Y158336D01*
X351556D01*
X350900Y157680D01*
Y157024D01*
X351556Y156368D01*
X352868D01*
X353524Y155712D01*
Y155056D01*
X352868Y154400D01*
X351556D01*
X350900Y155056D01*
X354836Y158336D02*
Y154400D01*
X356148Y155712D01*
X357460Y154400D01*
Y158336D01*
X358771Y154400D02*
X360083D01*
X359427D01*
Y158336D01*
X358771Y157680D01*
X526424Y418236D02*
X525112D01*
X525768D01*
Y414956D01*
X525112Y414300D01*
X524456D01*
X523800Y414956D01*
X529704Y414300D02*
Y418236D01*
X527736Y416268D01*
X530360D01*
X269700Y175436D02*
X271012D01*
X270356D01*
Y171500D01*
X269700D01*
X271012D01*
X275604D02*
X272980D01*
X275604Y174124D01*
Y174780D01*
X274948Y175436D01*
X273636D01*
X272980Y174780D01*
X279539D02*
X278883Y175436D01*
X277572D01*
X276916Y174780D01*
Y172156D01*
X277572Y171500D01*
X278883D01*
X279539Y172156D01*
X280851Y170844D02*
X283475D01*
X287411Y171500D02*
X284787D01*
X287411Y174124D01*
Y174780D01*
X286755Y175436D01*
X285443D01*
X284787Y174780D01*
X473200Y357400D02*
Y361336D01*
X475168D01*
X475824Y360680D01*
Y359368D01*
X475168Y358712D01*
X473200D01*
X474512D02*
X475824Y357400D01*
X477136D02*
X478448D01*
X477792D01*
Y361336D01*
X477136Y360680D01*
X480415D02*
X481072Y361336D01*
X482383D01*
X483039Y360680D01*
Y358056D01*
X482383Y357400D01*
X481072D01*
X480415Y358056D01*
Y360680D01*
X493100Y357400D02*
Y361336D01*
X495068D01*
X495724Y360680D01*
Y359368D01*
X495068Y358712D01*
X493100D01*
X494412D02*
X495724Y357400D01*
X497036D02*
X498348D01*
X497692D01*
Y361336D01*
X497036Y360680D01*
X500316Y357400D02*
X501627D01*
X500972D01*
Y361336D01*
X500316Y360680D01*
X286300Y199300D02*
Y203236D01*
X288268D01*
X288924Y202580D01*
Y201268D01*
X288268Y200612D01*
X286300D01*
X287612D02*
X288924Y199300D01*
X290236D02*
X291548D01*
X290892D01*
Y203236D01*
X290236Y202580D01*
X293515D02*
X294172Y203236D01*
X295483D01*
X296139Y202580D01*
Y199956D01*
X295483Y199300D01*
X294172D01*
X293515Y199956D01*
Y202580D01*
X297451D02*
X298107Y203236D01*
X299419D01*
X300075Y202580D01*
Y201924D01*
X299419Y201268D01*
X298763D01*
X299419D01*
X300075Y200612D01*
Y199956D01*
X299419Y199300D01*
X298107D01*
X297451Y199956D01*
X518800Y355900D02*
Y359836D01*
X520768D01*
X521424Y359180D01*
Y357868D01*
X520768Y357212D01*
X518800D01*
X520112D02*
X521424Y355900D01*
X522736D02*
X524048D01*
X523392D01*
Y359836D01*
X522736Y359180D01*
X528639Y355900D02*
X526016D01*
X528639Y358524D01*
Y359180D01*
X527983Y359836D01*
X526672D01*
X526016Y359180D01*
X314800Y199300D02*
Y203236D01*
X316768D01*
X317424Y202580D01*
Y201268D01*
X316768Y200612D01*
X314800D01*
X316112D02*
X317424Y199300D01*
X318736D02*
X320048D01*
X319392D01*
Y203236D01*
X318736Y202580D01*
X322016D02*
X322672Y203236D01*
X323983D01*
X324639Y202580D01*
Y199956D01*
X323983Y199300D01*
X322672D01*
X322016Y199956D01*
Y202580D01*
X328575Y199300D02*
X325951D01*
X328575Y201924D01*
Y202580D01*
X327919Y203236D01*
X326607D01*
X325951Y202580D01*
X208300Y175436D02*
X209612D01*
X208956D01*
Y171500D01*
X208300D01*
X209612D01*
X214204D02*
X211580D01*
X214204Y174124D01*
Y174780D01*
X213548Y175436D01*
X212236D01*
X211580Y174780D01*
X218139D02*
X217483Y175436D01*
X216172D01*
X215515Y174780D01*
Y172156D01*
X216172Y171500D01*
X217483D01*
X218139Y172156D01*
X219451Y170844D02*
X222075D01*
X223387Y171500D02*
X224699D01*
X224043D01*
Y175436D01*
X223387Y174780D01*
X229400Y199300D02*
Y203236D01*
X231368D01*
X232024Y202580D01*
Y201268D01*
X231368Y200612D01*
X229400D01*
X230712D02*
X232024Y199300D01*
X233336D02*
X234648D01*
X233992D01*
Y203236D01*
X233336Y202580D01*
X236615D02*
X237271Y203236D01*
X238583D01*
X239239Y202580D01*
Y199956D01*
X238583Y199300D01*
X237271D01*
X236615Y199956D01*
Y202580D01*
X240551D02*
X241207Y203236D01*
X242519D01*
X243175Y202580D01*
Y199956D01*
X242519Y199300D01*
X241207D01*
X240551Y199956D01*
Y202580D01*
X257900Y199300D02*
Y203236D01*
X259868D01*
X260524Y202580D01*
Y201268D01*
X259868Y200612D01*
X257900D01*
X259212D02*
X260524Y199300D01*
X261836D02*
X263148D01*
X262492D01*
Y203236D01*
X261836Y202580D01*
X265115D02*
X265772Y203236D01*
X267083D01*
X267739Y202580D01*
Y199956D01*
X267083Y199300D01*
X265772D01*
X265115Y199956D01*
Y202580D01*
X269051Y199300D02*
X270363D01*
X269707D01*
Y203236D01*
X269051Y202580D01*
X572300Y301236D02*
Y297300D01*
Y299268D01*
X574924D01*
Y301236D01*
Y297300D01*
X576236D02*
Y301236D01*
X577548Y299924D01*
X578860Y301236D01*
Y297300D01*
X580171Y301236D02*
X581483D01*
X580827D01*
Y297300D01*
X580171D01*
X581483D01*
X148300Y208700D02*
Y211324D01*
X149612Y212636D01*
X150924Y211324D01*
Y208700D01*
Y210668D01*
X148300D01*
X152236Y212636D02*
Y208700D01*
X154204D01*
X154860Y209356D01*
Y211980D01*
X154204Y212636D01*
X152236D01*
X158795Y211980D02*
X158139Y212636D01*
X156827D01*
X156172Y211980D01*
Y209356D01*
X156827Y208700D01*
X158139D01*
X158795Y209356D01*
X147200Y343700D02*
Y347636D01*
X149168D01*
X149824Y346980D01*
Y345668D01*
X149168Y345012D01*
X147200D01*
X151136Y347636D02*
Y343700D01*
X152448Y345012D01*
X153760Y343700D01*
Y347636D01*
X155071Y343700D02*
Y347636D01*
X157039D01*
X157695Y346980D01*
Y345668D01*
X157039Y345012D01*
X155071D01*
X156383D02*
X157695Y343700D01*
X161631Y347636D02*
X159007D01*
Y345668D01*
X160319Y346324D01*
X160975D01*
X161631Y345668D01*
Y344356D01*
X160975Y343700D01*
X159663D01*
X159007Y344356D01*
X147200Y307400D02*
Y311336D01*
X149168D01*
X149824Y310680D01*
Y309368D01*
X149168Y308712D01*
X147200D01*
X151136Y311336D02*
Y307400D01*
X152448Y308712D01*
X153760Y307400D01*
Y311336D01*
X155071Y307400D02*
Y311336D01*
X157039D01*
X157695Y310680D01*
Y309368D01*
X157039Y308712D01*
X155071D01*
X156383D02*
X157695Y307400D01*
X159007Y310680D02*
X159663Y311336D01*
X160975D01*
X161631Y310680D01*
Y310024D01*
X160975Y309368D01*
X160319D01*
X160975D01*
X161631Y308712D01*
Y308056D01*
X160975Y307400D01*
X159663D01*
X159007Y308056D01*
X146700Y269836D02*
Y265900D01*
X148668D01*
X149324Y266556D01*
Y269180D01*
X148668Y269836D01*
X146700D01*
X150636D02*
X151948D01*
X151292D01*
Y265900D01*
X150636D01*
X151948D01*
X153916D02*
Y269836D01*
X155227Y268524D01*
X156539Y269836D01*
Y265900D01*
X494900Y294800D02*
Y298736D01*
X496868D01*
X497524Y298080D01*
Y296768D01*
X496868Y296112D01*
X494900D01*
X496212D02*
X497524Y294800D01*
X498836Y298080D02*
X499492Y298736D01*
X500804D01*
X501460Y298080D01*
Y297424D01*
X500148Y296112D01*
Y295456D02*
Y294800D01*
X566700Y362936D02*
Y359000D01*
X568668D01*
X569324Y359656D01*
Y360312D01*
X568668Y360968D01*
X566700D01*
X568668D01*
X569324Y361624D01*
Y362280D01*
X568668Y362936D01*
X566700D01*
X570636Y359000D02*
X571948D01*
X571292D01*
Y362936D01*
X570636Y362280D01*
X608680Y348130D02*
Y344798D01*
X610346Y346464D02*
X607014D01*
X572224Y348130D02*
Y344798D01*
X495300Y320900D02*
Y324836D01*
X497268D01*
X497924Y324180D01*
Y322868D01*
X497268Y322212D01*
X495300D01*
X496612D02*
X497924Y320900D01*
X501860D02*
X499236D01*
X501860Y323524D01*
Y324180D01*
X501204Y324836D01*
X499892D01*
X499236Y324180D01*
X505795Y324836D02*
X504483Y324180D01*
X503171Y322868D01*
Y321556D01*
X503827Y320900D01*
X505139D01*
X505795Y321556D01*
Y322212D01*
X505139Y322868D01*
X503171D01*
X471700Y293400D02*
Y297336D01*
X473668D01*
X474324Y296680D01*
Y295368D01*
X473668Y294712D01*
X471700D01*
X473012D02*
X474324Y293400D01*
X478260D02*
X475636D01*
X478260Y296024D01*
Y296680D01*
X477604Y297336D01*
X476292D01*
X475636Y296680D01*
X479571Y297336D02*
X482195D01*
Y296680D01*
X479571Y294056D01*
Y293400D01*
X474324Y325056D02*
Y327680D01*
X473668Y328336D01*
X472356D01*
X471700Y327680D01*
Y325056D01*
X472356Y324400D01*
X473668D01*
X473012Y325712D02*
X474324Y324400D01*
X473668D02*
X474324Y325056D01*
X475636Y327680D02*
X476292Y328336D01*
X477604D01*
X478260Y327680D01*
Y327024D01*
X477604Y326368D01*
X476948D01*
X477604D01*
X478260Y325712D01*
Y325056D01*
X477604Y324400D01*
X476292D01*
X475636Y325056D01*
D16*
X471172Y313278D02*
Y316478D01*
X473372D01*
X482372Y313278D02*
Y316478D01*
X480172D02*
X482372D01*
D17*
X590156Y217717D02*
X584252D01*
Y214765D01*
X585236Y213781D01*
X586220D01*
X587204Y214765D01*
Y217717D01*
Y214765D01*
X588188Y213781D01*
X589172D01*
X590156Y214765D01*
Y217717D01*
Y208861D02*
Y210829D01*
X589172Y211813D01*
X585236D01*
X584252Y210829D01*
Y208861D01*
X585236Y207877D01*
X589172D01*
X590156Y208861D01*
X584252Y205909D02*
X588188D01*
X590156Y203941D01*
X588188Y201974D01*
X584252D01*
X587204D01*
Y205909D01*
X584252Y200006D02*
X590156D01*
Y197054D01*
X589172Y196070D01*
X587204D01*
X586220Y197054D01*
Y200006D01*
Y198038D02*
X584252Y196070D01*
X590156Y194102D02*
X584252D01*
Y191150D01*
X585236Y190166D01*
X589172D01*
X590156Y191150D01*
Y194102D01*
Y182295D02*
X586220D01*
X584252Y180327D01*
X586220Y178359D01*
X590156D01*
X589172Y176391D02*
X590156Y175407D01*
Y173440D01*
X589172Y172456D01*
X585236D01*
X584252Y173440D01*
Y175407D01*
X585236Y176391D01*
X589172D01*
X584252Y170488D02*
X585236D01*
Y169504D01*
X584252D01*
Y170488D01*
Y165568D02*
Y163600D01*
Y164584D01*
X590156D01*
X589172Y165568D01*
X607872Y234744D02*
Y232776D01*
Y233760D01*
X601968D01*
Y234744D01*
Y232776D01*
Y229824D02*
X607872D01*
X601968Y225889D01*
X607872D01*
X606888Y219985D02*
X607872Y220969D01*
Y222937D01*
X606888Y223921D01*
X602952D01*
X601968Y222937D01*
Y220969D01*
X602952Y219985D01*
X607872Y218017D02*
X602952D01*
X601968Y217033D01*
Y215065D01*
X602952Y214082D01*
X607872D01*
Y212114D02*
X601968D01*
Y209162D01*
X602952Y208178D01*
X603936D01*
X604920Y209162D01*
Y212114D01*
Y209162D01*
X605904Y208178D01*
X606888D01*
X607872Y209162D01*
Y212114D01*
X601968Y206210D02*
X605904D01*
X607872Y204242D01*
X605904Y202274D01*
X601968D01*
X604920D01*
Y206210D01*
X607872Y200306D02*
Y196371D01*
Y198339D01*
X601968D01*
X607872Y191451D02*
Y193419D01*
X606888Y194403D01*
X602952D01*
X601968Y193419D01*
Y191451D01*
X602952Y190467D01*
X606888D01*
X607872Y191451D01*
X601968Y188499D02*
X607872D01*
Y185547D01*
X606888Y184564D01*
X604920D01*
X603936Y185547D01*
Y188499D01*
Y186531D02*
X601968Y184564D01*
Y176692D02*
X607872D01*
X605904Y174724D01*
X607872Y172756D01*
X601968D01*
Y170788D02*
X605904D01*
X607872Y168821D01*
X605904Y166853D01*
X601968D01*
X604920D01*
Y170788D01*
X607872Y164885D02*
Y162917D01*
Y163901D01*
X601968D01*
Y164885D01*
Y162917D01*
Y159965D02*
X607872D01*
X601968Y156029D01*
X607872D01*
D18*
X519549Y213763D02*
Y215096D01*
X520216Y215762D01*
X520882Y215096D01*
Y213763D01*
Y214763D01*
X519549D01*
X500996Y215667D02*
Y213468D01*
Y214201D01*
X502462Y215667D01*
X501363Y214567D01*
X502462Y213468D01*
X519549Y182583D02*
Y183916D01*
X520216Y184583D01*
X520882Y183916D01*
Y182583D01*
Y183583D01*
X519549D01*
X500996Y184487D02*
Y182288D01*
Y183021D01*
X502462Y184487D01*
X501363Y183388D01*
X502462Y182288D01*
X519549Y244943D02*
Y246276D01*
X520216Y246942D01*
X520882Y246276D01*
Y244943D01*
Y245943D01*
X519549D01*
X500996Y246847D02*
Y244648D01*
Y245381D01*
X502462Y246847D01*
X501363Y245747D01*
X502462Y244648D01*
D19*
X504399Y214452D02*
D03*
X504400Y183272D02*
D03*
X504399Y245632D02*
D03*
M02*
