G04*
G04 #@! TF.GenerationSoftware,Altium Limited,Altium Designer,22.1.2 (22)*
G04*
G04 Layer_Color=8388736*
%FSLAX25Y25*%
%MOIN*%
G70*
G04*
G04 #@! TF.SameCoordinates,3CC87442-B0F0-4D04-9EAA-D9769B1F071C*
G04*
G04*
G04 #@! TF.FilePolarity,Negative*
G04*
G01*
G75*
%ADD43R,0.43477X0.31824*%
%ADD44R,0.04698X0.15721*%
%ADD45R,0.05600X0.05600*%
%ADD46R,0.07293X0.01781*%
%ADD47R,0.01781X0.07293*%
%ADD48R,0.06233X0.04422*%
%ADD49R,0.06587X0.05367*%
%ADD50R,0.12217X0.22060*%
%ADD51R,0.15997X0.08359*%
%ADD52R,0.09658X0.13320*%
G04:AMPARAMS|DCode=53|XSize=44.61mil|YSize=59.58mil|CornerRadius=6.75mil|HoleSize=0mil|Usage=FLASHONLY|Rotation=0.000|XOffset=0mil|YOffset=0mil|HoleType=Round|Shape=RoundedRectangle|*
%AMROUNDEDRECTD53*
21,1,0.04461,0.04608,0,0,0.0*
21,1,0.03112,0.05958,0,0,0.0*
1,1,0.01349,0.01556,-0.02304*
1,1,0.01349,-0.01556,-0.02304*
1,1,0.01349,-0.01556,0.02304*
1,1,0.01349,0.01556,0.02304*
%
%ADD53ROUNDEDRECTD53*%
G04:AMPARAMS|DCode=54|XSize=135.56mil|YSize=59.58mil|CornerRadius=7.87mil|HoleSize=0mil|Usage=FLASHONLY|Rotation=0.000|XOffset=0mil|YOffset=0mil|HoleType=Round|Shape=RoundedRectangle|*
%AMROUNDEDRECTD54*
21,1,0.13556,0.04384,0,0,0.0*
21,1,0.11982,0.05958,0,0,0.0*
1,1,0.01574,0.05991,-0.02192*
1,1,0.01574,-0.05991,-0.02192*
1,1,0.01574,-0.05991,0.02192*
1,1,0.01574,0.05991,0.02192*
%
%ADD54ROUNDEDRECTD54*%
%ADD55R,0.06509X0.05131*%
%ADD56R,0.06506X0.05718*%
%ADD57R,0.05600X0.05600*%
%ADD58R,0.05524X0.24800*%
%ADD59R,0.05324X0.05324*%
%ADD60R,0.05718X0.06506*%
%ADD61R,0.08674X0.08674*%
%ADD62R,0.09265X0.09265*%
%ADD63R,0.08280X0.08280*%
%ADD64R,0.09068X0.07099*%
%ADD65R,0.02375X0.06115*%
%ADD66R,0.04737X0.06312*%
%ADD67R,0.05524X0.05524*%
%ADD68C,0.05524*%
%ADD69R,0.08772X0.08772*%
%ADD70C,0.08772*%
%ADD71O,0.05524X0.10642*%
%ADD72R,0.05524X0.10642*%
%ADD73O,0.08674X0.06706*%
%ADD74C,0.06737*%
%ADD75R,0.06737X0.06737*%
%ADD76R,0.06737X0.06737*%
%ADD77C,0.08674*%
%ADD78C,0.16548*%
%ADD79C,0.05800*%
D43*
X317421Y330020D02*
D03*
D44*
X304035Y372342D02*
D03*
X310728D02*
D03*
X317421D02*
D03*
X324114D02*
D03*
X330807D02*
D03*
D45*
X325984Y239468D02*
D03*
Y231594D02*
D03*
X302750Y239468D02*
D03*
Y231594D02*
D03*
X325984Y259804D02*
D03*
Y267678D02*
D03*
D46*
X406937Y267028D02*
D03*
Y265059D02*
D03*
Y263090D02*
D03*
Y261122D02*
D03*
Y259154D02*
D03*
Y257185D02*
D03*
Y255217D02*
D03*
Y253248D02*
D03*
Y251279D02*
D03*
Y249311D02*
D03*
Y247342D02*
D03*
Y245374D02*
D03*
X440307D02*
D03*
Y247342D02*
D03*
Y249311D02*
D03*
Y251279D02*
D03*
Y253248D02*
D03*
Y255217D02*
D03*
Y257185D02*
D03*
Y259154D02*
D03*
Y261122D02*
D03*
Y263090D02*
D03*
Y265059D02*
D03*
Y267028D02*
D03*
D47*
X412795Y239516D02*
D03*
X414764D02*
D03*
X416732D02*
D03*
X418701D02*
D03*
X420669D02*
D03*
X422638D02*
D03*
X424606D02*
D03*
X426575D02*
D03*
X428543D02*
D03*
X430512D02*
D03*
X432480D02*
D03*
X434449D02*
D03*
Y272886D02*
D03*
X432480D02*
D03*
X430512D02*
D03*
X428543D02*
D03*
X426575D02*
D03*
X424606D02*
D03*
X422638D02*
D03*
X420669D02*
D03*
X418701D02*
D03*
X416732D02*
D03*
X414764D02*
D03*
X412795D02*
D03*
D48*
X267371Y319900D02*
D03*
Y327420D02*
D03*
Y268699D02*
D03*
Y276218D02*
D03*
X236043Y319900D02*
D03*
Y327420D02*
D03*
X289135Y193425D02*
D03*
Y185906D02*
D03*
X317609Y193425D02*
D03*
Y185906D02*
D03*
X232185Y193425D02*
D03*
Y185906D02*
D03*
X260660Y193425D02*
D03*
Y185906D02*
D03*
D49*
X267194Y294772D02*
D03*
Y301701D02*
D03*
X236220D02*
D03*
Y294772D02*
D03*
Y276100D02*
D03*
Y269171D02*
D03*
Y250499D02*
D03*
Y243570D02*
D03*
Y224899D02*
D03*
Y217969D02*
D03*
D50*
X278642Y374311D02*
D03*
X240453D02*
D03*
D51*
X360319Y364075D02*
D03*
X387319D02*
D03*
X417110Y363386D02*
D03*
X444110D02*
D03*
D52*
X389587Y320472D02*
D03*
X362382D02*
D03*
D53*
X206043Y374035D02*
D03*
X215059D02*
D03*
X224075D02*
D03*
D54*
X215059Y400374D02*
D03*
D55*
X267233Y246005D02*
D03*
Y253092D02*
D03*
D56*
X375492Y187404D02*
D03*
Y194885D02*
D03*
X303150Y260138D02*
D03*
Y267618D02*
D03*
X266437Y226476D02*
D03*
Y218996D02*
D03*
X347017Y187404D02*
D03*
Y194885D02*
D03*
D57*
X536078Y138398D02*
D03*
X543952D02*
D03*
X514030D02*
D03*
X521904D02*
D03*
X493852D02*
D03*
X501726D02*
D03*
X473674D02*
D03*
X481548D02*
D03*
D58*
X359055Y239075D02*
D03*
Y270571D02*
D03*
D59*
X508224Y214452D02*
D03*
X515224D02*
D03*
X508224Y183272D02*
D03*
X515224D02*
D03*
X508224Y245632D02*
D03*
X515224D02*
D03*
D60*
X484842Y214567D02*
D03*
X477362D02*
D03*
X484842Y182972D02*
D03*
X477362D02*
D03*
X484842Y245332D02*
D03*
X477362D02*
D03*
X483357Y350374D02*
D03*
X475876D02*
D03*
X503338D02*
D03*
X495858D02*
D03*
X529035Y348819D02*
D03*
X521555D02*
D03*
X497638Y287796D02*
D03*
X505118D02*
D03*
X498032Y313878D02*
D03*
X505512D02*
D03*
X474410Y286319D02*
D03*
X481890D02*
D03*
D61*
X357283Y142815D02*
D03*
D62*
X390748D02*
D03*
D63*
X526968Y400492D02*
D03*
X556890D02*
D03*
D64*
X529724Y390945D02*
D03*
X554134D02*
D03*
D65*
X536811Y390453D02*
D03*
X539370D02*
D03*
X541929D02*
D03*
X544488D02*
D03*
X547047D02*
D03*
D66*
X476772Y318209D02*
D03*
X480512Y309547D02*
D03*
X473032D02*
D03*
D67*
X538996Y290610D02*
D03*
D68*
X548996D02*
D03*
Y320610D02*
D03*
X538996D02*
D03*
D69*
X184153Y362894D02*
D03*
X183545Y320169D02*
D03*
Y283848D02*
D03*
D70*
X184153Y372736D02*
D03*
X183545Y330011D02*
D03*
Y293690D02*
D03*
D71*
X493661Y392224D02*
D03*
X483661D02*
D03*
X473661D02*
D03*
D72*
X463661D02*
D03*
D73*
X439173Y179095D02*
D03*
Y169095D02*
D03*
X429173D02*
D03*
Y179095D02*
D03*
X439173Y189094D02*
D03*
X429173D02*
D03*
D74*
X279823Y157382D02*
D03*
X289665D02*
D03*
X299508D02*
D03*
X218406D02*
D03*
X228248D02*
D03*
X238090D02*
D03*
X581791Y250984D02*
D03*
Y260827D02*
D03*
Y270669D02*
D03*
X184941Y194587D02*
D03*
Y184744D02*
D03*
Y174902D02*
D03*
X183366Y251870D02*
D03*
Y242028D02*
D03*
Y232185D02*
D03*
D75*
X309350Y157382D02*
D03*
X247933D02*
D03*
D76*
X581791Y280512D02*
D03*
X184941Y165059D02*
D03*
X183366Y222342D02*
D03*
D77*
X604134Y332382D02*
D03*
X574705D02*
D03*
D78*
X158957Y399410D02*
D03*
Y133268D02*
D03*
X606201D02*
D03*
Y399410D02*
D03*
D79*
X378346Y212697D02*
D03*
X390059Y216535D02*
D03*
X401024Y216240D02*
D03*
X277658Y201476D02*
D03*
X337402Y207382D02*
D03*
X429012Y215673D02*
D03*
X501083Y326181D02*
D03*
X509252Y321024D02*
D03*
X522001Y367440D02*
D03*
X259252Y210531D02*
D03*
X213583Y300787D02*
D03*
X257185Y275098D02*
D03*
X277756Y258465D02*
D03*
X462303Y234842D02*
D03*
X405020Y227658D02*
D03*
X406595Y220276D02*
D03*
X402559Y236398D02*
D03*
X319666Y224095D02*
D03*
X311352Y231077D02*
D03*
X287992Y219193D02*
D03*
X200787Y220669D02*
D03*
X212795Y245276D02*
D03*
X455905Y253398D02*
D03*
X254953Y173228D02*
D03*
X275098Y186516D02*
D03*
X203445Y170768D02*
D03*
X228051Y200847D02*
D03*
X206890Y343110D02*
D03*
X312894Y286319D02*
D03*
X467717Y250394D02*
D03*
X463386Y242520D02*
D03*
X407874Y302461D02*
D03*
X398057Y264640D02*
D03*
X524311Y309350D02*
D03*
X485532Y308071D02*
D03*
X486713Y292520D02*
D03*
X455965Y286417D02*
D03*
X480217Y300590D02*
D03*
X416929Y282382D02*
D03*
X371102Y156398D02*
D03*
X394232Y228346D02*
D03*
X388976Y240945D02*
D03*
X415551Y289567D02*
D03*
X493405Y273819D02*
D03*
X476575Y271496D02*
D03*
X454823Y273425D02*
D03*
X474925Y328665D02*
D03*
X475394Y370079D02*
D03*
X437795Y307874D02*
D03*
X494783Y361122D02*
D03*
X529429Y356004D02*
D03*
X542717Y374410D02*
D03*
X499409D02*
D03*
X503937Y367323D02*
D03*
X465846Y271654D02*
D03*
X446358Y235433D02*
D03*
X524606Y253346D02*
D03*
X514272Y271161D02*
D03*
X437303Y223524D02*
D03*
X387106Y389469D02*
D03*
X338583Y306201D02*
D03*
X275000Y339764D02*
D03*
X310531Y386910D02*
D03*
X356594Y296063D02*
D03*
X232382Y402165D02*
D03*
X321063Y396457D02*
D03*
X268209Y238681D02*
D03*
X314075Y251279D02*
D03*
X425886Y308366D02*
D03*
X195669Y397933D02*
D03*
M02*
