G04*
G04 #@! TF.GenerationSoftware,Altium Limited,Altium Designer,22.1.2 (22)*
G04*
G04 Layer_Color=2752767*
%FSLAX25Y25*%
%MOIN*%
G70*
G04*
G04 #@! TF.SameCoordinates,3CC87442-B0F0-4D04-9EAA-D9769B1F071C*
G04*
G04*
G04 #@! TF.FilePolarity,Positive*
G04*
G01*
G75*
%ADD97C,0.00200*%
%ADD98C,0.00267*%
D97*
X538196Y289810D02*
Y291410D01*
X539796D01*
Y289810D01*
X538196D01*
X548196D02*
Y291410D01*
X549796D01*
Y289810D01*
X548196D01*
Y319810D02*
Y321410D01*
X549796D01*
Y319810D01*
X548196D01*
X538196D02*
Y321410D01*
X539796D01*
Y319810D01*
X538196D01*
X493661Y391424D02*
X492861Y393024D01*
X494461D01*
X493661Y391424D01*
X483661D02*
X482861Y393024D01*
X484461D01*
X483661Y391424D01*
X473661D02*
X472861Y393024D01*
X474461D01*
X473661Y391424D01*
X463661D02*
X462861Y393024D01*
X464461D01*
X463661Y391424D01*
X439173Y178295D02*
X439573Y178694D01*
X439973D01*
X439573Y179095D01*
X439973Y179495D01*
X439573D01*
X439173Y179894D01*
X438773Y179495D01*
X438373D01*
X438773Y179095D01*
X438373Y178694D01*
X438773D01*
X439173Y178295D01*
Y168295D02*
X439573Y168694D01*
X439973D01*
X439573Y169095D01*
X439973Y169494D01*
X439573D01*
X439173Y169895D01*
X438773Y169494D01*
X438373D01*
X438773Y169095D01*
X438373Y168694D01*
X438773D01*
X439173Y168295D01*
X429173D02*
X429573Y168694D01*
X429973D01*
X429573Y169095D01*
X429973Y169494D01*
X429573D01*
X429173Y169895D01*
X428773Y169494D01*
X428373D01*
X428773Y169095D01*
X428373Y168694D01*
X428773D01*
X429173Y168295D01*
Y178295D02*
X429573Y178694D01*
X429973D01*
X429573Y179095D01*
X429973Y179495D01*
X429573D01*
X429173Y179894D01*
X428773Y179495D01*
X428373D01*
X428773Y179095D01*
X428373Y178694D01*
X428773D01*
X429173Y178295D01*
X439173Y188294D02*
X439573Y188695D01*
X439973D01*
X439573Y189094D01*
X439973Y189495D01*
X439573D01*
X439173Y189894D01*
X438773Y189495D01*
X438373D01*
X438773Y189094D01*
X438373Y188695D01*
X438773D01*
X439173Y188294D01*
X429173D02*
X429573Y188695D01*
X429973D01*
X429573Y189094D01*
X429973Y189495D01*
X429573D01*
X429173Y189894D01*
X428773Y189495D01*
X428373D01*
X428773Y189094D01*
X428373Y188695D01*
X428773D01*
X429173Y188294D01*
X279023Y156582D02*
X279423Y157382D01*
X279023Y158182D01*
X279823Y157782D01*
X280623Y158182D01*
X280223Y157382D01*
X280623Y156582D01*
X279823Y156982D01*
X279023Y156582D01*
X288865D02*
X289265Y157382D01*
X288865Y158182D01*
X289665Y157782D01*
X290465Y158182D01*
X290065Y157382D01*
X290465Y156582D01*
X289665Y156982D01*
X288865Y156582D01*
X298708D02*
X299108Y157382D01*
X298708Y158182D01*
X299508Y157782D01*
X300308Y158182D01*
X299908Y157382D01*
X300308Y156582D01*
X299508Y156982D01*
X298708Y156582D01*
X308550D02*
X308950Y157382D01*
X308550Y158182D01*
X309350Y157782D01*
X310150Y158182D01*
X309750Y157382D01*
X310150Y156582D01*
X309350Y156982D01*
X308550Y156582D01*
X217605D02*
X218005Y157382D01*
X217605Y158182D01*
X218406Y157782D01*
X219205Y158182D01*
X218806Y157382D01*
X219205Y156582D01*
X218406Y156982D01*
X217605Y156582D01*
X227448D02*
X227848Y157382D01*
X227448Y158182D01*
X228248Y157782D01*
X229048Y158182D01*
X228648Y157382D01*
X229048Y156582D01*
X228248Y156982D01*
X227448Y156582D01*
X237291D02*
X237690Y157382D01*
X237291Y158182D01*
X238090Y157782D01*
X238891Y158182D01*
X238491Y157382D01*
X238891Y156582D01*
X238090Y156982D01*
X237291Y156582D01*
X247133D02*
X247533Y157382D01*
X247133Y158182D01*
X247933Y157782D01*
X248733Y158182D01*
X248333Y157382D01*
X248733Y156582D01*
X247933Y156982D01*
X247133Y156582D01*
X580991Y250184D02*
X581391Y250984D01*
X580991Y251784D01*
X581791Y251384D01*
X582591Y251784D01*
X582191Y250984D01*
X582591Y250184D01*
X581791Y250584D01*
X580991Y250184D01*
Y260027D02*
X581391Y260827D01*
X580991Y261627D01*
X581791Y261227D01*
X582591Y261627D01*
X582191Y260827D01*
X582591Y260027D01*
X581791Y260427D01*
X580991Y260027D01*
Y269869D02*
X581391Y270669D01*
X580991Y271469D01*
X581791Y271069D01*
X582591Y271469D01*
X582191Y270669D01*
X582591Y269869D01*
X581791Y270269D01*
X580991Y269869D01*
Y279712D02*
X581391Y280512D01*
X580991Y281312D01*
X581791Y280912D01*
X582591Y281312D01*
X582191Y280512D01*
X582591Y279712D01*
X581791Y280112D01*
X580991Y279712D01*
X184141Y193787D02*
X184541Y194587D01*
X184141Y195387D01*
X184941Y194987D01*
X185741Y195387D01*
X185341Y194587D01*
X185741Y193787D01*
X184941Y194187D01*
X184141Y193787D01*
Y183944D02*
X184541Y184744D01*
X184141Y185544D01*
X184941Y185144D01*
X185741Y185544D01*
X185341Y184744D01*
X185741Y183944D01*
X184941Y184344D01*
X184141Y183944D01*
Y174102D02*
X184541Y174902D01*
X184141Y175702D01*
X184941Y175302D01*
X185741Y175702D01*
X185341Y174902D01*
X185741Y174102D01*
X184941Y174502D01*
X184141Y174102D01*
Y164259D02*
X184541Y165059D01*
X184141Y165859D01*
X184941Y165459D01*
X185741Y165859D01*
X185341Y165059D01*
X185741Y164259D01*
X184941Y164659D01*
X184141Y164259D01*
X182566Y251070D02*
X182966Y251870D01*
X182566Y252670D01*
X183366Y252270D01*
X184166Y252670D01*
X183766Y251870D01*
X184166Y251070D01*
X183366Y251470D01*
X182566Y251070D01*
Y241228D02*
X182966Y242028D01*
X182566Y242828D01*
X183366Y242428D01*
X184166Y242828D01*
X183766Y242028D01*
X184166Y241228D01*
X183366Y241628D01*
X182566Y241228D01*
Y231385D02*
X182966Y232185D01*
X182566Y232985D01*
X183366Y232585D01*
X184166Y232985D01*
X183766Y232185D01*
X184166Y231385D01*
X183366Y231785D01*
X182566Y231385D01*
Y221543D02*
X182966Y222342D01*
X182566Y223143D01*
X183366Y222743D01*
X184166Y223143D01*
X183766Y222342D01*
X184166Y221543D01*
X183366Y221942D01*
X182566Y221543D01*
X604134Y331582D02*
X603334Y333182D01*
X604934D01*
X604134Y331582D01*
X574705D02*
X573905Y333182D01*
X575505D01*
X574705Y331582D01*
X158557Y399009D02*
Y398609D01*
X159357D01*
Y399009D01*
X159757D01*
Y399810D01*
X159357D01*
Y400210D01*
X158557D01*
Y399810D01*
X158157D01*
Y399009D01*
X158557D01*
Y132868D02*
Y132468D01*
X159357D01*
Y132868D01*
X159757D01*
Y133668D01*
X159357D01*
Y134068D01*
X158557D01*
Y133668D01*
X158157D01*
Y132868D01*
X158557D01*
X605801D02*
Y132468D01*
X606601D01*
Y132868D01*
X607001D01*
Y133668D01*
X606601D01*
Y134068D01*
X605801D01*
Y133668D01*
X605401D01*
Y132868D01*
X605801D01*
Y399009D02*
Y398609D01*
X606601D01*
Y399009D01*
X607001D01*
Y399810D01*
X606601D01*
Y400210D01*
X605801D01*
Y399810D01*
X605401D01*
Y399009D01*
X605801D01*
X377547Y211897D02*
X377946D01*
X378346Y212297D01*
X378747Y211897D01*
X379147D01*
Y212297D01*
X378747Y212697D01*
X379147Y213097D01*
Y213497D01*
X378747D01*
X378346Y213097D01*
X377946Y213497D01*
X377547D01*
Y213097D01*
X377946Y212697D01*
X377547Y212297D01*
Y211897D01*
X389259Y215735D02*
X389659D01*
X390059Y216135D01*
X390459Y215735D01*
X390859D01*
Y216135D01*
X390459Y216535D01*
X390859Y216935D01*
Y217335D01*
X390459D01*
X390059Y216935D01*
X389659Y217335D01*
X389259D01*
Y216935D01*
X389659Y216535D01*
X389259Y216135D01*
Y215735D01*
X400224Y215440D02*
X400624D01*
X401024Y215840D01*
X401424Y215440D01*
X401824D01*
Y215840D01*
X401424Y216240D01*
X401824Y216640D01*
Y217040D01*
X401424D01*
X401024Y216640D01*
X400624Y217040D01*
X400224D01*
Y216640D01*
X400624Y216240D01*
X400224Y215840D01*
Y215440D01*
X276857Y200676D02*
X277257D01*
X277658Y201076D01*
X278058Y200676D01*
X278457D01*
Y201076D01*
X278058Y201476D01*
X278457Y201876D01*
Y202276D01*
X278058D01*
X277658Y201876D01*
X277257Y202276D01*
X276857D01*
Y201876D01*
X277257Y201476D01*
X276857Y201076D01*
Y200676D01*
X336602Y206582D02*
X337002D01*
X337402Y206982D01*
X337802Y206582D01*
X338202D01*
Y206982D01*
X337802Y207382D01*
X338202Y207782D01*
Y208182D01*
X337802D01*
X337402Y207782D01*
X337002Y208182D01*
X336602D01*
Y207782D01*
X337002Y207382D01*
X336602Y206982D01*
Y206582D01*
X428212Y214873D02*
X428612D01*
X429012Y215273D01*
X429412Y214873D01*
X429812D01*
Y215273D01*
X429412Y215673D01*
X429812Y216073D01*
Y216473D01*
X429412D01*
X429012Y216073D01*
X428612Y216473D01*
X428212D01*
Y216073D01*
X428612Y215673D01*
X428212Y215273D01*
Y214873D01*
X500283Y325381D02*
X500683D01*
X501083Y325781D01*
X501483Y325381D01*
X501883D01*
Y325781D01*
X501483Y326181D01*
X501883Y326581D01*
Y326981D01*
X501483D01*
X501083Y326581D01*
X500683Y326981D01*
X500283D01*
Y326581D01*
X500683Y326181D01*
X500283Y325781D01*
Y325381D01*
X508452Y320224D02*
X508852D01*
X509252Y320624D01*
X509652Y320224D01*
X510052D01*
Y320624D01*
X509652Y321024D01*
X510052Y321424D01*
Y321824D01*
X509652D01*
X509252Y321424D01*
X508852Y321824D01*
X508452D01*
Y321424D01*
X508852Y321024D01*
X508452Y320624D01*
Y320224D01*
X521201Y366640D02*
X521601D01*
X522001Y367040D01*
X522401Y366640D01*
X522801D01*
Y367040D01*
X522401Y367440D01*
X522801Y367840D01*
Y368240D01*
X522401D01*
X522001Y367840D01*
X521601Y368240D01*
X521201D01*
Y367840D01*
X521601Y367440D01*
X521201Y367040D01*
Y366640D01*
X258452Y209732D02*
X258852D01*
X259252Y210132D01*
X259652Y209732D01*
X260052D01*
Y210132D01*
X259652Y210531D01*
X260052Y210931D01*
Y211332D01*
X259652D01*
X259252Y210931D01*
X258852Y211332D01*
X258452D01*
Y210931D01*
X258852Y210531D01*
X258452Y210132D01*
Y209732D01*
X212783Y299987D02*
X213183D01*
X213583Y300387D01*
X213983Y299987D01*
X214383D01*
Y300387D01*
X213983Y300787D01*
X214383Y301187D01*
Y301587D01*
X213983D01*
X213583Y301187D01*
X213183Y301587D01*
X212783D01*
Y301187D01*
X213183Y300787D01*
X212783Y300387D01*
Y299987D01*
X256385Y274298D02*
X256785D01*
X257185Y274698D01*
X257585Y274298D01*
X257985D01*
Y274698D01*
X257585Y275098D01*
X257985Y275498D01*
Y275898D01*
X257585D01*
X257185Y275498D01*
X256785Y275898D01*
X256385D01*
Y275498D01*
X256785Y275098D01*
X256385Y274698D01*
Y274298D01*
X276956Y257665D02*
X277356D01*
X277756Y258065D01*
X278156Y257665D01*
X278556D01*
Y258065D01*
X278156Y258465D01*
X278556Y258865D01*
Y259265D01*
X278156D01*
X277756Y258865D01*
X277356Y259265D01*
X276956D01*
Y258865D01*
X277356Y258465D01*
X276956Y258065D01*
Y257665D01*
X461503Y234043D02*
X461903D01*
X462303Y234442D01*
X462703Y234043D01*
X463103D01*
Y234442D01*
X462703Y234842D01*
X463103Y235243D01*
Y235643D01*
X462703D01*
X462303Y235243D01*
X461903Y235643D01*
X461503D01*
Y235243D01*
X461903Y234842D01*
X461503Y234442D01*
Y234043D01*
X404220Y226857D02*
X404620D01*
X405020Y227257D01*
X405420Y226857D01*
X405820D01*
Y227257D01*
X405420Y227658D01*
X405820Y228058D01*
Y228457D01*
X405420D01*
X405020Y228058D01*
X404620Y228457D01*
X404220D01*
Y228058D01*
X404620Y227658D01*
X404220Y227257D01*
Y226857D01*
X405794Y219476D02*
X406194D01*
X406595Y219876D01*
X406994Y219476D01*
X407395D01*
Y219876D01*
X406994Y220276D01*
X407395Y220676D01*
Y221076D01*
X406994D01*
X406595Y220676D01*
X406194Y221076D01*
X405794D01*
Y220676D01*
X406194Y220276D01*
X405794Y219876D01*
Y219476D01*
X401759Y235598D02*
X402159D01*
X402559Y235998D01*
X402959Y235598D01*
X403359D01*
Y235998D01*
X402959Y236398D01*
X403359Y236798D01*
Y237198D01*
X402959D01*
X402559Y236798D01*
X402159Y237198D01*
X401759D01*
Y236798D01*
X402159Y236398D01*
X401759Y235998D01*
Y235598D01*
X318866Y223295D02*
X319266D01*
X319666Y223695D01*
X320066Y223295D01*
X320466D01*
Y223695D01*
X320066Y224095D01*
X320466Y224495D01*
Y224895D01*
X320066D01*
X319666Y224495D01*
X319266Y224895D01*
X318866D01*
Y224495D01*
X319266Y224095D01*
X318866Y223695D01*
Y223295D01*
X310552Y230277D02*
X310952D01*
X311352Y230677D01*
X311752Y230277D01*
X312152D01*
Y230677D01*
X311752Y231077D01*
X312152Y231477D01*
Y231877D01*
X311752D01*
X311352Y231477D01*
X310952Y231877D01*
X310552D01*
Y231477D01*
X310952Y231077D01*
X310552Y230677D01*
Y230277D01*
X287192Y218393D02*
X287592D01*
X287992Y218793D01*
X288392Y218393D01*
X288792D01*
Y218793D01*
X288392Y219193D01*
X288792Y219593D01*
Y219993D01*
X288392D01*
X287992Y219593D01*
X287592Y219993D01*
X287192D01*
Y219593D01*
X287592Y219193D01*
X287192Y218793D01*
Y218393D01*
X199987Y219869D02*
X200387D01*
X200787Y220269D01*
X201187Y219869D01*
X201587D01*
Y220269D01*
X201187Y220669D01*
X201587Y221069D01*
Y221469D01*
X201187D01*
X200787Y221069D01*
X200387Y221469D01*
X199987D01*
Y221069D01*
X200387Y220669D01*
X199987Y220269D01*
Y219869D01*
X211995Y244476D02*
X212395D01*
X212795Y244876D01*
X213195Y244476D01*
X213595D01*
Y244876D01*
X213195Y245276D01*
X213595Y245676D01*
Y246076D01*
X213195D01*
X212795Y245676D01*
X212395Y246076D01*
X211995D01*
Y245676D01*
X212395Y245276D01*
X211995Y244876D01*
Y244476D01*
X455105Y252598D02*
X455506D01*
X455905Y252998D01*
X456306Y252598D01*
X456706D01*
Y252998D01*
X456306Y253398D01*
X456706Y253798D01*
Y254198D01*
X456306D01*
X455905Y253798D01*
X455506Y254198D01*
X455105D01*
Y253798D01*
X455506Y253398D01*
X455105Y252998D01*
Y252598D01*
X254153Y172428D02*
X254553D01*
X254953Y172828D01*
X255353Y172428D01*
X255753D01*
Y172828D01*
X255353Y173228D01*
X255753Y173628D01*
Y174028D01*
X255353D01*
X254953Y173628D01*
X254553Y174028D01*
X254153D01*
Y173628D01*
X254553Y173228D01*
X254153Y172828D01*
Y172428D01*
X274298Y185716D02*
X274698D01*
X275098Y186116D01*
X275498Y185716D01*
X275898D01*
Y186116D01*
X275498Y186516D01*
X275898Y186916D01*
Y187316D01*
X275498D01*
X275098Y186916D01*
X274698Y187316D01*
X274298D01*
Y186916D01*
X274698Y186516D01*
X274298Y186116D01*
Y185716D01*
X202645Y169968D02*
X203045D01*
X203445Y170368D01*
X203845Y169968D01*
X204245D01*
Y170368D01*
X203845Y170768D01*
X204245Y171168D01*
Y171568D01*
X203845D01*
X203445Y171168D01*
X203045Y171568D01*
X202645D01*
Y171168D01*
X203045Y170768D01*
X202645Y170368D01*
Y169968D01*
X227251Y200046D02*
X227651D01*
X228051Y200447D01*
X228451Y200046D01*
X228851D01*
Y200447D01*
X228451Y200847D01*
X228851Y201247D01*
Y201646D01*
X228451D01*
X228051Y201247D01*
X227651Y201646D01*
X227251D01*
Y201247D01*
X227651Y200847D01*
X227251Y200447D01*
Y200046D01*
X206090Y342310D02*
X206490D01*
X206890Y342710D01*
X207290Y342310D01*
X207690D01*
Y342710D01*
X207290Y343110D01*
X207690Y343510D01*
Y343910D01*
X207290D01*
X206890Y343510D01*
X206490Y343910D01*
X206090D01*
Y343510D01*
X206490Y343110D01*
X206090Y342710D01*
Y342310D01*
X312094Y285519D02*
X312494D01*
X312894Y285919D01*
X313294Y285519D01*
X313694D01*
Y285919D01*
X313294Y286319D01*
X313694Y286719D01*
Y287119D01*
X313294D01*
X312894Y286719D01*
X312494Y287119D01*
X312094D01*
Y286719D01*
X312494Y286319D01*
X312094Y285919D01*
Y285519D01*
X466917Y249594D02*
X467316D01*
X467717Y249994D01*
X468117Y249594D01*
X468516D01*
Y249994D01*
X468117Y250394D01*
X468516Y250794D01*
Y251194D01*
X468117D01*
X467717Y250794D01*
X467316Y251194D01*
X466917D01*
Y250794D01*
X467316Y250394D01*
X466917Y249994D01*
Y249594D01*
X462586Y241720D02*
X462986D01*
X463386Y242120D01*
X463786Y241720D01*
X464186D01*
Y242120D01*
X463786Y242520D01*
X464186Y242920D01*
Y243320D01*
X463786D01*
X463386Y242920D01*
X462986Y243320D01*
X462586D01*
Y242920D01*
X462986Y242520D01*
X462586Y242120D01*
Y241720D01*
X407074Y301661D02*
X407474D01*
X407874Y302061D01*
X408274Y301661D01*
X408674D01*
Y302061D01*
X408274Y302461D01*
X408674Y302861D01*
Y303261D01*
X408274D01*
X407874Y302861D01*
X407474Y303261D01*
X407074D01*
Y302861D01*
X407474Y302461D01*
X407074Y302061D01*
Y301661D01*
X397257Y263840D02*
X397657D01*
X398057Y264240D01*
X398457Y263840D01*
X398857D01*
Y264240D01*
X398457Y264640D01*
X398857Y265040D01*
Y265440D01*
X398457D01*
X398057Y265040D01*
X397657Y265440D01*
X397257D01*
Y265040D01*
X397657Y264640D01*
X397257Y264240D01*
Y263840D01*
X523511Y308550D02*
X523911D01*
X524311Y308950D01*
X524711Y308550D01*
X525111D01*
Y308950D01*
X524711Y309350D01*
X525111Y309750D01*
Y310150D01*
X524711D01*
X524311Y309750D01*
X523911Y310150D01*
X523511D01*
Y309750D01*
X523911Y309350D01*
X523511Y308950D01*
Y308550D01*
X484731Y307271D02*
X485132D01*
X485532Y307671D01*
X485931Y307271D01*
X486332D01*
Y307671D01*
X485931Y308071D01*
X486332Y308471D01*
Y308871D01*
X485931D01*
X485532Y308471D01*
X485132Y308871D01*
X484731D01*
Y308471D01*
X485132Y308071D01*
X484731Y307671D01*
Y307271D01*
X485913Y291720D02*
X486313D01*
X486713Y292120D01*
X487113Y291720D01*
X487513D01*
Y292120D01*
X487113Y292520D01*
X487513Y292920D01*
Y293320D01*
X487113D01*
X486713Y292920D01*
X486313Y293320D01*
X485913D01*
Y292920D01*
X486313Y292520D01*
X485913Y292120D01*
Y291720D01*
X455165Y285617D02*
X455565D01*
X455965Y286017D01*
X456365Y285617D01*
X456765D01*
Y286017D01*
X456365Y286417D01*
X456765Y286817D01*
Y287217D01*
X456365D01*
X455965Y286817D01*
X455565Y287217D01*
X455165D01*
Y286817D01*
X455565Y286417D01*
X455165Y286017D01*
Y285617D01*
X479417Y299791D02*
X479816D01*
X480217Y300190D01*
X480617Y299791D01*
X481016D01*
Y300190D01*
X480617Y300590D01*
X481016Y300991D01*
Y301391D01*
X480617D01*
X480217Y300991D01*
X479816Y301391D01*
X479417D01*
Y300991D01*
X479816Y300590D01*
X479417Y300190D01*
Y299791D01*
X416129Y281582D02*
X416529D01*
X416929Y281982D01*
X417329Y281582D01*
X417729D01*
Y281982D01*
X417329Y282382D01*
X417729Y282782D01*
Y283182D01*
X417329D01*
X416929Y282782D01*
X416529Y283182D01*
X416129D01*
Y282782D01*
X416529Y282382D01*
X416129Y281982D01*
Y281582D01*
X370302Y155598D02*
X370702D01*
X371102Y155998D01*
X371502Y155598D01*
X371902D01*
Y155998D01*
X371502Y156398D01*
X371902Y156798D01*
Y157198D01*
X371502D01*
X371102Y156798D01*
X370702Y157198D01*
X370302D01*
Y156798D01*
X370702Y156398D01*
X370302Y155998D01*
Y155598D01*
X393432Y227547D02*
X393832D01*
X394232Y227946D01*
X394632Y227547D01*
X395032D01*
Y227946D01*
X394632Y228346D01*
X395032Y228747D01*
Y229147D01*
X394632D01*
X394232Y228747D01*
X393832Y229147D01*
X393432D01*
Y228747D01*
X393832Y228346D01*
X393432Y227946D01*
Y227547D01*
X388176Y240145D02*
X388576D01*
X388976Y240545D01*
X389376Y240145D01*
X389776D01*
Y240545D01*
X389376Y240945D01*
X389776Y241345D01*
Y241745D01*
X389376D01*
X388976Y241345D01*
X388576Y241745D01*
X388176D01*
Y241345D01*
X388576Y240945D01*
X388176Y240545D01*
Y240145D01*
X414751Y288767D02*
X415151D01*
X415551Y289167D01*
X415951Y288767D01*
X416351D01*
Y289167D01*
X415951Y289567D01*
X416351Y289967D01*
Y290367D01*
X415951D01*
X415551Y289967D01*
X415151Y290367D01*
X414751D01*
Y289967D01*
X415151Y289567D01*
X414751Y289167D01*
Y288767D01*
X492605Y273019D02*
X493006D01*
X493405Y273419D01*
X493806Y273019D01*
X494206D01*
Y273419D01*
X493806Y273819D01*
X494206Y274219D01*
Y274619D01*
X493806D01*
X493405Y274219D01*
X493006Y274619D01*
X492605D01*
Y274219D01*
X493006Y273819D01*
X492605Y273419D01*
Y273019D01*
X475775Y270696D02*
X476175D01*
X476575Y271096D01*
X476975Y270696D01*
X477375D01*
Y271096D01*
X476975Y271496D01*
X477375Y271896D01*
Y272296D01*
X476975D01*
X476575Y271896D01*
X476175Y272296D01*
X475775D01*
Y271896D01*
X476175Y271496D01*
X475775Y271096D01*
Y270696D01*
X454023Y272625D02*
X454423D01*
X454823Y273025D01*
X455223Y272625D01*
X455623D01*
Y273025D01*
X455223Y273425D01*
X455623Y273825D01*
Y274225D01*
X455223D01*
X454823Y273825D01*
X454423Y274225D01*
X454023D01*
Y273825D01*
X454423Y273425D01*
X454023Y273025D01*
Y272625D01*
X474125Y327865D02*
X474525D01*
X474925Y328265D01*
X475325Y327865D01*
X475725D01*
Y328265D01*
X475325Y328665D01*
X475725Y329065D01*
Y329465D01*
X475325D01*
X474925Y329065D01*
X474525Y329465D01*
X474125D01*
Y329065D01*
X474525Y328665D01*
X474125Y328265D01*
Y327865D01*
X474594Y369279D02*
X474994D01*
X475394Y369679D01*
X475794Y369279D01*
X476194D01*
Y369679D01*
X475794Y370079D01*
X476194Y370479D01*
Y370879D01*
X475794D01*
X475394Y370479D01*
X474994Y370879D01*
X474594D01*
Y370479D01*
X474994Y370079D01*
X474594Y369679D01*
Y369279D01*
X436995Y307074D02*
X437395D01*
X437795Y307474D01*
X438195Y307074D01*
X438595D01*
Y307474D01*
X438195Y307874D01*
X438595Y308274D01*
Y308674D01*
X438195D01*
X437795Y308274D01*
X437395Y308674D01*
X436995D01*
Y308274D01*
X437395Y307874D01*
X436995Y307474D01*
Y307074D01*
X493984Y360322D02*
X494383D01*
X494783Y360722D01*
X495184Y360322D01*
X495583D01*
Y360722D01*
X495184Y361122D01*
X495583Y361522D01*
Y361922D01*
X495184D01*
X494783Y361522D01*
X494383Y361922D01*
X493984D01*
Y361522D01*
X494383Y361122D01*
X493984Y360722D01*
Y360322D01*
X528629Y355204D02*
X529029D01*
X529429Y355604D01*
X529829Y355204D01*
X530229D01*
Y355604D01*
X529829Y356004D01*
X530229Y356404D01*
Y356804D01*
X529829D01*
X529429Y356404D01*
X529029Y356804D01*
X528629D01*
Y356404D01*
X529029Y356004D01*
X528629Y355604D01*
Y355204D01*
X541917Y373609D02*
X542316D01*
X542717Y374009D01*
X543117Y373609D01*
X543516D01*
Y374009D01*
X543117Y374410D01*
X543516Y374810D01*
Y375209D01*
X543117D01*
X542717Y374810D01*
X542316Y375209D01*
X541917D01*
Y374810D01*
X542316Y374410D01*
X541917Y374009D01*
Y373609D01*
X498609D02*
X499010D01*
X499409Y374009D01*
X499810Y373609D01*
X500210D01*
Y374009D01*
X499810Y374410D01*
X500210Y374810D01*
Y375209D01*
X499810D01*
X499409Y374810D01*
X499010Y375209D01*
X498609D01*
Y374810D01*
X499010Y374410D01*
X498609Y374009D01*
Y373609D01*
X503137Y366523D02*
X503537D01*
X503937Y366923D01*
X504337Y366523D01*
X504737D01*
Y366923D01*
X504337Y367323D01*
X504737Y367723D01*
Y368123D01*
X504337D01*
X503937Y367723D01*
X503537Y368123D01*
X503137D01*
Y367723D01*
X503537Y367323D01*
X503137Y366923D01*
Y366523D01*
X465047Y270853D02*
X465447D01*
X465846Y271253D01*
X466247Y270853D01*
X466646D01*
Y271253D01*
X466247Y271654D01*
X466646Y272054D01*
Y272453D01*
X466247D01*
X465846Y272054D01*
X465447Y272453D01*
X465047D01*
Y272054D01*
X465447Y271654D01*
X465047Y271253D01*
Y270853D01*
X445558Y234633D02*
X445958D01*
X446358Y235033D01*
X446758Y234633D01*
X447158D01*
Y235033D01*
X446758Y235433D01*
X447158Y235833D01*
Y236233D01*
X446758D01*
X446358Y235833D01*
X445958Y236233D01*
X445558D01*
Y235833D01*
X445958Y235433D01*
X445558Y235033D01*
Y234633D01*
X523806Y252547D02*
X524206D01*
X524606Y252946D01*
X525006Y252547D01*
X525406D01*
Y252946D01*
X525006Y253346D01*
X525406Y253747D01*
Y254147D01*
X525006D01*
X524606Y253747D01*
X524206Y254147D01*
X523806D01*
Y253747D01*
X524206Y253346D01*
X523806Y252946D01*
Y252547D01*
X513472Y270361D02*
X513872D01*
X514272Y270761D01*
X514672Y270361D01*
X515072D01*
Y270761D01*
X514672Y271161D01*
X515072Y271561D01*
Y271961D01*
X514672D01*
X514272Y271561D01*
X513872Y271961D01*
X513472D01*
Y271561D01*
X513872Y271161D01*
X513472Y270761D01*
Y270361D01*
X436503Y222724D02*
X436903D01*
X437303Y223124D01*
X437703Y222724D01*
X438103D01*
Y223124D01*
X437703Y223524D01*
X438103Y223924D01*
Y224324D01*
X437703D01*
X437303Y223924D01*
X436903Y224324D01*
X436503D01*
Y223924D01*
X436903Y223524D01*
X436503Y223124D01*
Y222724D01*
X386306Y388668D02*
X386706D01*
X387106Y389069D01*
X387506Y388668D01*
X387906D01*
Y389069D01*
X387506Y389469D01*
X387906Y389868D01*
Y390268D01*
X387506D01*
X387106Y389868D01*
X386706Y390268D01*
X386306D01*
Y389868D01*
X386706Y389469D01*
X386306Y389069D01*
Y388668D01*
X337783Y305401D02*
X338183D01*
X338583Y305801D01*
X338983Y305401D01*
X339383D01*
Y305801D01*
X338983Y306201D01*
X339383Y306601D01*
Y307001D01*
X338983D01*
X338583Y306601D01*
X338183Y307001D01*
X337783D01*
Y306601D01*
X338183Y306201D01*
X337783Y305801D01*
Y305401D01*
X274200Y338964D02*
X274600D01*
X275000Y339364D01*
X275400Y338964D01*
X275800D01*
Y339364D01*
X275400Y339764D01*
X275800Y340164D01*
Y340564D01*
X275400D01*
X275000Y340164D01*
X274600Y340564D01*
X274200D01*
Y340164D01*
X274600Y339764D01*
X274200Y339364D01*
Y338964D01*
X309732Y386109D02*
X310132D01*
X310531Y386509D01*
X310931Y386109D01*
X311332D01*
Y386509D01*
X310931Y386910D01*
X311332Y387310D01*
Y387709D01*
X310931D01*
X310531Y387310D01*
X310132Y387709D01*
X309732D01*
Y387310D01*
X310132Y386910D01*
X309732Y386509D01*
Y386109D01*
X355795Y295263D02*
X356194D01*
X356594Y295663D01*
X356995Y295263D01*
X357395D01*
Y295663D01*
X356995Y296063D01*
X357395Y296463D01*
Y296863D01*
X356995D01*
X356594Y296463D01*
X356194Y296863D01*
X355795D01*
Y296463D01*
X356194Y296063D01*
X355795Y295663D01*
Y295263D01*
X231582Y401365D02*
X231982D01*
X232382Y401765D01*
X232782Y401365D01*
X233182D01*
Y401765D01*
X232782Y402165D01*
X233182Y402565D01*
Y402965D01*
X232782D01*
X232382Y402565D01*
X231982Y402965D01*
X231582D01*
Y402565D01*
X231982Y402165D01*
X231582Y401765D01*
Y401365D01*
X320263Y395657D02*
X320663D01*
X321063Y396057D01*
X321463Y395657D01*
X321863D01*
Y396057D01*
X321463Y396457D01*
X321863Y396857D01*
Y397257D01*
X321463D01*
X321063Y396857D01*
X320663Y397257D01*
X320263D01*
Y396857D01*
X320663Y396457D01*
X320263Y396057D01*
Y395657D01*
X267409Y237881D02*
X267809D01*
X268209Y238281D01*
X268609Y237881D01*
X269009D01*
Y238281D01*
X268609Y238681D01*
X269009Y239081D01*
Y239481D01*
X268609D01*
X268209Y239081D01*
X267809Y239481D01*
X267409D01*
Y239081D01*
X267809Y238681D01*
X267409Y238281D01*
Y237881D01*
X313275Y250480D02*
X313675D01*
X314075Y250880D01*
X314475Y250480D01*
X314875D01*
Y250880D01*
X314475Y251279D01*
X314875Y251679D01*
Y252080D01*
X314475D01*
X314075Y251679D01*
X313675Y252080D01*
X313275D01*
Y251679D01*
X313675Y251279D01*
X313275Y250880D01*
Y250480D01*
X425086Y307566D02*
X425486D01*
X425886Y307966D01*
X426286Y307566D01*
X426686D01*
Y307966D01*
X426286Y308366D01*
X426686Y308766D01*
Y309166D01*
X426286D01*
X425886Y308766D01*
X425486Y309166D01*
X425086D01*
Y308766D01*
X425486Y308366D01*
X425086Y307966D01*
Y307566D01*
X194869Y397133D02*
X195269D01*
X195669Y397533D01*
X196069Y397133D01*
X196469D01*
Y397533D01*
X196069Y397933D01*
X196469Y398333D01*
Y398733D01*
X196069D01*
X195669Y398333D01*
X195269Y398733D01*
X194869D01*
Y398333D01*
X195269Y397933D01*
X194869Y397533D01*
Y397133D01*
D98*
X184953Y362894D02*
G03*
X184953Y362894I-800J0D01*
G01*
Y372736D02*
G03*
X184953Y372736I-800J0D01*
G01*
X184345Y320169D02*
G03*
X184345Y320169I-800J0D01*
G01*
Y330011D02*
G03*
X184345Y330011I-800J0D01*
G01*
Y283848D02*
G03*
X184345Y283848I-800J0D01*
G01*
Y293690D02*
G03*
X184345Y293690I-800J0D01*
G01*
M02*
