G04*
G04 #@! TF.GenerationSoftware,Altium Limited,Altium Designer,22.1.2 (22)*
G04*
G04 Layer_Color=16711935*
%FSLAX25Y25*%
%MOIN*%
G70*
G04*
G04 #@! TF.SameCoordinates,3CC87442-B0F0-4D04-9EAA-D9769B1F071C*
G04*
G04*
G04 #@! TF.FilePolarity,Negative*
G04*
G01*
G75*
%ADD67R,0.05524X0.05524*%
%ADD68C,0.05524*%
%ADD69R,0.08772X0.08772*%
%ADD70C,0.08772*%
%ADD71O,0.05524X0.10642*%
%ADD72R,0.05524X0.10642*%
%ADD73O,0.08674X0.06706*%
%ADD74C,0.06737*%
%ADD75R,0.06737X0.06737*%
%ADD76R,0.06737X0.06737*%
%ADD77C,0.08674*%
%ADD78C,0.16548*%
%ADD79C,0.05800*%
D67*
X538996Y290610D02*
D03*
D68*
X548996D02*
D03*
Y320610D02*
D03*
X538996D02*
D03*
D69*
X184153Y362894D02*
D03*
X183545Y320169D02*
D03*
Y283848D02*
D03*
D70*
X184153Y372736D02*
D03*
X183545Y330011D02*
D03*
Y293690D02*
D03*
D71*
X493661Y392224D02*
D03*
X483661D02*
D03*
X473661D02*
D03*
D72*
X463661D02*
D03*
D73*
X439173Y179095D02*
D03*
Y169095D02*
D03*
X429173D02*
D03*
Y179095D02*
D03*
X439173Y189094D02*
D03*
X429173D02*
D03*
D74*
X279823Y157382D02*
D03*
X289665D02*
D03*
X299508D02*
D03*
X218406D02*
D03*
X228248D02*
D03*
X238090D02*
D03*
X581791Y250984D02*
D03*
Y260827D02*
D03*
Y270669D02*
D03*
X184941Y194587D02*
D03*
Y184744D02*
D03*
Y174902D02*
D03*
X183366Y251870D02*
D03*
Y242028D02*
D03*
Y232185D02*
D03*
D75*
X309350Y157382D02*
D03*
X247933D02*
D03*
D76*
X581791Y280512D02*
D03*
X184941Y165059D02*
D03*
X183366Y222342D02*
D03*
D77*
X604134Y332382D02*
D03*
X574705D02*
D03*
D78*
X158957Y399410D02*
D03*
Y133268D02*
D03*
X606201D02*
D03*
Y399410D02*
D03*
D79*
X378346Y212697D02*
D03*
X390059Y216535D02*
D03*
X401024Y216240D02*
D03*
X277658Y201476D02*
D03*
X337402Y207382D02*
D03*
X429012Y215673D02*
D03*
X501083Y326181D02*
D03*
X509252Y321024D02*
D03*
X522001Y367440D02*
D03*
X259252Y210531D02*
D03*
X213583Y300787D02*
D03*
X257185Y275098D02*
D03*
X277756Y258465D02*
D03*
X462303Y234842D02*
D03*
X405020Y227658D02*
D03*
X406595Y220276D02*
D03*
X402559Y236398D02*
D03*
X319666Y224095D02*
D03*
X311352Y231077D02*
D03*
X287992Y219193D02*
D03*
X200787Y220669D02*
D03*
X212795Y245276D02*
D03*
X455905Y253398D02*
D03*
X254953Y173228D02*
D03*
X275098Y186516D02*
D03*
X203445Y170768D02*
D03*
X228051Y200847D02*
D03*
X206890Y343110D02*
D03*
X312894Y286319D02*
D03*
X467717Y250394D02*
D03*
X463386Y242520D02*
D03*
X407874Y302461D02*
D03*
X398057Y264640D02*
D03*
X524311Y309350D02*
D03*
X485532Y308071D02*
D03*
X486713Y292520D02*
D03*
X455965Y286417D02*
D03*
X480217Y300590D02*
D03*
X416929Y282382D02*
D03*
X371102Y156398D02*
D03*
X394232Y228346D02*
D03*
X388976Y240945D02*
D03*
X415551Y289567D02*
D03*
X493405Y273819D02*
D03*
X476575Y271496D02*
D03*
X454823Y273425D02*
D03*
X474925Y328665D02*
D03*
X475394Y370079D02*
D03*
X437795Y307874D02*
D03*
X494783Y361122D02*
D03*
X529429Y356004D02*
D03*
X542717Y374410D02*
D03*
X499409D02*
D03*
X503937Y367323D02*
D03*
X465846Y271654D02*
D03*
X446358Y235433D02*
D03*
X524606Y253346D02*
D03*
X514272Y271161D02*
D03*
X437303Y223524D02*
D03*
X387106Y389469D02*
D03*
X338583Y306201D02*
D03*
X275000Y339764D02*
D03*
X310531Y386910D02*
D03*
X356594Y296063D02*
D03*
X232382Y402165D02*
D03*
X321063Y396457D02*
D03*
X268209Y238681D02*
D03*
X314075Y251279D02*
D03*
X425886Y308366D02*
D03*
X195669Y397933D02*
D03*
M02*
