G04*
G04 #@! TF.GenerationSoftware,Altium Limited,Altium Designer,22.1.2 (22)*
G04*
G04 Layer_Physical_Order=1*
G04 Layer_Color=255*
%FSLAX25Y25*%
%MOIN*%
G70*
G04*
G04 #@! TF.SameCoordinates,3CC87442-B0F0-4D04-9EAA-D9769B1F071C*
G04*
G04*
G04 #@! TF.FilePolarity,Positive*
G04*
G01*
G75*
%ADD15C,0.01000*%
%ADD20R,0.03898X0.14921*%
%ADD21R,0.05000X0.05000*%
%ADD22R,0.06693X0.01181*%
%ADD23R,0.01181X0.06693*%
%ADD24R,0.05433X0.03622*%
%ADD25R,0.05787X0.04567*%
%ADD26R,0.11417X0.21260*%
%ADD27R,0.15197X0.07559*%
%ADD28R,0.08858X0.12520*%
G04:AMPARAMS|DCode=29|XSize=36.61mil|YSize=51.58mil|CornerRadius=2.75mil|HoleSize=0mil|Usage=FLASHONLY|Rotation=0.000|XOffset=0mil|YOffset=0mil|HoleType=Round|Shape=RoundedRectangle|*
%AMROUNDEDRECTD29*
21,1,0.03661,0.04608,0,0,0.0*
21,1,0.03112,0.05158,0,0,0.0*
1,1,0.00549,0.01556,-0.02304*
1,1,0.00549,-0.01556,-0.02304*
1,1,0.00549,-0.01556,0.02304*
1,1,0.00549,0.01556,0.02304*
%
%ADD29ROUNDEDRECTD29*%
G04:AMPARAMS|DCode=30|XSize=127.56mil|YSize=51.58mil|CornerRadius=3.87mil|HoleSize=0mil|Usage=FLASHONLY|Rotation=0.000|XOffset=0mil|YOffset=0mil|HoleType=Round|Shape=RoundedRectangle|*
%AMROUNDEDRECTD30*
21,1,0.12756,0.04384,0,0,0.0*
21,1,0.11982,0.05158,0,0,0.0*
1,1,0.00774,0.05991,-0.02192*
1,1,0.00774,-0.05991,-0.02192*
1,1,0.00774,-0.05991,0.02192*
1,1,0.00774,0.05991,0.02192*
%
%ADD30ROUNDEDRECTD30*%
%ADD31R,0.05709X0.04331*%
%ADD32R,0.05906X0.05118*%
%ADD33R,0.05000X0.05000*%
%ADD34R,0.04724X0.24000*%
%ADD35R,0.04724X0.04724*%
%ADD36R,0.05118X0.05906*%
%ADD37R,0.07874X0.07874*%
%ADD38R,0.08465X0.08465*%
%ADD39R,0.07480X0.07480*%
%ADD40R,0.08268X0.06299*%
%ADD41R,0.01575X0.05315*%
%ADD42R,0.03937X0.05512*%
%ADD80R,0.42677X0.31024*%
%ADD81C,0.03937*%
%ADD82R,0.04724X0.04724*%
%ADD83C,0.04724*%
%ADD84R,0.07972X0.07972*%
%ADD85C,0.07972*%
%ADD86O,0.04724X0.09843*%
%ADD87R,0.04724X0.09843*%
%ADD88O,0.07874X0.05906*%
%ADD89C,0.05937*%
%ADD90R,0.05937X0.05937*%
%ADD91R,0.05937X0.05937*%
%ADD92C,0.07874*%
%ADD93C,0.15748*%
%ADD94C,0.05000*%
G36*
X291816Y409432D02*
X291825Y409319D01*
X286250Y403744D01*
X261338D01*
X255725Y409357D01*
X255917Y409819D01*
X291647D01*
X291816Y409432D01*
D02*
G37*
G36*
X463753Y409357D02*
X461696Y407300D01*
X461254Y406725D01*
X460977Y406054D01*
X460882Y405335D01*
Y398146D01*
X460299D01*
Y395004D01*
X418669D01*
X417950Y394909D01*
X417279Y394632D01*
X417164Y394543D01*
X409052Y402655D01*
X408476Y403096D01*
X407806Y403374D01*
X407087Y403469D01*
X358699D01*
X352848Y409319D01*
X352857Y409432D01*
X353026Y409819D01*
X463562D01*
X463753Y409357D01*
D02*
G37*
G36*
X509523Y404416D02*
Y402897D01*
X509618Y402177D01*
X509896Y401507D01*
X510338Y400931D01*
X512644Y398625D01*
X513220Y398183D01*
X513890Y397906D01*
X514609Y397811D01*
X522228D01*
Y395752D01*
X525567D01*
Y395094D01*
X524590D01*
Y391445D01*
X529724D01*
Y390945D01*
X530224D01*
Y386795D01*
X534858D01*
Y386795D01*
X535024D01*
Y386795D01*
X536311D01*
Y390453D01*
Y394110D01*
X535024D01*
X534858Y394542D01*
Y395094D01*
X531126D01*
Y395752D01*
X531709D01*
Y397712D01*
X552150D01*
Y395752D01*
X552732D01*
Y395094D01*
X549000D01*
Y394192D01*
X548622Y393898D01*
X538598D01*
Y394110D01*
X537311D01*
Y390453D01*
Y386795D01*
X538415D01*
X538638Y386312D01*
X534488Y382161D01*
X533889Y382409D01*
X533169Y382504D01*
X532450Y382409D01*
X531779Y382132D01*
X531204Y381690D01*
X525807Y376293D01*
X525365Y375717D01*
X525087Y375047D01*
X525042Y374699D01*
X520887Y370545D01*
X520732Y370504D01*
X519983Y370071D01*
X519371Y369459D01*
X519054Y368911D01*
X518541Y368791D01*
X518447Y368811D01*
X496838Y390420D01*
Y394783D01*
X496730Y395606D01*
X496413Y396372D01*
X495908Y397030D01*
X495250Y397535D01*
X494484Y397852D01*
X493661Y397960D01*
X492839Y397852D01*
X492073Y397535D01*
X491415Y397030D01*
X490910Y396372D01*
X490593Y395606D01*
X490485Y394783D01*
Y389665D01*
X490593Y388843D01*
X490910Y388077D01*
X491415Y387419D01*
X492073Y386914D01*
X492770Y386625D01*
X514051Y365345D01*
Y362250D01*
X513833Y361966D01*
X513555Y361295D01*
X513460Y360576D01*
Y344724D01*
X513555Y344005D01*
X513833Y343335D01*
X514051Y343050D01*
Y275150D01*
X513170Y274270D01*
X513003Y274225D01*
X512253Y273792D01*
X511641Y273180D01*
X511208Y272430D01*
X510984Y271594D01*
Y270729D01*
X511208Y269893D01*
X511641Y269143D01*
X512253Y268531D01*
X513003Y268098D01*
X513839Y267874D01*
X514704D01*
X515541Y268098D01*
X516290Y268531D01*
X516902Y269143D01*
X517335Y269893D01*
X517559Y270729D01*
Y270796D01*
X518796Y272034D01*
X519238Y272609D01*
X519516Y273280D01*
X519610Y273999D01*
Y344133D01*
X519552Y344578D01*
X519919Y345078D01*
X524901D01*
Y352559D01*
X524334D01*
Y358058D01*
X525012Y358736D01*
X526805D01*
X527012Y358236D01*
X526798Y358022D01*
X526366Y357273D01*
X526142Y356437D01*
Y355571D01*
X526366Y354735D01*
X526748Y354073D01*
Y352559D01*
X525689D01*
Y345078D01*
X532382D01*
Y352559D01*
X532307D01*
Y354414D01*
X532492Y354735D01*
X532717Y355571D01*
Y356437D01*
X532492Y357273D01*
X532060Y358022D01*
X531846Y358236D01*
X532053Y358736D01*
X538386D01*
X539105Y358831D01*
X539776Y359108D01*
X540351Y359550D01*
X545098Y364297D01*
X568288D01*
X599446Y333139D01*
X599409Y333004D01*
Y331760D01*
X599731Y330558D01*
X600353Y329481D01*
X601233Y328601D01*
X601354Y328532D01*
Y274478D01*
X585344Y258468D01*
X584943Y258774D01*
X585291Y259377D01*
X585547Y260332D01*
Y261321D01*
X585291Y262277D01*
X584797Y263133D01*
X584097Y263832D01*
X583241Y264327D01*
X582286Y264583D01*
X581297D01*
X580342Y264327D01*
X579485Y263832D01*
X579259Y263606D01*
X465350D01*
X465159Y264068D01*
X465704Y264614D01*
X471005D01*
X471507Y264714D01*
X471933Y264998D01*
X475355Y268420D01*
X476142Y268209D01*
X477008D01*
X477844Y268433D01*
X478593Y268865D01*
X479205Y269478D01*
X479638Y270227D01*
X479862Y271063D01*
Y271929D01*
X479638Y272765D01*
X479205Y273515D01*
X478593Y274127D01*
X477844Y274559D01*
X477008Y274783D01*
X476142D01*
X475306Y274559D01*
X474556Y274127D01*
X473944Y273515D01*
X473511Y272765D01*
X473287Y271929D01*
Y271063D01*
X473498Y270276D01*
X470461Y267239D01*
X465160D01*
X464658Y267139D01*
X464232Y266855D01*
X459812Y262435D01*
X459137D01*
X458946Y262897D01*
X464626Y268577D01*
X465414Y268366D01*
X466279D01*
X467115Y268590D01*
X467865Y269023D01*
X468477Y269635D01*
X468910Y270385D01*
X469134Y271221D01*
Y272086D01*
X468910Y272922D01*
X468477Y273672D01*
X467865Y274284D01*
X467115Y274717D01*
X466279Y274941D01*
X465414D01*
X464578Y274717D01*
X463828Y274284D01*
X463216Y273672D01*
X462783Y272922D01*
X462559Y272086D01*
Y271221D01*
X462770Y270433D01*
X456740Y264403D01*
X453667D01*
X453475Y264865D01*
X459538Y270928D01*
X459823Y271354D01*
X459923Y271856D01*
Y278415D01*
X459823Y278918D01*
X459538Y279344D01*
X456208Y282674D01*
X456284Y282856D01*
X456446Y283143D01*
X457233Y283354D01*
X457640Y283589D01*
X471063D01*
Y282579D01*
X477756D01*
Y290059D01*
X471063D01*
Y289148D01*
X457810D01*
X457233Y289481D01*
X456397Y289705D01*
X455532D01*
X454696Y289481D01*
X453990Y289073D01*
X453672Y289161D01*
X453490Y289237D01*
Y326760D01*
X453390Y327262D01*
X453105Y327688D01*
X448415Y332378D01*
X453907Y337870D01*
X469223D01*
X474682Y332411D01*
X474600Y332213D01*
X474445Y331940D01*
X473656Y331729D01*
X472907Y331296D01*
X472295Y330684D01*
X471862Y329934D01*
X471638Y329098D01*
Y328233D01*
X471862Y327396D01*
X472295Y326647D01*
X472907Y326035D01*
X473656Y325602D01*
X473811Y325560D01*
X473992Y325380D01*
Y318209D01*
X474016Y318028D01*
Y314665D01*
X479528D01*
Y318028D01*
X479551Y318209D01*
Y326531D01*
X479505Y326880D01*
X479979Y327114D01*
X482850Y324242D01*
Y316604D01*
X479549Y313303D01*
X477543D01*
Y310047D01*
X480512D01*
Y309547D01*
X481012D01*
Y305791D01*
X482861D01*
X483382Y305270D01*
X484181Y304809D01*
X485032Y304581D01*
Y308071D01*
X485532D01*
Y308571D01*
X489021D01*
X488793Y309422D01*
X488332Y310220D01*
X487681Y310872D01*
X486882Y311332D01*
X486303Y311488D01*
X486154Y312045D01*
X487595Y313487D01*
X488037Y314063D01*
X488315Y314733D01*
X488410Y315453D01*
Y325394D01*
X488315Y326113D01*
X488037Y326783D01*
X487595Y327359D01*
X472339Y342615D01*
X471764Y343057D01*
X471094Y343335D01*
X470374Y343429D01*
X460120D01*
X459929Y343891D01*
X465627Y349590D01*
X466069Y350165D01*
X466346Y350836D01*
X466441Y351555D01*
Y386303D01*
X467024D01*
Y391724D01*
X463661D01*
Y392724D01*
X467024D01*
Y398146D01*
X466441D01*
Y404183D01*
X467352Y405094D01*
X508846D01*
X509523Y404416D01*
D02*
G37*
G36*
X162795Y409819D02*
X206711D01*
X206903Y409357D01*
X204853Y407307D01*
X189665D01*
X188946Y407212D01*
X188276Y406935D01*
X187700Y406493D01*
X182188Y400981D01*
X181746Y400406D01*
X181469Y399735D01*
X181374Y399016D01*
Y376889D01*
X181092Y376726D01*
X180164Y375798D01*
X180001Y375516D01*
X156201D01*
X155481Y375421D01*
X154811Y375144D01*
X154235Y374702D01*
X151929Y372395D01*
X151487Y371820D01*
X151210Y371149D01*
X151115Y370430D01*
Y367168D01*
X151210Y366449D01*
X151487Y365779D01*
X151929Y365203D01*
X172739Y344393D01*
X173315Y343951D01*
X173985Y343673D01*
X174705Y343579D01*
X184872D01*
X188756Y339695D01*
Y330939D01*
X188256Y330874D01*
X187993Y331854D01*
X187365Y332942D01*
X186476Y333831D01*
X185387Y334459D01*
X184173Y334785D01*
X182916D01*
X181702Y334459D01*
X180614Y333831D01*
X179725Y332942D01*
X179638Y332791D01*
X160476D01*
X159756Y332696D01*
X159086Y332418D01*
X158510Y331977D01*
X156204Y329671D01*
X155762Y329095D01*
X155484Y328424D01*
X155390Y327705D01*
Y166885D01*
X155484Y166165D01*
X155762Y165495D01*
X156204Y164919D01*
X199832Y121291D01*
X199662Y120816D01*
X199641Y120791D01*
X163168D01*
X163158Y120798D01*
X162697Y120889D01*
Y120889D01*
X162679Y120873D01*
X160419Y121051D01*
X158197Y121584D01*
X156086Y122458D01*
X154138Y123652D01*
X152400Y125136D01*
X150916Y126874D01*
X149722Y128822D01*
X148848Y130933D01*
X148314Y133155D01*
X148140Y135368D01*
X148153Y135433D01*
Y394805D01*
X148160Y394815D01*
X148251Y395276D01*
X148251D01*
X148235Y395294D01*
X148413Y397554D01*
X148946Y399775D01*
X149821Y401887D01*
X150579Y403125D01*
X151026Y402897D01*
X150628Y401936D01*
X150295Y400262D01*
Y398556D01*
X150628Y396883D01*
X151281Y395307D01*
X152229Y393888D01*
X153435Y392682D01*
X154854Y391734D01*
X156430Y391081D01*
X158104Y390748D01*
X159810D01*
X161483Y391081D01*
X163059Y391734D01*
X164478Y392682D01*
X165684Y393888D01*
X166632Y395307D01*
X167285Y396883D01*
X167618Y398556D01*
Y400262D01*
X167285Y401936D01*
X166632Y403512D01*
X165684Y404931D01*
X164478Y406137D01*
X163059Y407085D01*
X161483Y407738D01*
X159810Y408071D01*
X158104D01*
X156430Y407738D01*
X156410Y407730D01*
X156122Y408151D01*
X156239Y408273D01*
X158295Y409125D01*
X160517Y409658D01*
X162730Y409832D01*
X162795Y409819D01*
D02*
G37*
G36*
X605920Y409658D02*
X608142Y409125D01*
X610253Y408250D01*
X612201Y407056D01*
X613939Y405572D01*
X615422Y403835D01*
X616616Y401887D01*
X617491Y399775D01*
X618024Y397554D01*
X618198Y395340D01*
X618186Y395276D01*
Y135335D01*
X618198Y135270D01*
X618024Y133057D01*
X617491Y130835D01*
X616616Y128724D01*
X615422Y126775D01*
X613939Y125038D01*
X612201Y123554D01*
X610253Y122360D01*
X608142Y121485D01*
X605920Y120952D01*
X603707Y120778D01*
X603642Y120791D01*
X569606D01*
X569585Y120816D01*
X569415Y121291D01*
X583757Y135633D01*
X584199Y136209D01*
X584476Y136879D01*
X584571Y137598D01*
Y248452D01*
X584797Y248678D01*
X585291Y249535D01*
X585547Y250490D01*
Y250809D01*
X606099Y271361D01*
X606541Y271937D01*
X606819Y272607D01*
X606914Y273327D01*
Y328532D01*
X607035Y328601D01*
X607914Y329481D01*
X608536Y330558D01*
X608858Y331760D01*
Y333004D01*
X608536Y334206D01*
X607914Y335283D01*
X607035Y336162D01*
X605957Y336784D01*
X604756Y337106D01*
X603512D01*
X603377Y337070D01*
X571405Y369042D01*
X570829Y369484D01*
X570158Y369762D01*
X569439Y369856D01*
X550420D01*
X550091Y370232D01*
X550122Y370472D01*
X550028Y371192D01*
X549750Y371862D01*
X549308Y372438D01*
X548732Y372880D01*
X548360Y373034D01*
Y386594D01*
X548548Y386699D01*
X549000Y386795D01*
X549000Y386795D01*
X549000Y386795D01*
X553634D01*
Y390945D01*
X554134D01*
Y391445D01*
X559268D01*
Y395094D01*
X558291D01*
Y395752D01*
X561630D01*
Y399992D01*
X556890D01*
Y400492D01*
X556390D01*
Y405232D01*
X552150D01*
Y403272D01*
X531709D01*
Y405232D01*
X527468D01*
Y400492D01*
X526469D01*
Y405232D01*
X522228D01*
Y403370D01*
X515761D01*
X515083Y404048D01*
Y405568D01*
X514988Y406287D01*
X514710Y406958D01*
X514269Y407533D01*
X512444Y409357D01*
X512636Y409819D01*
X603642D01*
X603707Y409832D01*
X605920Y409658D01*
D02*
G37*
G36*
X543176Y386537D02*
Y377807D01*
X543065Y377697D01*
X542284D01*
X541448Y377473D01*
X540698Y377040D01*
X540086Y376428D01*
X539653Y375678D01*
X539429Y374842D01*
Y373977D01*
X539653Y373141D01*
X540086Y372391D01*
X540698Y371779D01*
X541448Y371346D01*
X542284Y371122D01*
X543149D01*
X543429Y371197D01*
X543688Y370749D01*
X541981Y369042D01*
X537234Y364295D01*
X524129D01*
X523995Y364795D01*
X524020Y364810D01*
X524632Y365422D01*
X525065Y366171D01*
X525288Y367007D01*
Y367084D01*
X529738Y371533D01*
X530180Y372109D01*
X530457Y372780D01*
X530503Y373127D01*
X535135Y377759D01*
X535577Y378335D01*
X535854Y379005D01*
X535949Y379724D01*
X535927Y379888D01*
X542570Y386531D01*
X542676Y386689D01*
X543176Y386537D01*
D02*
G37*
G36*
X258222Y398999D02*
X258797Y398557D01*
X259468Y398280D01*
X260187Y398185D01*
X301354D01*
Y380803D01*
X301087D01*
Y372843D01*
X304035D01*
X306984D01*
Y380803D01*
X306913D01*
Y385778D01*
X307414Y385844D01*
X307468Y385641D01*
X307901Y384891D01*
X307929Y384863D01*
Y372362D01*
X307992Y371883D01*
Y364094D01*
X313465D01*
Y372012D01*
X313508Y372342D01*
X313488Y372492D01*
Y385456D01*
X313595Y385641D01*
X313819Y386477D01*
Y387342D01*
X313595Y388178D01*
X313162Y388928D01*
X312550Y389540D01*
X311800Y389973D01*
X310964Y390197D01*
X310099D01*
X309263Y389973D01*
X308513Y389540D01*
X307901Y388928D01*
X307468Y388178D01*
X307414Y387975D01*
X306913Y388040D01*
Y400945D01*
X306819Y401664D01*
X306541Y402335D01*
X306099Y402910D01*
X306080Y402930D01*
X305504Y403372D01*
X304834Y403650D01*
X304114Y403744D01*
X294766D01*
X294574Y404206D01*
X294970Y404602D01*
X349703D01*
X355582Y398724D01*
X357539Y396766D01*
Y368854D01*
X351720D01*
Y364575D01*
X360319D01*
X368917D01*
Y368854D01*
X363099D01*
Y397909D01*
X405935D01*
X414331Y389514D01*
Y368165D01*
X408512D01*
Y363886D01*
X417110D01*
X425709D01*
Y368165D01*
X419890D01*
Y389445D01*
X460299D01*
Y386303D01*
X460882D01*
Y352707D01*
X450790Y342615D01*
X443556Y335381D01*
X437136Y328961D01*
X395295D01*
X394576Y328866D01*
X393905Y328588D01*
X393330Y328147D01*
X392915Y327732D01*
X390087D01*
Y320972D01*
X395016D01*
Y322252D01*
X395268Y322357D01*
X395844Y322798D01*
X396447Y323401D01*
X438287D01*
X439007Y323496D01*
X439677Y323774D01*
X440253Y324216D01*
X446559Y330522D01*
X450865Y326216D01*
Y284848D01*
X450964Y284346D01*
X451249Y283920D01*
X457298Y277872D01*
Y276245D01*
X457116Y276169D01*
X456798Y276081D01*
X456092Y276489D01*
X455256Y276713D01*
X454390D01*
X453554Y276489D01*
X452804Y276056D01*
X452192Y275444D01*
X451759Y274694D01*
X451535Y273858D01*
Y272992D01*
X451746Y272205D01*
X447882Y268340D01*
X444441D01*
Y268406D01*
X436183D01*
X436002Y268581D01*
X435827Y268762D01*
Y277020D01*
X435761D01*
Y303984D01*
X436575Y304798D01*
X437362Y304587D01*
X438228D01*
X439064Y304811D01*
X439814Y305243D01*
X440426Y305855D01*
X440859Y306605D01*
X441083Y307441D01*
Y308307D01*
X440859Y309143D01*
X440426Y309893D01*
X439814Y310505D01*
X439064Y310937D01*
X438228Y311161D01*
X437362D01*
X436526Y310937D01*
X435777Y310505D01*
X435165Y309893D01*
X434732Y309143D01*
X434508Y308307D01*
Y307441D01*
X434719Y306654D01*
X433521Y305456D01*
X433236Y305030D01*
X433136Y304528D01*
Y277020D01*
X425919D01*
Y279317D01*
X427198Y280595D01*
X427482Y281021D01*
X427582Y281524D01*
Y305550D01*
X427904Y305736D01*
X428516Y306348D01*
X428949Y307097D01*
X429173Y307933D01*
Y308799D01*
X428949Y309635D01*
X428516Y310385D01*
X427904Y310997D01*
X427155Y311430D01*
X426319Y311653D01*
X425453D01*
X424617Y311430D01*
X423867Y310997D01*
X423255Y310385D01*
X422823Y309635D01*
X422598Y308799D01*
Y307933D01*
X422823Y307097D01*
X423255Y306348D01*
X423867Y305736D01*
X424617Y305303D01*
X424957Y305212D01*
Y288027D01*
X424495Y287836D01*
X415258Y297073D01*
X414837Y297354D01*
X410951Y301240D01*
X411161Y302028D01*
Y302893D01*
X410937Y303730D01*
X410505Y304479D01*
X409893Y305091D01*
X409143Y305524D01*
X408307Y305748D01*
X407441D01*
X406605Y305524D01*
X405856Y305091D01*
X405243Y304479D01*
X404811Y303730D01*
X404587Y302893D01*
Y302028D01*
X404811Y301192D01*
X405243Y300442D01*
X405856Y299830D01*
X406605Y299397D01*
X407441Y299173D01*
X408307D01*
X409094Y299384D01*
X413262Y295217D01*
X413683Y294935D01*
X415307Y293311D01*
X415232Y293129D01*
X415070Y292841D01*
X414282Y292630D01*
X413533Y292197D01*
X412921Y291585D01*
X412488Y290836D01*
X412264Y290000D01*
Y289134D01*
X412269Y289113D01*
X411821Y288854D01*
X390899Y309776D01*
Y313213D01*
X395016D01*
Y319972D01*
X389587D01*
X384157D01*
Y313213D01*
X388274D01*
Y309232D01*
X388374Y308730D01*
X388658Y308304D01*
X411829Y285134D01*
Y280813D01*
X411929Y280311D01*
X412214Y279885D01*
X413451Y278647D01*
Y277232D01*
X413173D01*
Y277020D01*
X411417D01*
Y268762D01*
X411242Y268581D01*
X411061Y268406D01*
X402803D01*
Y266281D01*
X400905D01*
X400688Y266658D01*
X400075Y267270D01*
X399326Y267703D01*
X398490Y267927D01*
X397624D01*
X396788Y267703D01*
X396039Y267270D01*
X395427Y266658D01*
X394994Y265909D01*
X394770Y265073D01*
Y264207D01*
X394994Y263371D01*
X395427Y262621D01*
X396039Y262009D01*
X396788Y261576D01*
X397624Y261352D01*
X398490D01*
X399326Y261576D01*
X400075Y262009D01*
X400688Y262621D01*
X401120Y263371D01*
X401197Y263656D01*
X402803D01*
Y260466D01*
X395828D01*
X395714Y260740D01*
X395273Y261316D01*
X384052Y272536D01*
X383476Y272978D01*
X382806Y273256D01*
X382087Y273351D01*
X362205D01*
Y283358D01*
X355906D01*
Y270458D01*
X329271D01*
Y270965D01*
X322696D01*
Y270428D01*
X306890D01*
Y270965D01*
X302178D01*
X301970Y271465D01*
X313615Y283109D01*
X314163Y283256D01*
X314912Y283688D01*
X315524Y284300D01*
X315957Y285050D01*
X316181Y285886D01*
Y286752D01*
X315957Y287588D01*
X315524Y288337D01*
X314912Y288949D01*
X314163Y289382D01*
X313327Y289606D01*
X312461D01*
X311625Y289382D01*
X310875Y288949D01*
X310263Y288337D01*
X309830Y287588D01*
X309683Y287040D01*
X298357Y275713D01*
X292224D01*
X291505Y275618D01*
X290835Y275340D01*
X290259Y274899D01*
X277976Y262615D01*
X270875Y269716D01*
Y271297D01*
X268890D01*
X268681Y271384D01*
X267961Y271478D01*
X267371D01*
X266651Y271384D01*
X266442Y271297D01*
X263867D01*
Y268362D01*
X263405Y268170D01*
X260168Y271407D01*
Y273691D01*
X260248Y273830D01*
X260472Y274666D01*
Y275531D01*
X260248Y276367D01*
X259816Y277117D01*
X259204Y277729D01*
X258454Y278162D01*
X257618Y278386D01*
X256752D01*
X255916Y278162D01*
X255167Y277729D01*
X254555Y277117D01*
X254122Y276367D01*
X253898Y275531D01*
Y274666D01*
X254122Y273830D01*
X254555Y273080D01*
X254609Y273026D01*
Y270256D01*
X254703Y269536D01*
X254981Y268866D01*
X255423Y268290D01*
X262594Y261120D01*
X262650Y261077D01*
X264453Y259273D01*
Y256044D01*
X263591D01*
Y250139D01*
X270875D01*
Y256044D01*
X270013D01*
Y260424D01*
X269918Y261144D01*
X269640Y261814D01*
X269198Y262390D01*
X266538Y265051D01*
X266481Y265094D01*
X265937Y265638D01*
X266129Y266100D01*
X266442D01*
X266651Y266014D01*
X266725Y266004D01*
X274468Y258260D01*
Y258032D01*
X274693Y257196D01*
X275125Y256446D01*
X275737Y255834D01*
X276487Y255401D01*
X277323Y255177D01*
X278189D01*
X279025Y255401D01*
X279774Y255834D01*
X280386Y256446D01*
X280819Y257196D01*
X280966Y257744D01*
X293376Y270153D01*
X299410D01*
Y264272D01*
X306890D01*
Y264868D01*
X322696D01*
Y264390D01*
X329271D01*
Y264898D01*
X355906D01*
Y257784D01*
X362205D01*
Y267791D01*
X380935D01*
X391321Y257406D01*
X391316Y257322D01*
X391145Y256906D01*
X384539D01*
X383820Y256811D01*
X383150Y256533D01*
X382574Y256091D01*
X368337Y241855D01*
X362205D01*
Y251862D01*
X355906D01*
Y241855D01*
X346063D01*
X345344Y241760D01*
X344673Y241482D01*
X344097Y241040D01*
X337431Y234374D01*
X329271D01*
Y234882D01*
X322696D01*
Y233842D01*
X318771D01*
X318052Y233748D01*
X317381Y233470D01*
X316806Y233028D01*
X315097Y231320D01*
X314900Y231401D01*
X314627Y231557D01*
X314416Y232346D01*
X313983Y233095D01*
X313371Y233707D01*
X312621Y234140D01*
X311785Y234364D01*
X310919D01*
X310083Y234140D01*
X309944Y234060D01*
X306037D01*
Y234882D01*
X299462D01*
Y228307D01*
X306037D01*
Y228500D01*
X309279D01*
X309334Y228446D01*
X310083Y228013D01*
X310872Y227802D01*
X311027Y227529D01*
X311109Y227332D01*
X308998Y225221D01*
X297018D01*
X295890Y226348D01*
Y248947D01*
X303734Y256791D01*
X306890D01*
Y263484D01*
X299410D01*
Y260329D01*
X291145Y252064D01*
X290703Y251488D01*
X290425Y250818D01*
X290331Y250098D01*
Y225197D01*
X290425Y224477D01*
X290703Y223807D01*
X291145Y223231D01*
X293901Y220475D01*
X294476Y220034D01*
X295147Y219756D01*
X295866Y219661D01*
X310149D01*
X310869Y219756D01*
X311539Y220034D01*
X312115Y220475D01*
X315878Y224239D01*
X316378Y224032D01*
Y223662D01*
X316602Y222826D01*
X317035Y222076D01*
X317647Y221464D01*
X318397Y221031D01*
X319233Y220808D01*
X319358D01*
X319725Y220526D01*
X320396Y220248D01*
X321115Y220153D01*
X362661D01*
X362728Y220076D01*
X362889Y219674D01*
X360168Y216953D01*
X324311D01*
X323592Y216858D01*
X322921Y216581D01*
X322345Y216139D01*
X319518Y213311D01*
X261012D01*
X260521Y213595D01*
X259685Y213819D01*
X258819D01*
X257983Y213595D01*
X257234Y213162D01*
X256621Y212550D01*
X256189Y211800D01*
X255965Y210964D01*
Y210099D01*
X256189Y209263D01*
X256621Y208513D01*
X257234Y207901D01*
X257983Y207468D01*
X258819Y207244D01*
X259685D01*
X260521Y207468D01*
X261012Y207752D01*
X320669D01*
X321389Y207846D01*
X322059Y208124D01*
X322635Y208566D01*
X325462Y211394D01*
X361319D01*
X362038Y211488D01*
X362709Y211766D01*
X363284Y212208D01*
X371353Y220276D01*
X371605Y220239D01*
X371782Y219709D01*
X367818Y215745D01*
X367376Y215169D01*
X367098Y214499D01*
X367004Y213779D01*
Y212470D01*
X352788Y198255D01*
X347608D01*
X347427Y198231D01*
X343277D01*
Y191538D01*
X350758D01*
Y192695D01*
X353940D01*
X354659Y192790D01*
X355330Y193068D01*
X355905Y193510D01*
X371749Y209353D01*
X372191Y209929D01*
X372288Y210165D01*
X372776Y210034D01*
X372712Y209555D01*
Y198231D01*
X371752D01*
Y191538D01*
X379232D01*
Y198231D01*
X378272D01*
Y208403D01*
X379460Y209592D01*
X379615Y209633D01*
X380365Y210066D01*
X380977Y210678D01*
X381410Y211428D01*
X381634Y212264D01*
Y213130D01*
X381410Y213966D01*
X380977Y214715D01*
X380763Y214929D01*
X380971Y215429D01*
X386947D01*
X386954Y215422D01*
X386996Y215266D01*
X387428Y214517D01*
X388040Y213905D01*
X388790Y213472D01*
X389626Y213248D01*
X390492D01*
X391328Y213472D01*
X392078Y213905D01*
X392488Y214315D01*
X392988Y214108D01*
Y209044D01*
X388783Y204839D01*
X388341Y204263D01*
X388063Y203592D01*
X387968Y202873D01*
Y147835D01*
X385728D01*
Y137795D01*
X395768D01*
Y147835D01*
X393528D01*
Y201722D01*
X397733Y205927D01*
X398175Y206503D01*
X398453Y207173D01*
X398547Y207893D01*
Y213420D01*
X398745Y213502D01*
X399047Y213585D01*
X399755Y213177D01*
X400591Y212953D01*
X401456D01*
X402292Y213177D01*
X403042Y213610D01*
X403654Y214222D01*
X403814Y214498D01*
X405524D01*
X405985Y214590D01*
X406739Y213836D01*
X407165Y213551D01*
X407667Y213451D01*
X412500D01*
X413002Y213551D01*
X413428Y213836D01*
X426678Y227086D01*
X427140Y226894D01*
Y218389D01*
X426993Y218304D01*
X426381Y217692D01*
X425948Y216942D01*
X425724Y216106D01*
Y215241D01*
X425948Y214404D01*
X426381Y213655D01*
X426993Y213043D01*
X427743Y212610D01*
X428579Y212386D01*
X429445D01*
X430281Y212610D01*
X431030Y213043D01*
X431642Y213655D01*
X432075Y214404D01*
X432299Y215241D01*
Y216106D01*
X432075Y216942D01*
X431642Y217692D01*
X431030Y218304D01*
X430281Y218737D01*
X429765Y218875D01*
Y228552D01*
X430227Y228743D01*
X434227Y224744D01*
X434016Y223956D01*
Y223091D01*
X434240Y222255D01*
X434673Y221505D01*
X435285Y220893D01*
X436034Y220460D01*
X436870Y220236D01*
X437736D01*
X438572Y220460D01*
X439279Y220869D01*
X439582Y220785D01*
X439779Y220703D01*
Y218317D01*
X432483Y211021D01*
X432042Y210445D01*
X431764Y209774D01*
X431669Y209055D01*
Y195521D01*
X429673Y193526D01*
Y189094D01*
Y185108D01*
X430158D01*
X431189Y185243D01*
X432151Y185642D01*
X432977Y186275D01*
X433007Y186315D01*
X435339D01*
X435370Y186275D01*
X436196Y185642D01*
X437157Y185243D01*
X438189Y185108D01*
X438673D01*
Y189094D01*
Y193081D01*
X438189D01*
X437396Y192977D01*
X437033Y193407D01*
X437033Y193407D01*
X437134Y193651D01*
X437228Y194370D01*
Y207904D01*
X444525Y215200D01*
X444966Y215775D01*
X445244Y216446D01*
X445339Y217165D01*
Y226437D01*
X445244Y227156D01*
X444966Y227827D01*
X444525Y228402D01*
X442615Y230312D01*
X442039Y230754D01*
X441369Y231031D01*
X440650Y231126D01*
X439930Y231031D01*
X439853Y230999D01*
X439166Y231686D01*
X438740Y231971D01*
X438516Y232015D01*
X438351Y232558D01*
X439914Y234120D01*
X443320D01*
X443728Y233415D01*
X444340Y232803D01*
X445089Y232370D01*
X445926Y232146D01*
X446791D01*
X447627Y232370D01*
X448377Y232803D01*
X448989Y233415D01*
X449422Y234164D01*
X449646Y235000D01*
Y235866D01*
X449422Y236702D01*
X448989Y237452D01*
X448377Y238064D01*
X447627Y238496D01*
X446791Y238720D01*
X445926D01*
X445089Y238496D01*
X444340Y238064D01*
X443728Y237452D01*
X443320Y236746D01*
X439370D01*
X438868Y236646D01*
X438442Y236361D01*
X436640Y234560D01*
X436124D01*
X435802Y234882D01*
X435827Y235382D01*
X435827D01*
Y243640D01*
X436002Y243820D01*
X436183Y243996D01*
X444441D01*
X444863Y243808D01*
X450694Y237978D01*
X450662Y237900D01*
X450567Y237181D01*
Y219882D01*
X450662Y219162D01*
X450939Y218492D01*
X451381Y217916D01*
X456696Y212601D01*
X457272Y212159D01*
X457942Y211882D01*
X458662Y211787D01*
X474015D01*
Y210826D01*
X480708D01*
Y218307D01*
X474015D01*
Y217346D01*
X459813D01*
X456126Y221033D01*
Y237181D01*
X456031Y237900D01*
X455754Y238571D01*
X455312Y239147D01*
X454736Y239588D01*
X454066Y239866D01*
X453346Y239961D01*
X452627Y239866D01*
X452550Y239834D01*
X446082Y246302D01*
X445656Y246587D01*
X445154Y246687D01*
X444441D01*
Y249967D01*
X445913D01*
X459433Y236447D01*
X459240Y236111D01*
X459016Y235275D01*
Y234410D01*
X459240Y233574D01*
X459673Y232824D01*
X460285Y232212D01*
X461034Y231779D01*
X461870Y231555D01*
X462736D01*
X463572Y231779D01*
X464322Y232212D01*
X464934Y232824D01*
X465367Y233574D01*
X465590Y234410D01*
Y235275D01*
X465367Y236111D01*
X464934Y236861D01*
X464322Y237473D01*
X463572Y237906D01*
X462736Y238130D01*
X461870D01*
X461549Y238044D01*
X458847Y240745D01*
X459039Y241207D01*
X460348D01*
X460755Y240501D01*
X461367Y239889D01*
X462117Y239456D01*
X462953Y239232D01*
X463819D01*
X464655Y239456D01*
X465404Y239889D01*
X466016Y240501D01*
X466449Y241251D01*
X466673Y242087D01*
Y242952D01*
X466449Y243789D01*
X466016Y244538D01*
X465404Y245150D01*
X464655Y245583D01*
X463819Y245807D01*
X462953D01*
X462117Y245583D01*
X461367Y245150D01*
X460755Y244538D01*
X460348Y243832D01*
X458288D01*
X454323Y247798D01*
X454530Y248298D01*
X457474D01*
X457977Y248397D01*
X458402Y248682D01*
X461952Y252231D01*
X462236Y252657D01*
X462336Y253160D01*
Y255262D01*
X462531Y255288D01*
X463201Y255565D01*
X463777Y256007D01*
X465817Y258047D01*
X579259D01*
X579485Y257821D01*
X580342Y257327D01*
X581297Y257071D01*
X582286D01*
X583241Y257327D01*
X583844Y257675D01*
X584151Y257275D01*
X581616Y254740D01*
X581297D01*
X580342Y254484D01*
X579485Y253990D01*
X578786Y253290D01*
X578291Y252434D01*
X578035Y251479D01*
Y250490D01*
X578291Y249535D01*
X578786Y248678D01*
X579012Y248452D01*
Y138750D01*
X566172Y125910D01*
X543083D01*
X542983Y126410D01*
X543036Y126431D01*
X543612Y126873D01*
X545918Y129179D01*
X546360Y129755D01*
X546637Y130425D01*
X546732Y131145D01*
Y135111D01*
X547240D01*
Y141685D01*
X546732D01*
Y180863D01*
X546637Y181582D01*
X546360Y182253D01*
X545918Y182829D01*
X543508Y185238D01*
X542933Y185680D01*
X542262Y185957D01*
X541543Y186052D01*
X518374D01*
Y186422D01*
X518004D01*
Y211303D01*
X518374D01*
Y217602D01*
X518004D01*
Y242482D01*
X518374D01*
Y244850D01*
X523707Y250184D01*
X524173Y250059D01*
X525039D01*
X525875Y250283D01*
X526625Y250716D01*
X527237Y251328D01*
X527670Y252078D01*
X527894Y252914D01*
Y253779D01*
X527670Y254615D01*
X527237Y255365D01*
X526625Y255977D01*
X525875Y256410D01*
X525039Y256634D01*
X524173D01*
X523337Y256410D01*
X522588Y255977D01*
X522503Y255892D01*
X522016Y255828D01*
X521346Y255550D01*
X520770Y255109D01*
X514443Y248781D01*
X512075D01*
Y242482D01*
X512445D01*
Y217602D01*
X512075D01*
Y211303D01*
X512445D01*
Y186422D01*
X512075D01*
Y180123D01*
X518374D01*
Y180493D01*
X540392D01*
X541173Y179712D01*
Y141685D01*
X540665D01*
Y135111D01*
X541173D01*
Y132296D01*
X540495Y131618D01*
X524684D01*
Y135111D01*
X525191D01*
Y141685D01*
X518617D01*
Y135111D01*
X519124D01*
Y131618D01*
X504505D01*
Y135111D01*
X505013D01*
Y141685D01*
X498439D01*
Y135111D01*
X498946D01*
Y131618D01*
X485005D01*
X484327Y132296D01*
Y135111D01*
X484835D01*
Y141685D01*
X478260D01*
Y135111D01*
X478768D01*
Y131145D01*
X478863Y130425D01*
X479140Y129755D01*
X479582Y129179D01*
X481888Y126873D01*
X482464Y126431D01*
X482516Y126410D01*
X482417Y125910D01*
X203076D01*
X160949Y168036D01*
Y326554D01*
X161627Y327232D01*
X179638D01*
X179725Y327080D01*
X180614Y326191D01*
X181543Y325655D01*
X181409Y325155D01*
X178559D01*
Y320669D01*
X183545D01*
Y320169D01*
X184045D01*
Y315182D01*
X188531D01*
Y319407D01*
X189229D01*
X189949Y319501D01*
X190619Y319779D01*
X191195Y320221D01*
X193501Y322527D01*
X193943Y323103D01*
X194220Y323773D01*
X194315Y324493D01*
Y340846D01*
X194220Y341566D01*
X193943Y342236D01*
X193501Y342812D01*
X187989Y348324D01*
X187414Y348765D01*
X186743Y349043D01*
X186024Y349138D01*
X175856D01*
X156674Y368320D01*
Y369279D01*
X157352Y369956D01*
X180001D01*
X180164Y369675D01*
X181092Y368746D01*
X182095Y368167D01*
X181961Y367667D01*
X179380D01*
Y358120D01*
X188927D01*
Y360114D01*
X221295D01*
Y352697D01*
X221390Y351977D01*
X221668Y351307D01*
X222109Y350731D01*
X225298Y347542D01*
X225874Y347101D01*
X226544Y346823D01*
X227264Y346728D01*
X280741D01*
Y308901D01*
X280836Y308181D01*
X281113Y307511D01*
X281555Y306935D01*
X291440Y297050D01*
X292016Y296608D01*
X292686Y296331D01*
X293406Y296236D01*
X347694D01*
X348413Y296331D01*
X349084Y296608D01*
X349659Y297050D01*
X351965Y299357D01*
X352407Y299932D01*
X352685Y300603D01*
X352780Y301322D01*
Y339248D01*
X422752D01*
X423471Y339343D01*
X424142Y339620D01*
X424718Y340062D01*
X443474Y358819D01*
X452496D01*
Y367953D01*
X435724D01*
Y358931D01*
X421601Y344807D01*
X349183D01*
X346874Y347116D01*
Y379823D01*
X346779Y380542D01*
X346502Y381213D01*
X346060Y381788D01*
X345484Y382230D01*
X344814Y382508D01*
X344094Y382603D01*
X343375Y382508D01*
X342705Y382230D01*
X342129Y381788D01*
X340955Y380614D01*
X330827D01*
X330646Y380591D01*
X328071D01*
Y378145D01*
X328027Y377815D01*
Y372342D01*
X328071Y372012D01*
Y364094D01*
X333543D01*
Y372012D01*
X333587Y372342D01*
Y375055D01*
X341315D01*
Y345965D01*
X341409Y345245D01*
X341687Y344575D01*
X342129Y343999D01*
X346066Y340062D01*
X346642Y339620D01*
X347220Y339381D01*
Y302473D01*
X346542Y301795D01*
X294557D01*
X286300Y310052D01*
Y315871D01*
X286800Y316041D01*
X287060Y315702D01*
X293704Y309058D01*
X294280Y308616D01*
X294723Y308433D01*
X298920Y304235D01*
X299496Y303794D01*
X300166Y303516D01*
X300886Y303421D01*
X336822D01*
X337314Y303137D01*
X338150Y302913D01*
X339016D01*
X339852Y303137D01*
X340601Y303570D01*
X341213Y304182D01*
X341646Y304932D01*
X341870Y305768D01*
Y306634D01*
X341646Y307470D01*
X341213Y308219D01*
X340601Y308831D01*
X339852Y309264D01*
X339016Y309488D01*
X338150D01*
X337314Y309264D01*
X336822Y308980D01*
X302037D01*
X298028Y312989D01*
X298004Y313008D01*
X298174Y313508D01*
X316921D01*
Y329520D01*
X295083D01*
Y316195D01*
X294621Y316003D01*
X291805Y318819D01*
Y359006D01*
X291711Y359725D01*
X291433Y360396D01*
X290991Y360971D01*
X285138Y366825D01*
Y385728D01*
X272146D01*
Y362894D01*
X281207D01*
X286246Y357854D01*
Y351304D01*
X285746Y351135D01*
X285486Y351473D01*
X284910Y351915D01*
X284240Y352193D01*
X283521Y352288D01*
X228415D01*
X226854Y353848D01*
Y365200D01*
Y374035D01*
X226760Y374755D01*
X226714Y374866D01*
Y376340D01*
X226631Y376754D01*
X226397Y377105D01*
X226045Y377340D01*
X225631Y377422D01*
X222519D01*
X222104Y377340D01*
X221753Y377105D01*
X221518Y376754D01*
X221436Y376340D01*
Y374866D01*
X221390Y374755D01*
X221295Y374035D01*
Y366351D01*
X220617Y365673D01*
X188927D01*
Y367667D01*
X186346D01*
X186212Y368167D01*
X187215Y368746D01*
X188144Y369675D01*
X188704Y370645D01*
X203818D01*
X203990Y370531D01*
X204487Y370432D01*
X205543D01*
Y374035D01*
Y377639D01*
X204487D01*
X203990Y377540D01*
X203568Y377258D01*
X203287Y376837D01*
X203188Y376340D01*
Y376205D01*
X187736D01*
X187215Y376726D01*
X186933Y376889D01*
Y397864D01*
X190817Y401748D01*
X206004D01*
X206723Y401843D01*
X207394Y402120D01*
X207422Y402142D01*
X207871Y401921D01*
Y398182D01*
X207962Y397724D01*
X208221Y397336D01*
X208610Y397076D01*
X209068Y396985D01*
X221050D01*
X221508Y397076D01*
X221897Y397336D01*
X222156Y397724D01*
X222247Y398182D01*
Y402566D01*
X222156Y403024D01*
X221897Y403412D01*
X221508Y403672D01*
X221050Y403763D01*
X209824D01*
X209632Y404225D01*
X210502Y405094D01*
X229955D01*
X230162Y404594D01*
X229751Y404184D01*
X229318Y403434D01*
X229095Y402598D01*
Y401733D01*
X229318Y400897D01*
X229751Y400147D01*
X230363Y399535D01*
X231113Y399102D01*
X231661Y398955D01*
X241440Y389176D01*
X242016Y388735D01*
X242686Y388457D01*
X243406Y388362D01*
X255037D01*
X255229Y387900D01*
X253081Y385752D01*
X244193D01*
X244012Y385728D01*
X233957D01*
Y362894D01*
X246949D01*
Y380193D01*
X254232D01*
X254952Y380288D01*
X255622Y380565D01*
X256198Y381007D01*
X264367Y389176D01*
X264809Y389752D01*
X265087Y390422D01*
X265181Y391142D01*
X265087Y391861D01*
X264809Y392532D01*
X264367Y393107D01*
X263791Y393549D01*
X263121Y393827D01*
X262402Y393921D01*
X244557D01*
X235592Y402886D01*
X235445Y403434D01*
X235013Y404184D01*
X234602Y404594D01*
X234809Y405094D01*
X252126D01*
X258222Y398999D01*
D02*
G37*
G36*
X423928Y265253D02*
X421070Y262395D01*
X420785Y261969D01*
X420685Y261467D01*
X420785Y260964D01*
X421070Y260538D01*
X423636Y257972D01*
X420224Y254561D01*
X411283D01*
Y254839D01*
X411071D01*
Y257776D01*
Y261713D01*
Y265715D01*
X423737D01*
X423928Y265253D01*
D02*
G37*
G36*
X394098Y251268D02*
X394183Y250697D01*
X391945Y248458D01*
X389742D01*
X389710Y248535D01*
X389269Y249111D01*
X388693Y249553D01*
X388023Y249831D01*
X387303Y249925D01*
X386584Y249831D01*
X385913Y249553D01*
X385338Y249111D01*
X381755Y245529D01*
X381313Y244953D01*
X381035Y244282D01*
X380941Y243563D01*
Y238768D01*
X380977Y238490D01*
X380648Y238114D01*
X375098D01*
X374379Y238020D01*
X373709Y237742D01*
X373133Y237300D01*
X362667Y226834D01*
X362205Y227025D01*
Y236295D01*
X369488D01*
X370208Y236390D01*
X370878Y236667D01*
X371454Y237109D01*
X385691Y251346D01*
X393110D01*
X393830Y251441D01*
X394098Y251268D01*
D02*
G37*
G36*
X435961Y263469D02*
X436173D01*
Y259744D01*
Y255807D01*
Y251870D01*
Y247933D01*
Y244006D01*
X435997Y243825D01*
X435817Y243650D01*
X434071D01*
Y243862D01*
X433793D01*
Y250984D01*
X433693Y251487D01*
X433408Y251912D01*
X426420Y258901D01*
X426420Y258901D01*
X423854Y261467D01*
X426134Y263746D01*
X435961D01*
Y263469D01*
D02*
G37*
G36*
X431168Y250441D02*
Y243862D01*
X430890D01*
Y243650D01*
X411427D01*
X411247Y243825D01*
X411071Y244006D01*
Y247933D01*
Y251658D01*
X411283D01*
Y251935D01*
X420768D01*
X421270Y252035D01*
X421696Y252320D01*
X425492Y256116D01*
X431168Y250441D01*
D02*
G37*
G36*
X402803Y248514D02*
X402555Y248465D01*
X402129Y248180D01*
X401375Y247426D01*
X401090Y247000D01*
X400990Y246498D01*
Y239288D01*
X400540Y239028D01*
X399928Y238416D01*
X399496Y237667D01*
X399272Y236830D01*
Y235965D01*
X399486Y235164D01*
X399463Y235120D01*
X398978Y234965D01*
X397332Y236611D01*
X396756Y237053D01*
X396086Y237331D01*
X395366Y237425D01*
X390718D01*
X390631Y237527D01*
X390741Y238168D01*
X390995Y238314D01*
X391607Y238926D01*
X392040Y239676D01*
X392264Y240512D01*
Y241378D01*
X392053Y242165D01*
X399855Y249967D01*
X402803D01*
Y248514D01*
D02*
G37*
G36*
X411242Y243820D02*
X411417Y243640D01*
Y235382D01*
X411909D01*
X412101Y234920D01*
X410460Y233279D01*
X408541D01*
X408039Y233179D01*
X407613Y232894D01*
X405619Y230900D01*
X405452Y230945D01*
X404587D01*
X403751Y230721D01*
X403001Y230288D01*
X402768Y230055D01*
X402268Y230262D01*
Y230523D01*
X402173Y231243D01*
X401896Y231913D01*
X401454Y232489D01*
X401126Y232817D01*
X401281Y233302D01*
X401325Y233325D01*
X402126Y233110D01*
X402992D01*
X403828Y233334D01*
X404577Y233767D01*
X405190Y234379D01*
X405622Y235129D01*
X405846Y235965D01*
Y236830D01*
X405622Y237667D01*
X405190Y238416D01*
X404577Y239028D01*
X403828Y239461D01*
X403616Y239518D01*
Y243996D01*
X411061D01*
X411242Y243820D01*
D02*
G37*
G36*
X386453Y232238D02*
X387123Y231961D01*
X387843Y231866D01*
X392491D01*
X392578Y231765D01*
X392468Y231124D01*
X392214Y230977D01*
X391602Y230365D01*
X391169Y229615D01*
X391022Y229067D01*
X389538Y227583D01*
X377854D01*
X377135Y227488D01*
X376465Y227210D01*
X375889Y226769D01*
X375128Y226008D01*
X370410D01*
X370343Y226085D01*
X370182Y226487D01*
X376250Y232555D01*
X386040D01*
X386453Y232238D01*
D02*
G37*
G36*
X355906Y226287D02*
X360946D01*
X361214Y225787D01*
X361164Y225713D01*
X322528D01*
X322296Y226113D01*
X321684Y226726D01*
X320935Y227158D01*
X320099Y227382D01*
X319729D01*
X319522Y227882D01*
X319922Y228283D01*
X325452D01*
X325633Y228307D01*
X329271D01*
Y228815D01*
X338582D01*
X339302Y228909D01*
X339972Y229187D01*
X340548Y229629D01*
X347214Y236295D01*
X355906D01*
Y226287D01*
D02*
G37*
G36*
X395172Y225131D02*
X395547Y224778D01*
Y223395D01*
X393802Y221651D01*
X393360Y221075D01*
X393083Y220405D01*
X392988Y219685D01*
Y218963D01*
X392488Y218756D01*
X392078Y219166D01*
X391328Y219599D01*
X390492Y219823D01*
X390415D01*
X390064Y220174D01*
X389488Y220616D01*
X388818Y220894D01*
X388098Y220988D01*
X378678D01*
X378471Y221488D01*
X379006Y222024D01*
X390689D01*
X391408Y222118D01*
X392079Y222396D01*
X392654Y222838D01*
X394953Y225136D01*
X395063Y225166D01*
X395172Y225131D01*
D02*
G37*
G36*
X425262Y229382D02*
X411956Y216076D01*
X408211D01*
X407650Y216637D01*
X407799Y217195D01*
X407863Y217212D01*
X408613Y217645D01*
X409225Y218257D01*
X409658Y219007D01*
X409882Y219843D01*
Y220708D01*
X409658Y221545D01*
X409646Y221566D01*
X410303Y222224D01*
X410588Y222650D01*
X410688Y223152D01*
Y225506D01*
X411934Y226753D01*
X415073D01*
X415576Y226853D01*
X416001Y227137D01*
X417661Y228796D01*
X417945Y229222D01*
X418045Y229724D01*
Y235382D01*
X425262D01*
Y229382D01*
D02*
G37*
%LPC*%
G36*
X529224Y390445D02*
X524590D01*
Y386795D01*
X529224D01*
Y390445D01*
D02*
G37*
G36*
X483661Y397960D02*
X482839Y397852D01*
X482073Y397535D01*
X481415Y397030D01*
X480910Y396372D01*
X480593Y395606D01*
X480485Y394783D01*
Y389665D01*
X480593Y388843D01*
X480910Y388077D01*
X481415Y387419D01*
X482073Y386914D01*
X482839Y386597D01*
X483661Y386489D01*
X484484Y386597D01*
X485250Y386914D01*
X485908Y387419D01*
X486413Y388077D01*
X486730Y388843D01*
X486838Y389665D01*
Y394783D01*
X486730Y395606D01*
X486413Y396372D01*
X485908Y397030D01*
X485250Y397535D01*
X484484Y397852D01*
X483661Y397960D01*
D02*
G37*
G36*
X473661D02*
X472839Y397852D01*
X472073Y397535D01*
X471415Y397030D01*
X470910Y396372D01*
X470593Y395606D01*
X470485Y394783D01*
Y389665D01*
X470593Y388843D01*
X470910Y388077D01*
X471415Y387419D01*
X472073Y386914D01*
X472839Y386597D01*
X473661Y386489D01*
X474484Y386597D01*
X475250Y386914D01*
X475908Y387419D01*
X476413Y388077D01*
X476730Y388843D01*
X476838Y389665D01*
Y394783D01*
X476730Y395606D01*
X476413Y396372D01*
X475908Y397030D01*
X475250Y397535D01*
X474484Y397852D01*
X473661Y397960D01*
D02*
G37*
G36*
X499842Y377697D02*
X498977D01*
X498141Y377473D01*
X497507Y377107D01*
X497410Y377094D01*
X496740Y376817D01*
X496164Y376375D01*
X481391Y361602D01*
X480949Y361026D01*
X480672Y360355D01*
X480577Y359636D01*
Y354114D01*
X480010D01*
Y346633D01*
X486703D01*
Y354114D01*
X486136D01*
Y358485D01*
X498816Y371165D01*
X498977Y371122D01*
X499842D01*
X500678Y371346D01*
X501428Y371779D01*
X502040Y372391D01*
X502473Y373141D01*
X502697Y373977D01*
Y374842D01*
X502473Y375678D01*
X502040Y376428D01*
X501428Y377040D01*
X500678Y377473D01*
X499842Y377697D01*
D02*
G37*
G36*
X504370Y370610D02*
X503504D01*
X502668Y370386D01*
X501919Y369953D01*
X501306Y369341D01*
X500874Y368592D01*
X500650Y367756D01*
Y366890D01*
X500874Y366054D01*
X501157Y365563D01*
Y358974D01*
X501149Y358909D01*
Y354114D01*
X499991D01*
Y346633D01*
X506684D01*
Y350783D01*
X506708Y350964D01*
Y358852D01*
X506717Y358917D01*
Y365563D01*
X507000Y366054D01*
X507224Y366890D01*
Y367756D01*
X507000Y368592D01*
X506568Y369341D01*
X505956Y369953D01*
X505206Y370386D01*
X504370Y370610D01*
D02*
G37*
G36*
X495216Y364409D02*
X494351D01*
X493515Y364185D01*
X492765Y363753D01*
X492153Y363141D01*
X491720Y362391D01*
X491496Y361555D01*
Y360689D01*
X491720Y359853D01*
X492153Y359103D01*
X492765Y358491D01*
X493078Y358311D01*
Y354114D01*
X492511D01*
Y346633D01*
X499204D01*
Y354114D01*
X498637D01*
Y359760D01*
X498542Y360480D01*
X498265Y361150D01*
X498071Y361403D01*
Y361555D01*
X497847Y362391D01*
X497414Y363141D01*
X496802Y363753D01*
X496052Y364185D01*
X495216Y364409D01*
D02*
G37*
G36*
X575327Y337106D02*
X574083D01*
X572881Y336784D01*
X571804Y336162D01*
X570924Y335283D01*
X570302Y334206D01*
X569980Y333004D01*
Y331760D01*
X570302Y330558D01*
X570924Y329481D01*
X571804Y328601D01*
X572881Y327979D01*
X574083Y327658D01*
X575327D01*
X576528Y327979D01*
X577606Y328601D01*
X578485Y329481D01*
X579107Y330558D01*
X579429Y331760D01*
Y333004D01*
X579107Y334206D01*
X578485Y335283D01*
X577606Y336162D01*
X576528Y336784D01*
X575327Y337106D01*
D02*
G37*
G36*
X549411Y323760D02*
X548581D01*
X547780Y323545D01*
X547062Y323130D01*
X546476Y322544D01*
X546061Y321826D01*
X545847Y321025D01*
Y320196D01*
X546061Y319394D01*
X546476Y318676D01*
X547062Y318090D01*
X547780Y317675D01*
X548581Y317461D01*
X549411D01*
X550212Y317675D01*
X550930Y318090D01*
X551516Y318676D01*
X551931Y319394D01*
X552146Y320196D01*
Y321025D01*
X551931Y321826D01*
X551516Y322544D01*
X550930Y323130D01*
X550212Y323545D01*
X549411Y323760D01*
D02*
G37*
G36*
X539411D02*
X538581D01*
X537780Y323545D01*
X537062Y323130D01*
X536476Y322544D01*
X536061Y321826D01*
X535847Y321025D01*
Y320196D01*
X536061Y319394D01*
X536476Y318676D01*
X537062Y318090D01*
X537780Y317675D01*
X538581Y317461D01*
X539411D01*
X540212Y317675D01*
X540930Y318090D01*
X541516Y318676D01*
X541931Y319394D01*
X542146Y320196D01*
Y321025D01*
X541931Y321826D01*
X541516Y322544D01*
X540930Y323130D01*
X540212Y323545D01*
X539411Y323760D01*
D02*
G37*
G36*
X475827Y373366D02*
X474961D01*
X474125Y373142D01*
X473375Y372709D01*
X472763Y372097D01*
X472330Y371348D01*
X472106Y370512D01*
Y369646D01*
X472330Y368810D01*
X472763Y368060D01*
X473097Y367727D01*
Y354114D01*
X472530D01*
Y346633D01*
X473687D01*
Y345384D01*
X473782Y344664D01*
X474060Y343994D01*
X474501Y343418D01*
X489543Y328376D01*
Y295045D01*
X489044Y294838D01*
X488731Y295150D01*
X487982Y295583D01*
X487145Y295807D01*
X486280D01*
X485444Y295583D01*
X484694Y295150D01*
X484082Y294538D01*
X483649Y293789D01*
X483425Y292952D01*
Y292179D01*
X481306Y290059D01*
X478544D01*
Y282579D01*
X485237D01*
Y286128D01*
X488475Y289367D01*
X488916Y289942D01*
X489044Y289961D01*
X489543Y289529D01*
Y283701D01*
X489638Y282982D01*
X489916Y282312D01*
X490358Y281736D01*
X490626Y281468D01*
Y275579D01*
X490342Y275088D01*
X490118Y274252D01*
Y273386D01*
X490342Y272550D01*
X490775Y271800D01*
X491387Y271188D01*
X492137Y270756D01*
X492973Y270532D01*
X493838D01*
X494674Y270756D01*
X495424Y271188D01*
X496036Y271800D01*
X496469Y272550D01*
X496693Y273386D01*
Y274252D01*
X496469Y275088D01*
X496185Y275579D01*
Y282619D01*
X496091Y283338D01*
X496001Y283555D01*
X496335Y284055D01*
X500985D01*
Y291536D01*
X495103D01*
Y310138D01*
X501378D01*
Y314288D01*
X501402Y314469D01*
Y315071D01*
X501680Y315319D01*
X502166Y315138D01*
Y310138D01*
X508859D01*
Y313687D01*
X510812Y315641D01*
X511254Y316216D01*
X511531Y316887D01*
X511626Y317606D01*
Y318749D01*
X511882Y319005D01*
X512315Y319755D01*
X512539Y320591D01*
Y321456D01*
X512315Y322292D01*
X511882Y323042D01*
X511271Y323654D01*
X510521Y324087D01*
X509685Y324311D01*
X508819D01*
X507983Y324087D01*
X507233Y323654D01*
X506621Y323042D01*
X506189Y322292D01*
X505965Y321456D01*
Y320591D01*
X506067Y320210D01*
Y318758D01*
X504927Y317618D01*
X502288D01*
Y323101D01*
X502352Y323118D01*
X503101Y323551D01*
X503713Y324163D01*
X504146Y324912D01*
X504370Y325748D01*
Y326614D01*
X504146Y327450D01*
X503713Y328200D01*
X503101Y328812D01*
X502352Y329244D01*
X501515Y329468D01*
X500650D01*
X499814Y329244D01*
X499064Y328812D01*
X498452Y328200D01*
X498019Y327450D01*
X497795Y326614D01*
Y326537D01*
X497542Y326284D01*
X497101Y325709D01*
X496823Y325038D01*
X496728Y324319D01*
Y318320D01*
X496657Y318249D01*
X496215Y317673D01*
X496193Y317618D01*
X495103D01*
Y329527D01*
X495008Y330247D01*
X494730Y330917D01*
X494289Y331493D01*
X479247Y346535D01*
Y349783D01*
X479223Y349964D01*
Y354114D01*
X478656D01*
Y369308D01*
X478635Y369472D01*
X478681Y369646D01*
Y370512D01*
X478457Y371348D01*
X478024Y372097D01*
X477412Y372709D01*
X476663Y373142D01*
X475827Y373366D01*
D02*
G37*
G36*
X523811Y312840D02*
X522960Y312612D01*
X522162Y312151D01*
X521510Y311499D01*
X521049Y310701D01*
X520822Y309850D01*
X523811D01*
Y312840D01*
D02*
G37*
G36*
Y308850D02*
X520822D01*
X521049Y307999D01*
X521510Y307201D01*
X522162Y306550D01*
X522960Y306089D01*
X523811Y305861D01*
Y308850D01*
D02*
G37*
G36*
X489021Y307571D02*
X486031D01*
Y304581D01*
X486882Y304809D01*
X487681Y305270D01*
X488332Y305922D01*
X488793Y306720D01*
X489021Y307571D01*
D02*
G37*
G36*
X475787Y313090D02*
X470276D01*
Y309728D01*
X470252Y309547D01*
Y308760D01*
X470276Y308579D01*
Y306004D01*
X471751D01*
X471760Y305930D01*
X472038Y305259D01*
X472480Y304684D01*
X476929Y300235D01*
Y300158D01*
X477153Y299322D01*
X477586Y298572D01*
X478198Y297960D01*
X478948Y297527D01*
X479784Y297303D01*
X480649D01*
X481485Y297527D01*
X482235Y297960D01*
X482847Y298572D01*
X483280Y299322D01*
X483504Y300158D01*
Y301023D01*
X483280Y301859D01*
X482847Y302609D01*
X482235Y303221D01*
X481485Y303654D01*
X481330Y303696D01*
X479696Y305329D01*
X479888Y305791D01*
X480012D01*
Y309047D01*
X477543D01*
Y308375D01*
X477043Y308276D01*
X476853Y308736D01*
X476411Y309312D01*
X475787Y309935D01*
Y313090D01*
D02*
G37*
G36*
X552343Y290110D02*
X549496D01*
Y287263D01*
X550294Y287477D01*
X551060Y287920D01*
X551686Y288546D01*
X552129Y289313D01*
X552343Y290110D01*
D02*
G37*
G36*
X524811Y312840D02*
Y309350D01*
Y305861D01*
X525662Y306089D01*
X526144Y306367D01*
X529308D01*
X541454Y294222D01*
X541262Y293760D01*
X535847D01*
Y287461D01*
X542146D01*
Y292876D01*
X542608Y293068D01*
X545680Y289995D01*
X545863Y289313D01*
X546306Y288546D01*
X546932Y287920D01*
X547698Y287477D01*
X548496Y287263D01*
Y290610D01*
X548996D01*
Y291110D01*
X552343D01*
X552129Y291908D01*
X551686Y292675D01*
X551060Y293301D01*
X550294Y293743D01*
X549611Y293926D01*
X532425Y311112D01*
X531849Y311554D01*
X531179Y311832D01*
X530459Y311927D01*
X526685D01*
X526460Y312151D01*
X525662Y312612D01*
X524811Y312840D01*
D02*
G37*
G36*
X508465Y291536D02*
X501772D01*
Y284055D01*
X508465D01*
Y291536D01*
D02*
G37*
G36*
X585760Y284480D02*
X582291D01*
Y281012D01*
X585760D01*
Y284480D01*
D02*
G37*
G36*
X581291D02*
X577823D01*
Y281012D01*
X581291D01*
Y284480D01*
D02*
G37*
G36*
X585760Y280012D02*
X582291D01*
Y276543D01*
X585760D01*
Y280012D01*
D02*
G37*
G36*
X581291D02*
X577823D01*
Y276543D01*
X581291D01*
Y280012D01*
D02*
G37*
G36*
X582286Y274425D02*
X581297D01*
X580342Y274169D01*
X579485Y273675D01*
X578786Y272975D01*
X578291Y272119D01*
X578035Y271164D01*
Y270175D01*
X578291Y269220D01*
X578786Y268363D01*
X579485Y267664D01*
X580342Y267169D01*
X581297Y266913D01*
X582286D01*
X583241Y267169D01*
X584097Y267664D01*
X584797Y268363D01*
X585291Y269220D01*
X585547Y270175D01*
Y271164D01*
X585291Y272119D01*
X584797Y272975D01*
X584097Y273675D01*
X583241Y274169D01*
X582286Y274425D01*
D02*
G37*
G36*
X159810Y141929D02*
X158104D01*
X156430Y141596D01*
X154854Y140943D01*
X153435Y139996D01*
X152229Y138789D01*
X151281Y137370D01*
X150628Y135794D01*
X150295Y134121D01*
Y132415D01*
X150628Y130741D01*
X151281Y129165D01*
X152229Y127746D01*
X153435Y126540D01*
X154854Y125592D01*
X156430Y124939D01*
X158104Y124606D01*
X159810D01*
X161483Y124939D01*
X163059Y125592D01*
X164478Y126540D01*
X165684Y127746D01*
X166632Y129165D01*
X167285Y130741D01*
X167618Y132415D01*
Y134121D01*
X167285Y135794D01*
X166632Y137370D01*
X165684Y138789D01*
X164478Y139996D01*
X163059Y140943D01*
X161483Y141596D01*
X159810Y141929D01*
D02*
G37*
G36*
X561630Y405232D02*
X557390D01*
Y400992D01*
X561630D01*
Y405232D01*
D02*
G37*
G36*
X607054Y408071D02*
X605348D01*
X603674Y407738D01*
X602098Y407085D01*
X600679Y406137D01*
X599473Y404931D01*
X598525Y403512D01*
X597872Y401936D01*
X597539Y400262D01*
Y398556D01*
X597872Y396883D01*
X598525Y395307D01*
X599473Y393888D01*
X600679Y392682D01*
X602098Y391734D01*
X603674Y391081D01*
X605348Y390748D01*
X607054D01*
X608727Y391081D01*
X610303Y391734D01*
X611722Y392682D01*
X612928Y393888D01*
X613876Y395307D01*
X614529Y396883D01*
X614862Y398556D01*
Y400262D01*
X614529Y401936D01*
X613876Y403512D01*
X612928Y404931D01*
X611722Y406137D01*
X610303Y407085D01*
X608727Y407738D01*
X607054Y408071D01*
D02*
G37*
G36*
X559268Y390445D02*
X554634D01*
Y386795D01*
X559268D01*
Y390445D01*
D02*
G37*
G36*
X607054Y141929D02*
X605348D01*
X603674Y141596D01*
X602098Y140943D01*
X600679Y139996D01*
X599473Y138789D01*
X598525Y137370D01*
X597872Y135794D01*
X597539Y134121D01*
Y132415D01*
X597872Y130741D01*
X598525Y129165D01*
X599473Y127746D01*
X600679Y126540D01*
X602098Y125592D01*
X603674Y124939D01*
X605348Y124606D01*
X607054D01*
X608727Y124939D01*
X610303Y125592D01*
X611722Y126540D01*
X612928Y127746D01*
X613876Y129165D01*
X614529Y130741D01*
X614862Y132415D01*
Y134121D01*
X614529Y135794D01*
X613876Y137370D01*
X612928Y138789D01*
X611722Y139996D01*
X610303Y140943D01*
X608727Y141596D01*
X607054Y141929D01*
D02*
G37*
G36*
X320370Y380803D02*
X317921D01*
Y372843D01*
X320370D01*
Y380803D01*
D02*
G37*
G36*
X316921D02*
X314472D01*
Y372843D01*
X316921D01*
Y380803D01*
D02*
G37*
G36*
X196102Y401221D02*
X195237D01*
X194400Y400996D01*
X193651Y400564D01*
X193039Y399952D01*
X192606Y399202D01*
X192382Y398366D01*
Y397500D01*
X192606Y396664D01*
X193039Y395915D01*
X193093Y395860D01*
Y393694D01*
X193188Y392975D01*
X193465Y392304D01*
X193907Y391729D01*
X207497Y378139D01*
X207290Y377639D01*
X206543D01*
Y374535D01*
X208899D01*
Y376030D01*
X209399Y376237D01*
X212412Y373223D01*
X212420Y373205D01*
Y371731D01*
X212503Y371317D01*
X212737Y370966D01*
X213089Y370731D01*
X213503Y370649D01*
X216615D01*
X217030Y370731D01*
X217381Y370966D01*
X217616Y371317D01*
X217698Y371731D01*
Y373205D01*
X217744Y373316D01*
X217839Y374035D01*
Y374508D01*
X217744Y375227D01*
X217698Y375338D01*
Y376340D01*
X217616Y376754D01*
X217381Y377105D01*
X217030Y377340D01*
X216615Y377422D01*
X216076D01*
X198652Y394846D01*
Y396525D01*
X198733Y396664D01*
X198957Y397500D01*
Y398366D01*
X198733Y399202D01*
X198300Y399952D01*
X197688Y400564D01*
X196938Y400996D01*
X196102Y401221D01*
D02*
G37*
G36*
X208899Y373535D02*
X206543D01*
Y370432D01*
X207599D01*
X208097Y370531D01*
X208518Y370812D01*
X208800Y371234D01*
X208899Y371731D01*
Y373535D01*
D02*
G37*
G36*
X321496Y399744D02*
X320630D01*
X319794Y399520D01*
X319044Y399087D01*
X318432Y398475D01*
X318000Y397726D01*
X317776Y396889D01*
Y396024D01*
X318000Y395188D01*
X318432Y394438D01*
X319044Y393826D01*
X319794Y393393D01*
X319949Y393352D01*
X321335Y391967D01*
Y372342D01*
X321378Y372012D01*
Y364094D01*
X326850D01*
Y372012D01*
X326894Y372342D01*
Y393118D01*
X326799Y393837D01*
X326521Y394508D01*
X326080Y395083D01*
X324350Y396813D01*
Y396889D01*
X324126Y397726D01*
X323694Y398475D01*
X323081Y399087D01*
X322332Y399520D01*
X321496Y399744D01*
D02*
G37*
G36*
X387539Y392756D02*
X386673D01*
X385837Y392532D01*
X385088Y392099D01*
X384476Y391487D01*
X384043Y390737D01*
X383819Y389901D01*
Y389036D01*
X384043Y388200D01*
X384327Y387708D01*
Y368642D01*
X378933D01*
Y359508D01*
X395705D01*
Y368642D01*
X389886D01*
Y387708D01*
X390170Y388200D01*
X390394Y389036D01*
Y389901D01*
X390170Y390737D01*
X389737Y391487D01*
X389125Y392099D01*
X388375Y392532D01*
X387539Y392756D01*
D02*
G37*
G36*
X368917Y363575D02*
X360819D01*
Y359295D01*
X368917D01*
Y363575D01*
D02*
G37*
G36*
X359819D02*
X351720D01*
Y359295D01*
X359819D01*
Y363575D01*
D02*
G37*
G36*
X425709Y362886D02*
X417610D01*
Y358606D01*
X425709D01*
Y362886D01*
D02*
G37*
G36*
X416610D02*
X408512D01*
Y358606D01*
X416610D01*
Y362886D01*
D02*
G37*
G36*
X306984Y371843D02*
X304035D01*
X301087D01*
Y363882D01*
X301256D01*
Y346532D01*
X295083D01*
Y330520D01*
X317421D01*
X339760D01*
Y346532D01*
X320201D01*
Y363882D01*
X320370D01*
Y371843D01*
X317421D01*
X314472D01*
Y363882D01*
X314642D01*
Y346532D01*
X306815D01*
Y363882D01*
X306984D01*
Y371843D01*
D02*
G37*
G36*
X275433Y343051D02*
X274567D01*
X273731Y342827D01*
X272982Y342394D01*
X272369Y341782D01*
X271937Y341033D01*
X271713Y340197D01*
Y339331D01*
X271937Y338495D01*
X272220Y338003D01*
Y327776D01*
X271549Y327104D01*
X271087Y327296D01*
Y330231D01*
X267871D01*
Y327420D01*
Y324609D01*
X268086D01*
X268277Y324147D01*
X266725Y322595D01*
X266651Y322585D01*
X266442Y322499D01*
X263867D01*
Y317302D01*
X266145D01*
X271531Y311915D01*
Y305120D01*
X271087Y304984D01*
Y304984D01*
X267694D01*
Y301701D01*
Y298418D01*
X270757D01*
X271195Y297962D01*
X271181Y297867D01*
X267509D01*
X267328Y297843D01*
X263512D01*
Y291701D01*
X264414D01*
Y278817D01*
X263867D01*
Y273620D01*
X266423D01*
X266632Y273533D01*
X267351Y273439D01*
X267371D01*
X268090Y273533D01*
X268299Y273620D01*
X270875D01*
Y278817D01*
X269973D01*
Y291701D01*
X270875D01*
Y292307D01*
X273869D01*
X274589Y292402D01*
X275259Y292680D01*
X275835Y293121D01*
X276276Y293563D01*
X276718Y294139D01*
X276996Y294809D01*
X277091Y295529D01*
Y313067D01*
X276996Y313786D01*
X276718Y314457D01*
X276276Y315032D01*
X271651Y319658D01*
X272299Y320306D01*
X272607Y320434D01*
X273183Y320876D01*
X276965Y324659D01*
X277407Y325234D01*
X277685Y325905D01*
X277780Y326624D01*
Y338003D01*
X278063Y338495D01*
X278287Y339331D01*
Y340197D01*
X278063Y341033D01*
X277631Y341782D01*
X277018Y342394D01*
X276269Y342827D01*
X275433Y343051D01*
D02*
G37*
G36*
X207323Y346398D02*
X206457D01*
X205621Y346174D01*
X204871Y345741D01*
X204259Y345129D01*
X203826Y344379D01*
X203602Y343543D01*
Y342677D01*
X203826Y341841D01*
X204110Y341350D01*
Y318187D01*
X202759Y316836D01*
X184342Y298419D01*
X184173Y298464D01*
X182916D01*
X181702Y298139D01*
X180614Y297510D01*
X179725Y296622D01*
X179096Y295533D01*
X178771Y294319D01*
Y293062D01*
X179096Y291848D01*
X179725Y290759D01*
X180614Y289871D01*
X181543Y289334D01*
X181409Y288834D01*
X178559D01*
Y286628D01*
X170190D01*
X169512Y287306D01*
Y304766D01*
X174001Y309254D01*
X175410D01*
X176130Y309349D01*
X176800Y309627D01*
X177376Y310068D01*
X182490Y315182D01*
X183045D01*
Y319669D01*
X178559D01*
Y319113D01*
X174259Y314814D01*
X172849D01*
X172130Y314719D01*
X171459Y314441D01*
X170884Y314000D01*
X164767Y307883D01*
X164325Y307307D01*
X164047Y306637D01*
X163953Y305917D01*
Y286154D01*
X164047Y285435D01*
X164325Y284764D01*
X164767Y284189D01*
X165108Y283848D01*
X162405Y281145D01*
X161963Y280569D01*
X161685Y279899D01*
X161590Y279180D01*
Y233169D01*
Y177461D01*
X161685Y176741D01*
X161963Y176071D01*
X162405Y175495D01*
X166512Y171388D01*
Y167365D01*
X166606Y166646D01*
X166884Y165975D01*
X167326Y165400D01*
X169632Y163093D01*
X170208Y162652D01*
X170878Y162374D01*
X171598Y162279D01*
X180972D01*
Y161091D01*
X184441D01*
Y165059D01*
Y169027D01*
X180972D01*
Y167839D01*
X172749D01*
X172071Y168517D01*
Y172539D01*
X171976Y173259D01*
X171699Y173929D01*
X171257Y174505D01*
X167150Y178612D01*
Y229405D01*
X180534D01*
X180929Y229010D01*
X181834Y228487D01*
X182844Y228217D01*
X182866D01*
Y232185D01*
Y236154D01*
X182844D01*
X181834Y235883D01*
X180929Y235361D01*
X180534Y234965D01*
X167150D01*
Y278028D01*
X170190Y281068D01*
X178559D01*
Y278862D01*
X183045D01*
Y283848D01*
X183545D01*
Y284348D01*
X188531D01*
Y288834D01*
X185681D01*
X185547Y289334D01*
X186476Y289871D01*
X187365Y290759D01*
X187993Y291848D01*
X188318Y293062D01*
Y294319D01*
X188273Y294488D01*
X201483Y307697D01*
X201945Y307506D01*
Y294488D01*
Y270866D01*
X202040Y270147D01*
X202317Y269476D01*
X202759Y268901D01*
X203640Y268020D01*
Y237970D01*
X203734Y237251D01*
X204012Y236580D01*
X204307Y236196D01*
Y222410D01*
X204206Y222324D01*
X203565Y222433D01*
X203418Y222688D01*
X202806Y223300D01*
X202056Y223733D01*
X201901Y223774D01*
X199981Y225694D01*
Y226653D01*
X200096Y226767D01*
X200537Y227343D01*
X200815Y228013D01*
X200910Y228732D01*
Y245866D01*
X200815Y246586D01*
X200537Y247256D01*
X200096Y247832D01*
X194206Y253721D01*
X193630Y254163D01*
X192960Y254441D01*
X192240Y254536D01*
X186012D01*
X185672Y254876D01*
X184816Y255370D01*
X183861Y255626D01*
X182872D01*
X181916Y255370D01*
X181060Y254876D01*
X180361Y254176D01*
X179866Y253320D01*
X179610Y252365D01*
Y251376D01*
X179866Y250420D01*
X180361Y249564D01*
X181060Y248865D01*
X181916Y248370D01*
X182872Y248114D01*
X183861D01*
X184816Y248370D01*
X185672Y248865D01*
X185784Y248976D01*
X191089D01*
X195350Y244715D01*
Y229884D01*
X195236Y229770D01*
X194794Y229194D01*
X194517Y228524D01*
X194422Y227804D01*
Y224543D01*
X194517Y223823D01*
X194794Y223153D01*
X195236Y222577D01*
X197500Y220313D01*
Y220236D01*
X197724Y219400D01*
X198157Y218651D01*
X198769Y218039D01*
X199519Y217606D01*
X200355Y217382D01*
X201220D01*
X202056Y217606D01*
X202806Y218039D01*
X203418Y218651D01*
X203565Y218905D01*
X204206Y219015D01*
X204307Y218928D01*
Y206102D01*
Y193425D01*
Y187116D01*
X204402Y186397D01*
X204679Y185726D01*
X205121Y185151D01*
X215626Y174646D01*
Y159914D01*
X215400Y159688D01*
X214906Y158832D01*
X214650Y157876D01*
Y156887D01*
X214906Y155932D01*
X215400Y155076D01*
X215626Y154850D01*
Y144685D01*
X215721Y143966D01*
X215998Y143295D01*
X216440Y142719D01*
X225200Y133960D01*
X225776Y133518D01*
X226446Y133240D01*
X227165Y133145D01*
X273031D01*
X273751Y133240D01*
X274421Y133518D01*
X274997Y133960D01*
X281788Y140751D01*
X282230Y141327D01*
X282508Y141997D01*
X282603Y142717D01*
Y154850D01*
X282828Y155076D01*
X283323Y155932D01*
X283579Y156887D01*
Y157876D01*
X283323Y158832D01*
X282828Y159688D01*
X282129Y160387D01*
X281273Y160882D01*
X280317Y161138D01*
X279328D01*
X278373Y160882D01*
X277517Y160387D01*
X276817Y159688D01*
X276323Y158832D01*
X276067Y157876D01*
Y156887D01*
X276323Y155932D01*
X276817Y155076D01*
X277043Y154850D01*
Y143868D01*
X271880Y138705D01*
X228317D01*
X221185Y145836D01*
Y154850D01*
X221411Y155076D01*
X221905Y155932D01*
X222161Y156887D01*
Y157876D01*
X221905Y158832D01*
X221411Y159688D01*
X221185Y159914D01*
Y175797D01*
X221091Y176517D01*
X220813Y177187D01*
X220371Y177763D01*
X209866Y188268D01*
Y190646D01*
X328858D01*
X329578Y190740D01*
X330248Y191018D01*
X330824Y191460D01*
X333608Y194244D01*
X334049Y194819D01*
X334327Y195490D01*
X334422Y196209D01*
Y200184D01*
X338515Y204277D01*
X338670Y204318D01*
X339420Y204751D01*
X340032Y205363D01*
X340465Y206113D01*
X340689Y206949D01*
Y207815D01*
X340465Y208651D01*
X340032Y209400D01*
X339420Y210013D01*
X338670Y210445D01*
X337834Y210669D01*
X336969D01*
X336133Y210445D01*
X335383Y210013D01*
X334771Y209400D01*
X334338Y208651D01*
X334114Y207815D01*
Y207738D01*
X329677Y203300D01*
X329235Y202725D01*
X328957Y202054D01*
X328863Y201335D01*
Y197361D01*
X327707Y196205D01*
X209866D01*
Y203323D01*
X225148D01*
X225175Y203326D01*
X225400Y202903D01*
X225414Y202853D01*
X224988Y202115D01*
X224764Y201279D01*
Y200414D01*
X224988Y199578D01*
X225421Y198828D01*
X226033Y198216D01*
X226782Y197783D01*
X227618Y197559D01*
X228484D01*
X229320Y197783D01*
X229811Y198067D01*
X276740D01*
X277459Y198161D01*
X277526Y198189D01*
X278090D01*
X278926Y198413D01*
X279676Y198846D01*
X280288Y199458D01*
X280721Y200207D01*
X280945Y201044D01*
Y201909D01*
X280721Y202745D01*
X280288Y203495D01*
X279676Y204107D01*
X278926Y204540D01*
X278090Y204764D01*
X277225D01*
X276389Y204540D01*
X275639Y204107D01*
X275158Y203626D01*
X229811D01*
X229320Y203910D01*
X228484Y204134D01*
X227817D01*
X227604Y204628D01*
X230925Y207949D01*
X247488D01*
X248208Y208043D01*
X248878Y208321D01*
X249454Y208763D01*
X262235Y221544D01*
X262697Y221353D01*
Y215649D01*
X270178D01*
Y216216D01*
X281652D01*
X282000Y216072D01*
X282720Y215977D01*
X285981D01*
X286701Y216072D01*
X286794Y216110D01*
X287559Y215905D01*
X288425D01*
X289261Y216129D01*
X290011Y216562D01*
X290623Y217174D01*
X291055Y217924D01*
X291280Y218760D01*
Y219626D01*
X291055Y220462D01*
X290623Y221211D01*
X290011Y221824D01*
X289261Y222256D01*
X288425Y222480D01*
X287559D01*
X286723Y222256D01*
X285974Y221824D01*
X285875Y221725D01*
X285494Y221674D01*
X285161Y221536D01*
X283548D01*
X283200Y221681D01*
X282481Y221775D01*
X270178D01*
Y222342D01*
X263812D01*
X263608Y222810D01*
X263847Y223106D01*
X265847D01*
X266027Y223130D01*
X270178D01*
Y229822D01*
X262697D01*
Y228665D01*
X262646D01*
X261926Y228571D01*
X261256Y228293D01*
X260680Y227851D01*
X246337Y213508D01*
X229774D01*
X229054Y213413D01*
X228384Y213136D01*
X227808Y212694D01*
X223996Y208882D01*
X209866D01*
Y227008D01*
X210366Y227108D01*
X210388Y227055D01*
X210830Y226479D01*
X220990Y216319D01*
X221566Y215877D01*
X222236Y215599D01*
X222956Y215505D01*
X232539D01*
Y214898D01*
X236354D01*
X236535Y214875D01*
X236715Y214898D01*
X239901D01*
Y214938D01*
X242127D01*
X242846Y215032D01*
X243517Y215310D01*
X244092Y215752D01*
X245213Y216873D01*
X245756Y216944D01*
X246426Y217222D01*
X247002Y217664D01*
X249308Y219970D01*
X249750Y220546D01*
X250027Y221216D01*
X250122Y221935D01*
Y222864D01*
X250391Y223133D01*
X250833Y223709D01*
X251110Y224379D01*
X251205Y225098D01*
Y231975D01*
X251110Y232695D01*
X250833Y233365D01*
X250391Y233941D01*
X239901Y244430D01*
Y246641D01*
X232539D01*
Y240499D01*
X235970D01*
X245645Y230824D01*
Y226250D01*
X245377Y225981D01*
X244935Y225406D01*
X244658Y224735D01*
X244563Y224016D01*
Y223087D01*
X243862Y222386D01*
X243319Y222314D01*
X242649Y222036D01*
X242073Y221595D01*
X240975Y220497D01*
X239901D01*
Y221040D01*
X236086D01*
X235905Y221064D01*
X224107D01*
X215575Y229596D01*
Y243515D01*
X215859Y244007D01*
X216083Y244843D01*
Y245708D01*
X215859Y246545D01*
X215426Y247294D01*
X214814Y247906D01*
X214064Y248339D01*
X213228Y248563D01*
X212363D01*
X211526Y248339D01*
X210777Y247906D01*
X210165Y247294D01*
X209732Y246545D01*
X209699Y246422D01*
X209199Y246488D01*
Y266391D01*
X232539D01*
Y266100D01*
X239901D01*
Y272242D01*
X232539D01*
Y271951D01*
X207571D01*
X207504Y272018D01*
Y291992D01*
X232539D01*
Y291701D01*
X239901D01*
Y297843D01*
X232539D01*
Y297552D01*
X222610D01*
X222577Y298052D01*
X222964Y298102D01*
X223634Y298380D01*
X224210Y298822D01*
X225784Y300397D01*
X226226Y300972D01*
X226504Y301643D01*
X226599Y302362D01*
Y307116D01*
X236688Y317206D01*
X236762Y317215D01*
X236971Y317302D01*
X239547D01*
Y322499D01*
X236971D01*
X236762Y322585D01*
X236043Y322680D01*
X235452D01*
X234733Y322585D01*
X234524Y322499D01*
X232539D01*
Y320918D01*
X221853Y310233D01*
X221412Y309657D01*
X221134Y308986D01*
X221039Y308267D01*
Y303567D01*
X215343D01*
X214852Y303851D01*
X214016Y304075D01*
X213150D01*
X212314Y303851D01*
X211564Y303418D01*
X210952Y302806D01*
X210519Y302056D01*
X210295Y301220D01*
Y300355D01*
X210519Y299518D01*
X210952Y298769D01*
X211564Y298157D01*
X211747Y298052D01*
X211613Y297552D01*
X207504D01*
Y313719D01*
X208855Y315070D01*
X209297Y315646D01*
X209575Y316316D01*
X209669Y317036D01*
Y340331D01*
X218611D01*
X232539Y326402D01*
Y324821D01*
X234524D01*
X234733Y324735D01*
X235452Y324640D01*
X236043D01*
X236762Y324735D01*
X236971Y324821D01*
X239547D01*
Y330018D01*
X236971D01*
X236762Y330105D01*
X236688Y330115D01*
X221727Y345076D01*
X221152Y345517D01*
X220481Y345795D01*
X219762Y345890D01*
X208650D01*
X208159Y346174D01*
X207323Y346398D01*
D02*
G37*
G36*
X266871Y330231D02*
X263654D01*
Y330200D01*
X250731D01*
X250012Y330105D01*
X249342Y329827D01*
X248766Y329385D01*
X246460Y327079D01*
X246018Y326503D01*
X245740Y325833D01*
X245645Y325114D01*
Y304481D01*
X240113D01*
Y304984D01*
X236720D01*
Y301701D01*
Y298418D01*
X240113D01*
Y298921D01*
X245645D01*
Y278880D01*
X240113D01*
Y279384D01*
X236720D01*
Y276100D01*
Y272817D01*
X240113D01*
Y273321D01*
X245645D01*
Y263246D01*
X236182Y253783D01*
X232326D01*
Y252964D01*
X230992D01*
X230272Y252869D01*
X229602Y252592D01*
X229026Y252150D01*
X220323Y243447D01*
X219881Y242871D01*
X219603Y242201D01*
X219509Y241481D01*
Y238220D01*
X219603Y237500D01*
X219881Y236830D01*
X220323Y236254D01*
X232326Y224251D01*
Y221615D01*
X235720D01*
Y224899D01*
X236220D01*
Y225398D01*
X240113D01*
Y228182D01*
X236257D01*
X225068Y239371D01*
Y240330D01*
X231864Y247125D01*
X232326Y247216D01*
Y247216D01*
X235720D01*
Y250499D01*
X236720D01*
Y247216D01*
X240113D01*
Y247720D01*
X247168D01*
X252070Y242818D01*
X252646Y242376D01*
X253316Y242098D01*
X254035Y242004D01*
X257449D01*
X258168Y242098D01*
X258839Y242376D01*
X259414Y242818D01*
X259625Y243028D01*
X263379D01*
Y242840D01*
X265226D01*
Y240514D01*
X264947Y240032D01*
X264719Y239181D01*
X271698D01*
X271470Y240032D01*
X271009Y240830D01*
X270785Y241055D01*
Y242840D01*
X271087D01*
Y245505D01*
X267233D01*
Y246005D01*
X266733D01*
Y249170D01*
X263379D01*
Y248588D01*
X258473D01*
X257754Y248493D01*
X257083Y248215D01*
X256508Y247774D01*
X256297Y247563D01*
X255187D01*
X250285Y252465D01*
X249709Y252907D01*
X249039Y253184D01*
X248320Y253279D01*
X244194D01*
X244003Y253741D01*
X250391Y260129D01*
X250833Y260705D01*
X251110Y261375D01*
X251205Y262094D01*
Y275492D01*
Y298921D01*
X263300D01*
Y298418D01*
X266694D01*
Y301701D01*
Y304984D01*
X263300D01*
Y304481D01*
X251205D01*
Y323962D01*
X251883Y324640D01*
X263654D01*
Y324609D01*
X266871D01*
Y327420D01*
Y330231D01*
D02*
G37*
G36*
X389087Y327732D02*
X384157D01*
Y320972D01*
X389087D01*
Y327732D01*
D02*
G37*
G36*
X339760Y329520D02*
X317921D01*
Y313508D01*
X339760D01*
Y329520D01*
D02*
G37*
G36*
X235720Y304984D02*
X232326D01*
Y302201D01*
X235720D01*
Y304984D01*
D02*
G37*
G36*
Y301201D02*
X232326D01*
Y298418D01*
X235720D01*
Y301201D01*
D02*
G37*
G36*
X367598Y327520D02*
X357165D01*
Y313425D01*
X359602D01*
Y303289D01*
X355481Y299168D01*
X355326Y299126D01*
X354576Y298694D01*
X353964Y298081D01*
X353531Y297332D01*
X353307Y296496D01*
Y295630D01*
X353531Y294794D01*
X353964Y294044D01*
X354576Y293432D01*
X355326Y293000D01*
X356162Y292776D01*
X357027D01*
X357863Y293000D01*
X358613Y293432D01*
X359225Y294044D01*
X359658Y294794D01*
X359882Y295630D01*
Y295707D01*
X364347Y300172D01*
X364789Y300748D01*
X365067Y301419D01*
X365162Y302138D01*
Y313425D01*
X367598D01*
Y327520D01*
D02*
G37*
G36*
X188531Y283348D02*
X184045D01*
Y278862D01*
X188531D01*
Y283348D01*
D02*
G37*
G36*
X235720Y279384D02*
X232326D01*
Y276600D01*
X235720D01*
Y279384D01*
D02*
G37*
G36*
Y275600D02*
X232326D01*
Y272817D01*
X235720D01*
Y275600D01*
D02*
G37*
G36*
X329484Y263304D02*
X326484D01*
Y260304D01*
X329484D01*
Y263304D01*
D02*
G37*
G36*
X325484D02*
X322484D01*
Y260304D01*
X325484D01*
Y263304D01*
D02*
G37*
G36*
X314575Y254769D02*
Y251780D01*
X317564D01*
X317336Y252630D01*
X316876Y253429D01*
X316224Y254080D01*
X315426Y254541D01*
X314575Y254769D01*
D02*
G37*
G36*
X313575D02*
X312724Y254541D01*
X311926Y254080D01*
X311274Y253429D01*
X310813Y252630D01*
X310585Y251780D01*
X313575D01*
Y254769D01*
D02*
G37*
G36*
X271087Y249170D02*
X267733D01*
Y246505D01*
X271087D01*
Y249170D01*
D02*
G37*
G36*
X488189Y249072D02*
X481496D01*
Y241592D01*
X488189D01*
Y242702D01*
X505075D01*
Y242482D01*
X511374D01*
Y248781D01*
X505075D01*
Y248262D01*
X488189D01*
Y249072D01*
D02*
G37*
G36*
X329484Y259304D02*
X325984D01*
X322484D01*
Y256304D01*
X323204D01*
Y242968D01*
X322484D01*
Y242248D01*
X316855D01*
Y249110D01*
X316876Y249131D01*
X317336Y249929D01*
X317564Y250780D01*
X310585D01*
X310813Y249929D01*
X311274Y249131D01*
X311295Y249110D01*
Y243277D01*
X310266Y242248D01*
X306250D01*
Y242968D01*
X303250D01*
Y239468D01*
Y235968D01*
X306250D01*
Y236688D01*
X322484D01*
Y235968D01*
X325484D01*
Y239468D01*
X325984D01*
Y239968D01*
X329484D01*
Y242968D01*
X328764D01*
Y256304D01*
X329484D01*
Y259304D01*
D02*
G37*
G36*
X468149Y253681D02*
X467284D01*
X466448Y253457D01*
X465698Y253024D01*
X465086Y252412D01*
X464653Y251663D01*
X464429Y250827D01*
Y249961D01*
X464653Y249125D01*
X465086Y248375D01*
X465698Y247763D01*
X466448Y247330D01*
X467284Y247106D01*
X467360D01*
X467614Y246853D01*
X468189Y246412D01*
X468860Y246134D01*
X469282Y246078D01*
X471994Y243366D01*
X472570Y242925D01*
X473240Y242647D01*
X473960Y242552D01*
X474015D01*
Y241592D01*
X480708D01*
Y249072D01*
X474151D01*
X472438Y250784D01*
X471863Y251226D01*
X471192Y251504D01*
X470809Y251554D01*
X470780Y251663D01*
X470347Y252412D01*
X469735Y253024D01*
X468985Y253457D01*
X468149Y253681D01*
D02*
G37*
G36*
X302250Y242968D02*
X299250D01*
Y239968D01*
X302250D01*
Y242968D01*
D02*
G37*
G36*
X329484Y238968D02*
X326484D01*
Y235968D01*
X329484D01*
Y238968D01*
D02*
G37*
G36*
X302250Y238968D02*
X299250D01*
Y235968D01*
X302250D01*
Y238968D01*
D02*
G37*
G36*
X183861Y245783D02*
X182872D01*
X181916Y245528D01*
X181060Y245033D01*
X180361Y244334D01*
X179866Y243477D01*
X179610Y242522D01*
Y241533D01*
X179866Y240578D01*
X180361Y239721D01*
X181060Y239022D01*
X181916Y238528D01*
X182872Y238272D01*
X183191D01*
X185062Y236401D01*
X184907Y235916D01*
X184863Y235892D01*
X183889Y236154D01*
X183866D01*
Y232185D01*
Y228217D01*
X183889D01*
X184898Y228487D01*
X185803Y229010D01*
X186542Y229748D01*
X186802Y230199D01*
X187469Y230361D01*
X187535Y230319D01*
Y226308D01*
X187122Y226098D01*
X187035Y226098D01*
X179610D01*
Y222518D01*
X171853Y214761D01*
X171412Y214185D01*
X171134Y213515D01*
X171039Y212795D01*
Y205709D01*
X171134Y204989D01*
X171412Y204319D01*
X171853Y203743D01*
X181185Y194411D01*
Y194092D01*
X181441Y193137D01*
X181936Y192280D01*
X182635Y191581D01*
X183491Y191087D01*
X184447Y190831D01*
X185435D01*
X186391Y191087D01*
X187247Y191581D01*
X187946Y192280D01*
X188441Y193137D01*
X188697Y194092D01*
Y195081D01*
X188441Y196036D01*
X187946Y196893D01*
X187247Y197592D01*
X186391Y198087D01*
X185435Y198343D01*
X185116D01*
X176599Y206860D01*
Y211644D01*
X183541Y218587D01*
X187035D01*
X187122Y218587D01*
X187535Y218377D01*
Y214654D01*
X187630Y213934D01*
X187908Y213264D01*
X188349Y212688D01*
X195252Y205786D01*
Y183181D01*
X195346Y182461D01*
X195624Y181791D01*
X196066Y181215D01*
X200462Y176820D01*
Y172176D01*
X200381Y172037D01*
X200157Y171201D01*
Y170335D01*
X200381Y169499D01*
X200814Y168749D01*
X201426Y168137D01*
X202176Y167704D01*
X203012Y167480D01*
X203878D01*
X204714Y167704D01*
X205463Y168137D01*
X206076Y168749D01*
X206508Y169499D01*
X206732Y170335D01*
Y171201D01*
X206508Y172037D01*
X206076Y172786D01*
X206021Y172840D01*
Y177971D01*
X205926Y178690D01*
X205649Y179361D01*
X205207Y179936D01*
X200811Y184332D01*
Y206937D01*
X200716Y207657D01*
X200439Y208327D01*
X199997Y208903D01*
X193095Y215805D01*
Y235079D01*
X193000Y235798D01*
X192722Y236469D01*
X192280Y237044D01*
X187122Y242203D01*
Y242522D01*
X186866Y243477D01*
X186372Y244334D01*
X185672Y245033D01*
X184816Y245528D01*
X183861Y245783D01*
D02*
G37*
G36*
X271698Y238181D02*
X268709D01*
Y235192D01*
X269560Y235420D01*
X270358Y235880D01*
X271009Y236532D01*
X271470Y237330D01*
X271698Y238181D01*
D02*
G37*
G36*
X267709D02*
X264719D01*
X264947Y237330D01*
X265408Y236532D01*
X266060Y235880D01*
X266858Y235420D01*
X267709Y235192D01*
Y238181D01*
D02*
G37*
G36*
X240113Y224398D02*
X236720D01*
Y221615D01*
X240113D01*
Y224398D01*
D02*
G37*
G36*
X488189Y218307D02*
X481496D01*
Y210826D01*
X488189D01*
Y211730D01*
X505075D01*
Y211303D01*
X511374D01*
Y217602D01*
X505075D01*
Y217289D01*
X488189D01*
Y218307D01*
D02*
G37*
G36*
X428673Y193081D02*
X428189D01*
X427157Y192946D01*
X426195Y192547D01*
X425370Y191914D01*
X424736Y191088D01*
X424338Y190126D01*
X424268Y189594D01*
X428673D01*
Y193081D01*
D02*
G37*
G36*
Y188594D02*
X424268D01*
X424338Y188063D01*
X424736Y187101D01*
X425370Y186275D01*
X426195Y185642D01*
X427157Y185243D01*
X428189Y185108D01*
X428673D01*
Y188594D01*
D02*
G37*
G36*
X480921Y186925D02*
X477862D01*
Y183472D01*
X480921D01*
Y186925D01*
D02*
G37*
G36*
X476862D02*
X473803D01*
Y183472D01*
X476862D01*
Y186925D01*
D02*
G37*
G36*
X185435Y188500D02*
X184447D01*
X183491Y188244D01*
X182635Y187750D01*
X181936Y187050D01*
X181441Y186194D01*
X181185Y185239D01*
Y184250D01*
X181441Y183294D01*
X181936Y182438D01*
X182635Y181739D01*
X183491Y181244D01*
X184447Y180988D01*
X185435D01*
X186391Y181244D01*
X187247Y181739D01*
X187946Y182438D01*
X188441Y183294D01*
X188697Y184250D01*
Y185239D01*
X188441Y186194D01*
X187946Y187050D01*
X187247Y187750D01*
X186391Y188244D01*
X185435Y188500D01*
D02*
G37*
G36*
X488189Y186713D02*
X481496D01*
Y179232D01*
X488189D01*
Y180343D01*
X505075D01*
Y180123D01*
X511374D01*
Y186422D01*
X505075D01*
Y185902D01*
X488189D01*
Y186713D01*
D02*
G37*
G36*
X350758Y190751D02*
X343277D01*
Y184058D01*
X346826D01*
X361689Y169195D01*
Y147752D01*
X357783D01*
Y143315D01*
X362307D01*
X362720Y143486D01*
X368283Y137923D01*
Y133999D01*
X368378Y133280D01*
X368656Y132609D01*
X369097Y132034D01*
X371404Y129727D01*
X371979Y129286D01*
X372650Y129008D01*
X373369Y128913D01*
X419249D01*
X419968Y129008D01*
X420639Y129286D01*
X421214Y129727D01*
X423521Y132034D01*
X423962Y132609D01*
X424240Y133280D01*
X424335Y133999D01*
Y137894D01*
X424240Y138613D01*
X423962Y139284D01*
X423521Y139859D01*
X413705Y149675D01*
Y171290D01*
X418730Y176315D01*
X425668D01*
X426303Y175828D01*
X427213Y175451D01*
X428189Y175322D01*
X430158D01*
X431134Y175451D01*
X432044Y175828D01*
X432825Y176427D01*
X433425Y177208D01*
X433801Y178118D01*
X433875Y178681D01*
X433921Y179027D01*
X434425D01*
X434471Y178681D01*
X434545Y178118D01*
X434922Y177208D01*
X435522Y176427D01*
X436303Y175828D01*
X437213Y175451D01*
X438189Y175322D01*
X440158D01*
X441134Y175451D01*
X442044Y175828D01*
X442825Y176427D01*
X443425Y177208D01*
X443801Y178118D01*
X443930Y179095D01*
X443801Y180071D01*
X443425Y180981D01*
X442825Y181762D01*
X442044Y182361D01*
X441134Y182738D01*
X440158Y182867D01*
X438189D01*
X437213Y182738D01*
X436303Y182361D01*
X435522Y181762D01*
X434922Y180981D01*
X434545Y180071D01*
X434471Y179508D01*
X434425Y179162D01*
X433921D01*
X433875Y179508D01*
X433801Y180071D01*
X433425Y180981D01*
X432825Y181762D01*
X432044Y182361D01*
X431134Y182738D01*
X430158Y182867D01*
X428189D01*
X427213Y182738D01*
X426303Y182361D01*
X425668Y181874D01*
X417579D01*
X416859Y181779D01*
X416189Y181502D01*
X415613Y181060D01*
X408960Y174407D01*
X408518Y173831D01*
X408240Y173160D01*
X408146Y172441D01*
Y148524D01*
X408240Y147804D01*
X408518Y147134D01*
X408960Y146558D01*
X418775Y136742D01*
Y135151D01*
X418097Y134473D01*
X374521D01*
X373843Y135151D01*
Y139075D01*
X373748Y139794D01*
X373470Y140465D01*
X373028Y141040D01*
X367248Y146821D01*
Y170347D01*
X367154Y171066D01*
X366876Y171737D01*
X366434Y172312D01*
X350758Y187989D01*
Y190751D01*
D02*
G37*
G36*
X185435Y178657D02*
X184447D01*
X183491Y178402D01*
X182635Y177907D01*
X181936Y177208D01*
X181441Y176351D01*
X181185Y175396D01*
Y174407D01*
X181441Y173452D01*
X181936Y172595D01*
X182635Y171896D01*
X183491Y171402D01*
X184447Y171146D01*
X185435D01*
X186391Y171402D01*
X187247Y171896D01*
X187946Y172595D01*
X188441Y173452D01*
X188697Y174407D01*
Y175396D01*
X188441Y176351D01*
X187946Y177208D01*
X187247Y177907D01*
X186391Y178402D01*
X185435Y178657D01*
D02*
G37*
G36*
X275531Y189803D02*
X274666D01*
X273830Y189579D01*
X273080Y189146D01*
X272468Y188534D01*
X272035Y187785D01*
X271888Y187237D01*
X267303Y182652D01*
X261597D01*
X260877Y182557D01*
X260207Y182279D01*
X259631Y181838D01*
X254232Y176439D01*
X253684Y176292D01*
X252935Y175859D01*
X252323Y175247D01*
X251890Y174497D01*
X251666Y173661D01*
Y172796D01*
X251890Y171959D01*
X252323Y171210D01*
X252935Y170598D01*
X253684Y170165D01*
X254520Y169941D01*
X255386D01*
X256222Y170165D01*
X256972Y170598D01*
X257584Y171210D01*
X258017Y171959D01*
X258163Y172508D01*
X262748Y177092D01*
X268455D01*
X269174Y177187D01*
X269845Y177465D01*
X270420Y177907D01*
X275819Y183306D01*
X276367Y183452D01*
X277117Y183885D01*
X277729Y184497D01*
X278162Y185247D01*
X278386Y186083D01*
Y186949D01*
X278162Y187785D01*
X277729Y188534D01*
X277117Y189146D01*
X276367Y189579D01*
X275531Y189803D01*
D02*
G37*
G36*
X440158Y172867D02*
X438189D01*
X437213Y172738D01*
X436303Y172362D01*
X435522Y171762D01*
X434922Y170981D01*
X434545Y170071D01*
X434471Y169508D01*
X434425Y169162D01*
X433921D01*
X433875Y169508D01*
X433801Y170071D01*
X433425Y170981D01*
X432825Y171762D01*
X432044Y172362D01*
X431134Y172738D01*
X430158Y172867D01*
X428189D01*
X427213Y172738D01*
X426303Y172362D01*
X425522Y171762D01*
X424922Y170981D01*
X424545Y170071D01*
X424417Y169095D01*
X424545Y168118D01*
X424922Y167208D01*
X425522Y166427D01*
X426303Y165828D01*
X427213Y165451D01*
X428189Y165322D01*
X430158D01*
X431134Y165451D01*
X432044Y165828D01*
X432825Y166427D01*
X433425Y167208D01*
X433801Y168118D01*
X433875Y168681D01*
X433921Y169027D01*
X434425D01*
X434471Y168681D01*
X434545Y168118D01*
X434922Y167208D01*
X435522Y166427D01*
X436303Y165828D01*
X437213Y165451D01*
X438189Y165322D01*
X440158D01*
X441134Y165451D01*
X442044Y165828D01*
X442825Y166427D01*
X443425Y167208D01*
X443801Y168118D01*
X443930Y169095D01*
X443801Y170071D01*
X443425Y170981D01*
X442825Y171762D01*
X442044Y172362D01*
X441134Y172738D01*
X440158Y172867D01*
D02*
G37*
G36*
X188909Y169027D02*
X185441D01*
Y165559D01*
X188909D01*
Y169027D01*
D02*
G37*
G36*
Y164559D02*
X185441D01*
Y161091D01*
X188909D01*
Y164559D01*
D02*
G37*
G36*
X290188Y161350D02*
X290165D01*
Y157882D01*
X293634D01*
Y157904D01*
X293363Y158914D01*
X292841Y159819D01*
X292102Y160557D01*
X291197Y161080D01*
X290188Y161350D01*
D02*
G37*
G36*
X228770D02*
X228748D01*
Y157882D01*
X232217D01*
Y157904D01*
X231946Y158914D01*
X231424Y159819D01*
X230685Y160557D01*
X229780Y161080D01*
X228770Y161350D01*
D02*
G37*
G36*
X289165D02*
X289143D01*
X288134Y161080D01*
X287229Y160557D01*
X286490Y159819D01*
X285967Y158914D01*
X285697Y157904D01*
Y157882D01*
X289165D01*
Y161350D01*
D02*
G37*
G36*
X227748D02*
X227726D01*
X226716Y161080D01*
X225811Y160557D01*
X225072Y159819D01*
X224550Y158914D01*
X224279Y157904D01*
Y157882D01*
X227748D01*
Y161350D01*
D02*
G37*
G36*
X317609Y188685D02*
X317019D01*
X316299Y188591D01*
X316090Y188504D01*
X314105D01*
Y186923D01*
X307385Y180203D01*
X306943Y179627D01*
X306665Y178957D01*
X306571Y178237D01*
Y161138D01*
X305594D01*
Y153626D01*
X313106D01*
Y161138D01*
X312130D01*
Y177086D01*
X318255Y183211D01*
X318329Y183221D01*
X318537Y183307D01*
X321113D01*
Y188504D01*
X318537D01*
X318329Y188591D01*
X317609Y188685D01*
D02*
G37*
G36*
X289725D02*
X289135D01*
X288415Y188591D01*
X288206Y188504D01*
X285630D01*
Y183307D01*
X288206D01*
X288415Y183221D01*
X288489Y183211D01*
X296728Y174971D01*
Y159914D01*
X296502Y159688D01*
X296008Y158832D01*
X295752Y157876D01*
Y156887D01*
X296008Y155932D01*
X296502Y155076D01*
X297202Y154376D01*
X298058Y153882D01*
X299013Y153626D01*
X300002D01*
X300958Y153882D01*
X301814Y154376D01*
X302513Y155076D01*
X303008Y155932D01*
X303264Y156887D01*
Y157876D01*
X303008Y158832D01*
X302513Y159688D01*
X302288Y159914D01*
Y176123D01*
X302193Y176842D01*
X301915Y177513D01*
X301473Y178088D01*
X292638Y186923D01*
Y188504D01*
X290653D01*
X290444Y188591D01*
X289725Y188685D01*
D02*
G37*
G36*
X260660D02*
X252244D01*
X251525Y188591D01*
X250854Y188313D01*
X250279Y187871D01*
X245968Y183560D01*
X245526Y182984D01*
X245248Y182314D01*
X245153Y181595D01*
Y161138D01*
X244177D01*
Y153626D01*
X251689D01*
Y161138D01*
X250713D01*
Y180443D01*
X253396Y183126D01*
X260660D01*
X261379Y183221D01*
X261588Y183307D01*
X264164D01*
Y188504D01*
X261588D01*
X261379Y188591D01*
X260660Y188685D01*
D02*
G37*
G36*
X232776D02*
X232185D01*
X231466Y188591D01*
X231257Y188504D01*
X228681D01*
Y183307D01*
X231257D01*
X231466Y183221D01*
X231539Y183211D01*
X235311Y179439D01*
Y159914D01*
X235085Y159688D01*
X234591Y158832D01*
X234335Y157876D01*
Y156887D01*
X234591Y155932D01*
X235085Y155076D01*
X235784Y154376D01*
X236641Y153882D01*
X237596Y153626D01*
X238585D01*
X239540Y153882D01*
X240397Y154376D01*
X241096Y155076D01*
X241590Y155932D01*
X241846Y156887D01*
Y157876D01*
X241590Y158832D01*
X241096Y159688D01*
X240870Y159914D01*
Y180591D01*
X240775Y181310D01*
X240498Y181980D01*
X240056Y182556D01*
X235689Y186923D01*
Y188504D01*
X233704D01*
X233495Y188591D01*
X232776Y188685D01*
D02*
G37*
G36*
X232217Y156882D02*
X228748D01*
Y153413D01*
X228770D01*
X229780Y153684D01*
X230685Y154206D01*
X231424Y154945D01*
X231946Y155850D01*
X232217Y156859D01*
Y156882D01*
D02*
G37*
G36*
X227748D02*
X224279D01*
Y156859D01*
X224550Y155850D01*
X225072Y154945D01*
X225811Y154206D01*
X226716Y153684D01*
X227726Y153413D01*
X227748D01*
Y156882D01*
D02*
G37*
G36*
X379232Y190751D02*
X371752D01*
Y184058D01*
X372712D01*
Y162226D01*
X369989Y159503D01*
X369833Y159461D01*
X369084Y159028D01*
X368472Y158416D01*
X368039Y157667D01*
X367815Y156830D01*
Y155965D01*
X368039Y155129D01*
X368472Y154379D01*
X369084Y153767D01*
X369833Y153334D01*
X370670Y153110D01*
X371535D01*
X372371Y153334D01*
X373121Y153767D01*
X373733Y154379D01*
X374166Y155129D01*
X374390Y155965D01*
Y156042D01*
X377458Y159109D01*
X377899Y159685D01*
X378177Y160355D01*
X378272Y161075D01*
Y184058D01*
X379232D01*
Y190751D01*
D02*
G37*
G36*
X440158Y193081D02*
X439673D01*
Y189094D01*
Y185108D01*
X440158D01*
X441189Y185243D01*
X442151Y185642D01*
X442977Y186275D01*
X443007Y186315D01*
X460223D01*
X460901Y185637D01*
Y172877D01*
X460996Y172158D01*
X461274Y171487D01*
X461716Y170912D01*
X464022Y168605D01*
X464598Y168164D01*
X465268Y167886D01*
X465987Y167791D01*
X474582D01*
Y156808D01*
X471708Y153934D01*
X471266Y153358D01*
X470989Y152688D01*
X470894Y151969D01*
Y141898D01*
X470174D01*
Y138898D01*
X477174D01*
Y141898D01*
X476453D01*
Y149189D01*
X490394D01*
X491072Y148511D01*
Y141898D01*
X490352D01*
Y138898D01*
X497352D01*
Y141898D01*
X496631D01*
Y149662D01*
X496537Y150382D01*
X496259Y151052D01*
X495817Y151628D01*
X495131Y152314D01*
X495201Y152844D01*
Y157271D01*
X495879Y157949D01*
X509622D01*
Y150750D01*
X509717Y150031D01*
X509994Y149360D01*
X510436Y148784D01*
X511250Y147970D01*
Y141898D01*
X510530D01*
Y138898D01*
X517530D01*
Y141898D01*
X516810D01*
Y149121D01*
X516715Y149841D01*
X516437Y150511D01*
X515996Y151087D01*
X515181Y151901D01*
Y160322D01*
X515859Y161000D01*
X532172D01*
X532850Y160322D01*
Y153150D01*
X532945Y152430D01*
X533223Y151760D01*
X533299Y151661D01*
Y141898D01*
X532578D01*
Y138898D01*
X539578D01*
Y141898D01*
X538858D01*
Y152701D01*
X538763Y153421D01*
X538486Y154091D01*
X538410Y154190D01*
Y161473D01*
X538315Y162193D01*
X538037Y162863D01*
X537595Y163439D01*
X535289Y165745D01*
X534714Y166187D01*
X534043Y166464D01*
X533324Y166559D01*
X514708D01*
X513988Y166464D01*
X513318Y166187D01*
X512742Y165745D01*
X510505Y163508D01*
X494728D01*
X494008Y163413D01*
X493338Y163136D01*
X492762Y162694D01*
X490456Y160388D01*
X490014Y159812D01*
X489736Y159142D01*
X489642Y158422D01*
Y154748D01*
X480471D01*
X480088Y155248D01*
X480142Y155657D01*
Y170276D01*
Y179020D01*
X480921D01*
Y182472D01*
X473803D01*
Y179020D01*
X474582D01*
Y173351D01*
X467139D01*
X466461Y174029D01*
Y186788D01*
X466366Y187508D01*
X466088Y188178D01*
X465647Y188754D01*
X463340Y191060D01*
X462765Y191502D01*
X462094Y191779D01*
X461375Y191874D01*
X443007D01*
X442977Y191914D01*
X442151Y192547D01*
X441189Y192946D01*
X440158Y193081D01*
D02*
G37*
G36*
X362221Y142315D02*
X357783D01*
Y137878D01*
X362221D01*
Y142315D01*
D02*
G37*
G36*
X293634Y156882D02*
X289665D01*
X285697D01*
Y156859D01*
X285967Y155850D01*
X286490Y154945D01*
X286886Y154549D01*
Y147539D01*
X286980Y146820D01*
X287258Y146150D01*
X287700Y145574D01*
X295715Y137559D01*
X296290Y137117D01*
X296961Y136839D01*
X297680Y136745D01*
X300942D01*
X301661Y136839D01*
X302332Y137117D01*
X302907Y137559D01*
X305384Y140035D01*
X352346D01*
Y137878D01*
X356783D01*
Y142815D01*
Y147752D01*
X352346D01*
Y145595D01*
X304232D01*
X303513Y145500D01*
X302842Y145222D01*
X302267Y144781D01*
X299790Y142304D01*
X298832D01*
X292445Y148691D01*
Y154549D01*
X292841Y154945D01*
X293363Y155850D01*
X293634Y156859D01*
Y156882D01*
D02*
G37*
G36*
X539578Y137898D02*
X536578D01*
Y134898D01*
X539578D01*
Y137898D01*
D02*
G37*
G36*
X535578D02*
X532578D01*
Y134898D01*
X535578D01*
Y137898D01*
D02*
G37*
G36*
X517530D02*
X514530D01*
Y134898D01*
X517530D01*
Y137898D01*
D02*
G37*
G36*
X513530D02*
X510530D01*
Y134898D01*
X513530D01*
Y137898D01*
D02*
G37*
G36*
X497352D02*
X494352D01*
Y134898D01*
X497352D01*
Y137898D01*
D02*
G37*
G36*
X493352D02*
X490352D01*
Y134898D01*
X493352D01*
Y137898D01*
D02*
G37*
G36*
X477174D02*
X474174D01*
Y134898D01*
X477174D01*
Y137898D01*
D02*
G37*
G36*
X473174D02*
X470174D01*
Y134898D01*
X473174D01*
Y137898D01*
D02*
G37*
%LPD*%
D15*
X401453Y215811D02*
X405524D01*
X401024Y216240D02*
X401453Y215811D01*
X405524D02*
X405658Y215945D01*
X406486D01*
X428453Y216232D02*
X429012Y215673D01*
X428453Y216232D02*
Y239425D01*
X407667Y214764D02*
X412500D01*
X406486Y215945D02*
X407667Y214764D01*
X412500D02*
X426575Y228839D01*
X462303Y234842D02*
Y235433D01*
X446457Y251279D02*
X462303Y235433D01*
X445154Y245374D02*
X453346Y237181D01*
X440307Y245374D02*
X445154D01*
X405020Y228445D02*
X408541Y231966D01*
X405020Y227658D02*
Y228445D01*
X426575Y228839D02*
Y239516D01*
X409375Y223152D02*
Y226050D01*
X406595Y220371D02*
X409375Y223152D01*
X406595Y220276D02*
Y220371D01*
X409375Y226050D02*
X411390Y228065D01*
X415073D01*
X402303Y236653D02*
X402559Y236398D01*
X402303Y236653D02*
Y246498D01*
X414673Y239425D02*
X414764Y239516D01*
X411003Y231966D02*
X414673Y235636D01*
Y239425D01*
X408541Y231966D02*
X411003D01*
X440307Y251279D02*
X446457D01*
X447492Y252772D02*
X457744Y242520D01*
X463386D01*
X447492Y252772D02*
Y253692D01*
X445967Y255217D02*
X447492Y253692D01*
X440307Y255217D02*
X445967D01*
X446526Y257185D02*
X454101Y249610D01*
X450150Y259154D02*
X455905Y253398D01*
X454101Y249610D02*
X457474D01*
X440307Y257185D02*
X446526D01*
X440307Y259154D02*
X450150D01*
X403057Y247252D02*
X406847D01*
X402303Y246498D02*
X403057Y247252D01*
X406847D02*
X406937Y247342D01*
X457474Y249610D02*
X461024Y253160D01*
Y257185D01*
X407874Y302461D02*
X414190Y296145D01*
X398386Y264968D02*
X406847D01*
X398057Y264640D02*
X398386Y264968D01*
X406847D02*
X406937Y265059D01*
X440307D02*
X451813D01*
X452177Y284848D02*
X458610Y278415D01*
X452177Y284848D02*
Y326760D01*
X451813Y265059D02*
X458610Y271856D01*
X445522Y333415D02*
X452177Y326760D01*
X458610Y271856D02*
Y278415D01*
X415551Y289567D02*
X420716Y284402D01*
X416823Y282276D02*
X416929Y282382D01*
X416823Y272976D02*
Y282276D01*
X416732Y272886D02*
X416823Y272976D01*
X420669Y279818D02*
X420716Y279865D01*
Y284402D01*
X420669Y272886D02*
Y279818D01*
X413142Y280813D02*
Y285677D01*
X389587Y309232D02*
X413142Y285677D01*
Y280813D02*
X414764Y279191D01*
Y272886D02*
Y279191D01*
X388976Y240945D02*
X399311Y251279D01*
X415073Y228065D02*
X416732Y229724D01*
Y239516D01*
X392488Y247146D02*
X400559Y255217D01*
X406937D01*
X387303Y247146D02*
X392488D01*
X426575Y239516D02*
X426575Y239516D01*
X424482Y282264D02*
Y285992D01*
X414190Y296145D02*
X414329D01*
X424482Y285992D01*
X424606Y279860D02*
X426270Y281524D01*
Y307982D01*
X425886Y308366D02*
X426270Y307982D01*
X422638Y280419D02*
X424482Y282264D01*
X424606Y272886D02*
Y279860D01*
X422638Y272886D02*
Y280419D01*
X389587Y309232D02*
Y320472D01*
X399311Y251279D02*
X406937D01*
X393110Y254126D02*
X394579Y252658D01*
X395472D01*
X400000Y257185D01*
X406937D01*
X393504Y259154D02*
X406937D01*
X393307Y259350D02*
X393504Y259154D01*
X471005Y265926D02*
X476575Y271496D01*
X448425Y267028D02*
X454823Y273425D01*
X460356Y261122D02*
X465160Y265926D01*
X461024Y257185D02*
X461811Y257972D01*
X440307Y261122D02*
X460356D01*
X465160Y265926D02*
X471005D01*
X440307Y263090D02*
X457283D01*
X465846Y271654D01*
X425591Y265059D02*
X440307D01*
X434449Y272886D02*
Y304528D01*
X437795Y307874D01*
X547047Y370768D02*
Y390453D01*
Y370768D02*
X547342Y370472D01*
X542717Y375492D02*
X544488Y377263D01*
Y390453D01*
X542717Y374410D02*
Y375492D01*
X541642Y387459D02*
Y390165D01*
X533907Y379724D02*
X541642Y387459D01*
X533169Y379724D02*
X533907D01*
X541642Y390165D02*
X541929Y390453D01*
X528346Y392126D02*
X530020Y390453D01*
X536811D01*
X434449Y234252D02*
Y239516D01*
X432480Y233693D02*
X435415Y230758D01*
X435630Y233071D02*
X437008D01*
X434449Y234252D02*
X435630Y233071D01*
X432480Y233693D02*
Y239516D01*
X435415Y230758D02*
X438238D01*
X437008Y233071D02*
X439370Y235433D01*
X438238Y230758D02*
X440650Y228346D01*
X439370Y235433D02*
X446358D01*
X425492Y257972D02*
X432480Y250984D01*
Y239516D02*
Y250984D01*
X412598Y267028D02*
X440307D01*
X406937D02*
X412598D01*
X412795Y267224D02*
Y272886D01*
X412598Y267028D02*
X412795Y267224D01*
X421998Y261467D02*
X425591Y265059D01*
X421998Y261467D02*
X425492Y257972D01*
X440307Y267028D02*
X448425D01*
X430512Y230315D02*
X437303Y223524D01*
X428453Y239425D02*
X428543Y239516D01*
X430512Y230315D02*
Y239516D01*
X406937Y253248D02*
X420768D01*
X425492Y257972D01*
D20*
X304035Y372342D02*
D03*
X310728D02*
D03*
X317421D02*
D03*
X324114D02*
D03*
X330807D02*
D03*
D21*
X325984Y239468D02*
D03*
Y231594D02*
D03*
X302750Y239468D02*
D03*
Y231594D02*
D03*
X325984Y259804D02*
D03*
Y267678D02*
D03*
D22*
X406937Y267028D02*
D03*
Y265059D02*
D03*
Y263090D02*
D03*
Y261122D02*
D03*
Y259154D02*
D03*
Y257185D02*
D03*
Y255217D02*
D03*
Y253248D02*
D03*
Y251279D02*
D03*
Y249311D02*
D03*
Y247342D02*
D03*
Y245374D02*
D03*
X440307D02*
D03*
Y247342D02*
D03*
Y249311D02*
D03*
Y251279D02*
D03*
Y253248D02*
D03*
Y255217D02*
D03*
Y257185D02*
D03*
Y259154D02*
D03*
Y261122D02*
D03*
Y263090D02*
D03*
Y265059D02*
D03*
Y267028D02*
D03*
D23*
X412795Y239516D02*
D03*
X414764D02*
D03*
X416732D02*
D03*
X418701D02*
D03*
X420669D02*
D03*
X422638D02*
D03*
X424606D02*
D03*
X426575D02*
D03*
X428543D02*
D03*
X430512D02*
D03*
X432480D02*
D03*
X434449D02*
D03*
Y272886D02*
D03*
X432480D02*
D03*
X430512D02*
D03*
X428543D02*
D03*
X426575D02*
D03*
X424606D02*
D03*
X422638D02*
D03*
X420669D02*
D03*
X418701D02*
D03*
X416732D02*
D03*
X414764D02*
D03*
X412795D02*
D03*
D24*
X267371Y319900D02*
D03*
Y327420D02*
D03*
Y268699D02*
D03*
Y276218D02*
D03*
X236043Y319900D02*
D03*
Y327420D02*
D03*
X289135Y193425D02*
D03*
Y185906D02*
D03*
X317609Y193425D02*
D03*
Y185906D02*
D03*
X232185Y193425D02*
D03*
Y185906D02*
D03*
X260660Y193425D02*
D03*
Y185906D02*
D03*
D25*
X267194Y294772D02*
D03*
Y301701D02*
D03*
X236220D02*
D03*
Y294772D02*
D03*
Y276100D02*
D03*
Y269171D02*
D03*
Y250499D02*
D03*
Y243570D02*
D03*
Y224899D02*
D03*
Y217969D02*
D03*
D26*
X278642Y374311D02*
D03*
X240453D02*
D03*
D27*
X360319Y364075D02*
D03*
X387319D02*
D03*
X417110Y363386D02*
D03*
X444110D02*
D03*
D28*
X389587Y320472D02*
D03*
X362382D02*
D03*
D29*
X206043Y374035D02*
D03*
X215059D02*
D03*
X224075D02*
D03*
D30*
X215059Y400374D02*
D03*
D31*
X267233Y246005D02*
D03*
Y253092D02*
D03*
D32*
X375492Y187404D02*
D03*
Y194885D02*
D03*
X303150Y260138D02*
D03*
Y267618D02*
D03*
X266437Y226476D02*
D03*
Y218996D02*
D03*
X347017Y187404D02*
D03*
Y194885D02*
D03*
D33*
X536078Y138398D02*
D03*
X543952D02*
D03*
X514030D02*
D03*
X521904D02*
D03*
X493852D02*
D03*
X501726D02*
D03*
X473674D02*
D03*
X481548D02*
D03*
D34*
X359055Y239075D02*
D03*
Y270571D02*
D03*
D35*
X508224Y214452D02*
D03*
X515224D02*
D03*
X508224Y183272D02*
D03*
X515224D02*
D03*
X508224Y245632D02*
D03*
X515224D02*
D03*
D36*
X484842Y214567D02*
D03*
X477362D02*
D03*
X484842Y182972D02*
D03*
X477362D02*
D03*
X484842Y245332D02*
D03*
X477362D02*
D03*
X483357Y350374D02*
D03*
X475876D02*
D03*
X503338D02*
D03*
X495858D02*
D03*
X529035Y348819D02*
D03*
X521555D02*
D03*
X497638Y287796D02*
D03*
X505118D02*
D03*
X498032Y313878D02*
D03*
X505512D02*
D03*
X474410Y286319D02*
D03*
X481890D02*
D03*
D37*
X357283Y142815D02*
D03*
D38*
X390748D02*
D03*
D39*
X526968Y400492D02*
D03*
X556890D02*
D03*
D40*
X529724Y390945D02*
D03*
X554134D02*
D03*
D41*
X536811Y390453D02*
D03*
X539370D02*
D03*
X541929D02*
D03*
X544488D02*
D03*
X547047D02*
D03*
D42*
X476772Y318209D02*
D03*
X480512Y309547D02*
D03*
X473032D02*
D03*
D80*
X317421Y330020D02*
D03*
D81*
X398327Y222244D02*
Y225008D01*
X395768Y219685D02*
X398327Y222244D01*
Y225008D02*
X399488Y226169D01*
X395768Y207893D02*
Y219685D01*
X375492Y194885D02*
Y209555D01*
X378346Y212409D02*
Y212697D01*
X375492Y209555D02*
X378346Y212409D01*
X370374Y223228D02*
X376279D01*
X361319Y214173D02*
X370374Y223228D01*
X377854Y224803D02*
X390689D01*
X376279Y223228D02*
X377854Y224803D01*
X388098Y218209D02*
X389771Y216535D01*
X390059D01*
X374213Y218209D02*
X388098D01*
X369783Y213779D02*
X374213Y218209D01*
X324311Y214173D02*
X361319D01*
X320669Y210531D02*
X324311Y214173D01*
X362697Y222933D02*
X375098Y235335D01*
X387154D01*
X383720Y238768D02*
X387843Y234646D01*
X321115Y222933D02*
X362697D01*
X390689Y224803D02*
X394232Y228346D01*
X369783Y211319D02*
Y213779D01*
X353940Y195475D02*
X369783Y211319D01*
X347608Y195475D02*
X353940D01*
X347017Y194885D02*
X347608Y195475D01*
X390748Y202873D02*
X395768Y207893D01*
X228051Y200847D02*
X276740D01*
X277370Y201476D01*
X277658D01*
X337402Y207094D02*
Y207382D01*
X331642Y196209D02*
Y201335D01*
X337402Y207094D01*
X328858Y193425D02*
X331642Y196209D01*
X289135Y193425D02*
X317609D01*
X328858D01*
X319666Y224095D02*
X319953D01*
X321115Y222933D01*
X463661Y351555D02*
Y392224D01*
X452756Y340650D02*
X463661Y351555D01*
X480512Y308760D02*
Y310335D01*
X485630Y315453D01*
Y325394D01*
X470374Y340650D02*
X485630Y325394D01*
X499508Y324319D02*
X501083Y325893D01*
X498622Y314469D02*
Y316283D01*
X499508Y317169D01*
Y324319D01*
X498032Y313878D02*
X498622Y314469D01*
X501083Y325893D02*
Y326181D01*
X509252Y320736D02*
Y321024D01*
X508846Y320330D02*
X509252Y320736D01*
X505512Y313878D02*
X506103Y314469D01*
Y314862D02*
X508846Y317606D01*
X506103Y314469D02*
Y314862D01*
X508846Y317606D02*
Y320330D01*
X527772Y374327D02*
X533169Y379724D01*
X516240Y360576D02*
X516831Y361167D01*
X514272Y271440D02*
X516831Y273999D01*
X527772Y373499D02*
Y374327D01*
X514272Y271161D02*
Y271440D01*
X516240Y344724D02*
X516831Y344133D01*
Y273999D02*
Y344133D01*
X522001Y367440D02*
Y367728D01*
X516240Y344724D02*
Y360576D01*
X522001Y367728D02*
X527772Y373499D01*
X493661Y389665D02*
X516831Y366496D01*
Y361167D02*
Y366496D01*
X521904Y128839D02*
Y138398D01*
X501726Y128839D02*
X521904D01*
X541646D01*
X501726D02*
Y138398D01*
X483854Y128839D02*
X501726D01*
X481548Y131145D02*
X483854Y128839D01*
X481548Y131145D02*
Y138398D01*
X541646Y128839D02*
X543952Y131145D01*
Y180863D01*
X259252Y210531D02*
X320669D01*
X244039Y219629D02*
X245036D01*
X236535Y217654D02*
X236598Y217717D01*
X242127D02*
X244039Y219629D01*
X245036D02*
X247342Y221935D01*
X236598Y217717D02*
X242127D01*
X247342Y221935D02*
Y224016D01*
X248425Y225098D01*
Y231975D01*
X265847Y225886D02*
X266437Y226476D01*
X262646Y225886D02*
X265847D01*
X235905Y218284D02*
X236535Y217654D01*
X207087Y193425D02*
X232185D01*
X260660D01*
X247488Y210728D02*
X262646Y225886D01*
X236830Y243570D02*
X248425Y231975D01*
X212795Y228445D02*
X222956Y218284D01*
X235905D01*
X212795Y228445D02*
Y245276D01*
X225148Y206102D02*
X229774Y210728D01*
X247488D01*
X252244Y185906D02*
X260660D01*
X247933Y181595D02*
X252244Y185906D01*
X247933Y157382D02*
Y181595D01*
X198031Y183181D02*
X203241Y177971D01*
X198031Y183181D02*
Y206937D01*
X190315Y214654D02*
X198031Y206937D01*
X169291Y167365D02*
X171598Y165059D01*
X169291Y167365D02*
Y172539D01*
X164370Y177461D02*
Y233169D01*
Y177461D02*
X169291Y172539D01*
X171598Y165059D02*
X184941D01*
X198130Y228732D02*
Y245866D01*
X197202Y224543D02*
Y227804D01*
X198130Y228732D01*
X197202Y224543D02*
X200787Y220957D01*
X183001Y322186D02*
X189229D01*
X191535Y324493D01*
Y340846D01*
X153894Y367168D02*
X174705Y346358D01*
X186024D02*
X191535Y340846D01*
X174705Y346358D02*
X186024D01*
X213583Y300787D02*
X222244D01*
X223819Y302362D01*
X264572Y263085D02*
X267233Y260424D01*
X264559Y263085D02*
X264572D01*
X257388Y270256D02*
X264559Y263085D01*
X257388Y270256D02*
Y274895D01*
X267233Y253092D02*
Y260424D01*
X257185Y275098D02*
X257388Y274895D01*
X248320Y250499D02*
X254035Y244783D01*
X257449D01*
X236220Y250499D02*
X236830D01*
X248320D01*
X267961Y268699D02*
X277553Y259107D01*
Y258668D02*
X277756Y258465D01*
X267371Y268699D02*
X267961D01*
X277553Y258668D02*
Y259107D01*
X277756Y258465D02*
X292224Y272933D01*
X299508D01*
X293406Y299016D02*
X347694D01*
X283521Y308901D02*
X293406Y299016D01*
X299508Y272933D02*
X312894Y286319D01*
X283521Y308901D02*
Y349508D01*
X258473Y245808D02*
X267036D01*
X257449Y244783D02*
X258473Y245808D01*
X248425Y262094D02*
Y275492D01*
X236220Y276100D02*
X247817D01*
X248425Y275492D01*
X236830Y250499D02*
X248425Y262094D01*
Y275492D02*
Y302264D01*
X223819Y302362D02*
Y308267D01*
X204724Y294488D02*
Y314870D01*
X205008Y294772D02*
X236220D01*
X204724Y270866D02*
Y294488D01*
X205008Y294772D01*
X236220Y301701D02*
X247862D01*
X223819Y308267D02*
X235452Y319900D01*
X247862Y301701D02*
X248425Y302264D01*
X235452Y319900D02*
X236043D01*
X453346Y219882D02*
Y237181D01*
Y219882D02*
X458662Y214567D01*
X477362D01*
X295866Y222441D02*
X310149D01*
X311149Y231280D02*
X311352Y231077D01*
X318771Y231063D02*
X325452D01*
X310149Y222441D02*
X318771Y231063D01*
X325452D02*
X325984Y231594D01*
X303064Y231280D02*
X311149D01*
X302750Y231594D02*
X303064Y231280D01*
X293110Y225197D02*
X295866Y222441D01*
X282481Y218996D02*
X282720Y218757D01*
X287789Y218989D02*
X287992Y219193D01*
X286214Y218989D02*
X287789D01*
X285981Y218757D02*
X286214Y218989D01*
X282720Y218757D02*
X285981D01*
X293110Y225197D02*
Y250098D01*
X302165Y259154D01*
X302756Y260138D02*
X303150D01*
X302165Y259547D02*
X302756Y260138D01*
X302165Y259154D02*
Y259547D01*
X266437Y218996D02*
X282481D01*
X200787Y220669D02*
Y220957D01*
X190315Y214654D02*
Y235079D01*
X183366Y242028D02*
X190315Y235079D01*
X207087Y206102D02*
Y237303D01*
X206419Y237970D02*
X207087Y237303D01*
X183366Y251870D02*
X183480Y251756D01*
X192240D01*
X198130Y245866D01*
X206419Y237970D02*
Y269171D01*
X207087Y187116D02*
X218406Y175797D01*
X207087Y206102D02*
X225148D01*
X207087Y187116D02*
Y193425D01*
X218406Y157382D02*
Y175797D01*
X207087Y193425D02*
Y206102D01*
X206419Y269171D02*
X236220D01*
X222288Y238220D02*
X235610Y224899D01*
X222288Y241481D02*
X230992Y250184D01*
X222288Y238220D02*
Y241481D01*
X203241Y170971D02*
X203445Y170768D01*
X203241Y170971D02*
Y177971D01*
X261597Y179872D02*
X268455D01*
X275098Y186516D01*
X254953Y173228D02*
X261597Y179872D01*
X260660Y193425D02*
X289135D01*
X206890Y317036D02*
Y343110D01*
X204724Y270866D02*
X206419Y269171D01*
X236220Y243570D02*
X236830D01*
X153894Y370430D02*
X156201Y372736D01*
X153894Y367168D02*
Y370430D01*
X156201Y372736D02*
X184153D01*
X467717Y250394D02*
X468004D01*
X469579Y248819D01*
X470473D01*
X473960Y245332D01*
X477362D01*
X480512Y308760D02*
X484555D01*
X524514Y309147D02*
X530459D01*
X548996Y290610D01*
X524311Y309350D02*
X524514Y309147D01*
X484555Y308760D02*
X485244Y308071D01*
X485532D01*
X492323Y283701D02*
Y329527D01*
X476467Y345384D02*
X492323Y329527D01*
X481890Y286713D02*
X486509Y291332D01*
Y292316D01*
X481890Y286319D02*
Y286713D01*
X486509Y292316D02*
X486713Y292520D01*
X455965Y286417D02*
X456014Y286368D01*
X474361D02*
X474410Y286319D01*
X456014Y286368D02*
X474361D01*
X480217Y300590D02*
Y300878D01*
X473032Y308760D02*
X474445Y307346D01*
Y306649D02*
Y307346D01*
Y306649D02*
X480217Y300878D01*
X473032Y308760D02*
Y309547D01*
X364469Y145669D02*
X371063Y139075D01*
X347411Y187404D02*
X364469Y170347D01*
Y145669D02*
Y170347D01*
X371063Y133999D02*
Y139075D01*
Y133999D02*
X373369Y131693D01*
X419249D01*
X375492Y161075D02*
Y187404D01*
X371102Y156685D02*
X375492Y161075D01*
X371102Y156398D02*
Y156685D01*
X419249Y131693D02*
X421555Y133999D01*
Y137894D01*
X160476Y330011D02*
X183545D01*
X158169Y166885D02*
Y327705D01*
X160476Y330011D01*
X158169Y166885D02*
X201924Y123130D01*
X182264Y321449D02*
X183001Y322186D01*
X172849Y312034D02*
X175410D01*
X166732Y286154D02*
Y305917D01*
X175410Y312034D02*
X183545Y320169D01*
X166732Y305917D02*
X172849Y312034D01*
X201924Y123130D02*
X567323D01*
X410925Y148524D02*
X421555Y137894D01*
X567323Y123130D02*
X581791Y137598D01*
Y250984D01*
X543947Y367077D02*
X547342Y370472D01*
X538386Y361516D02*
X543947Y367077D01*
X569439D02*
X604134Y332382D01*
X543947Y367077D02*
X569439D01*
X604134Y273327D02*
Y332382D01*
X581791Y250984D02*
X604134Y273327D01*
X383720Y238768D02*
Y243563D01*
X387843Y234646D02*
X395366D01*
X399488Y230523D01*
Y226169D02*
Y230523D01*
X383720Y243563D02*
X387303Y247146D01*
X390748Y142815D02*
Y202873D01*
X410925Y172441D02*
X417579Y179095D01*
X429173D01*
X410925Y148524D02*
Y172441D01*
X347017Y187404D02*
X347411D01*
X369488Y239075D02*
X384539Y254126D01*
X346063Y239075D02*
X359055D01*
X369488D01*
X384539Y254126D02*
X393110D01*
X382087Y270571D02*
X393307Y259350D01*
X359055Y270571D02*
X382087D01*
X476467Y345384D02*
Y349783D01*
X475876Y350374D02*
X476467Y349783D01*
X493405Y273819D02*
Y282619D01*
X492323Y283701D02*
X493405Y282619D01*
X461811Y257972D02*
X464665Y260827D01*
X581791D01*
X474925Y328378D02*
X476772Y326531D01*
X474925Y328378D02*
Y328665D01*
X476772Y318209D02*
Y326531D01*
X475394Y369791D02*
Y370079D01*
X475876Y350374D02*
Y369308D01*
X475394Y369791D02*
X475876Y369308D01*
X452756Y340650D02*
X470374D01*
X494783Y360834D02*
X495858Y359760D01*
X494783Y360834D02*
Y361122D01*
X495858Y350374D02*
Y359760D01*
X529429Y355217D02*
X529528Y355118D01*
X529429Y355217D02*
Y356004D01*
X529528Y349311D02*
Y355118D01*
X521555Y348819D02*
Y359209D01*
X523861Y361516D01*
X538386D01*
X529035Y348819D02*
X529528Y349311D01*
X483357Y359636D02*
X498130Y374410D01*
X499409D01*
X493661Y389665D02*
Y392224D01*
X483357Y350374D02*
Y359636D01*
X503928Y358909D02*
X503937Y358917D01*
Y367323D01*
X503338Y350374D02*
X503928Y350964D01*
Y358909D01*
X554331Y390945D02*
X555512Y392126D01*
X554134Y390945D02*
X554331D01*
X555512Y399114D02*
X556890Y400492D01*
X555512Y392126D02*
Y399114D01*
X526968Y400492D02*
X556890D01*
X528346Y392126D02*
Y399114D01*
X526968Y400492D02*
X528346Y399114D01*
X526870Y400591D02*
X526968Y400492D01*
X512303Y402897D02*
Y405568D01*
X514609Y400591D02*
X526870D01*
X512303Y402897D02*
X514609Y400591D01*
X509997Y407874D02*
X512303Y405568D01*
X466201Y407874D02*
X509997D01*
X463661Y405335D02*
X466201Y407874D01*
X463661Y392224D02*
Y405335D01*
X445522Y333415D02*
X452756Y340650D01*
X522736Y253143D02*
X524403D01*
X515224Y245632D02*
X522736Y253143D01*
X524403D02*
X524606Y253346D01*
X515224Y214452D02*
Y245632D01*
X429625Y189094D02*
X439173D01*
X434449Y209055D02*
X442559Y217165D01*
Y226437D01*
X440650Y228346D02*
X442559Y226437D01*
X434449Y194370D02*
Y209055D01*
X429625Y189094D02*
X430534Y190004D01*
Y190455D01*
X434449Y194370D01*
X429173Y189094D02*
X429625D01*
X477362Y170276D02*
Y182972D01*
Y155657D02*
Y170276D01*
X439173Y189094D02*
X461375D01*
X463681Y172877D02*
Y186788D01*
Y172877D02*
X465987Y170571D01*
X477067D01*
X477362Y170276D01*
X461375Y189094D02*
X463681Y186788D01*
X473674Y151969D02*
X477362Y155657D01*
X484992Y183122D02*
X508074D01*
X484842Y182972D02*
X484992Y183122D01*
X508074D02*
X508224Y183272D01*
X484899Y214509D02*
X508167D01*
X484842Y214567D02*
X484899Y214509D01*
X508167D02*
X508224Y214452D01*
X484992Y245482D02*
X508074D01*
X484842Y245332D02*
X484992Y245482D01*
X508074D02*
X508224Y245632D01*
X515224Y183272D02*
Y214452D01*
Y183272D02*
X541543D01*
X543952Y180863D01*
X473674Y138398D02*
Y151969D01*
X512402Y161473D02*
X514708Y163779D01*
X511657Y160728D02*
X512402Y161473D01*
X491546Y151969D02*
X492421Y152844D01*
X494728Y160728D02*
X511657D01*
X492421Y158422D02*
X494728Y160728D01*
X492421Y152844D02*
Y158422D01*
X514030Y138398D02*
Y149121D01*
X512402Y150750D02*
X514030Y149121D01*
X514708Y163779D02*
X533324D01*
X512402Y150750D02*
Y161473D01*
X533324Y163779D02*
X535630Y161473D01*
Y153150D02*
Y161473D01*
X536078Y138398D02*
Y152701D01*
X535630Y153150D02*
X536078Y152701D01*
X491546Y151969D02*
X493852Y149662D01*
X473674Y151969D02*
X491546D01*
X493852Y138398D02*
Y149662D01*
X173819Y212795D02*
X183366Y222342D01*
X173819Y205709D02*
Y212795D01*
Y205709D02*
X184941Y194587D01*
X267194Y276376D02*
Y294772D01*
Y276376D02*
X267351Y276218D01*
X267371D01*
X267478Y319900D02*
X267961D01*
X267194Y294772D02*
X267509Y295087D01*
X273869D02*
X274311Y295529D01*
X267509Y295087D02*
X273869D01*
X267371Y319900D02*
X267478D01*
X274311Y313067D01*
Y295529D02*
Y313067D01*
X387106Y364287D02*
X387319Y364075D01*
X387106Y364287D02*
Y389469D01*
X300886Y306201D02*
X338583D01*
X296063Y311024D02*
X300886Y306201D01*
X295670Y311024D02*
X296063D01*
X289026Y317667D02*
X295670Y311024D01*
X289026Y317667D02*
Y359006D01*
X278642Y369390D02*
X289026Y359006D01*
X278642Y369390D02*
Y374311D01*
X347694Y299016D02*
X350000Y301322D01*
X275000Y326624D02*
Y339764D01*
X271217Y322842D02*
X275000Y326624D01*
X267961Y319900D02*
X270903Y322842D01*
X271217D01*
X310531Y386910D02*
X310709Y386732D01*
Y372362D02*
X310728Y372342D01*
X310709Y372362D02*
Y386732D01*
X356594Y296351D02*
X362382Y302138D01*
Y320472D01*
X356594Y296063D02*
Y296351D01*
X243406Y391142D02*
X262402D01*
X232382Y402165D02*
X243406Y391142D01*
X321063Y396169D02*
X324114Y393118D01*
X321063Y396169D02*
Y396457D01*
X324114Y372342D02*
Y393118D01*
X330807Y377815D02*
X330827Y377835D01*
X342106D01*
X344094Y379823D01*
X330807Y372342D02*
Y377815D01*
X240453Y379232D02*
X244193Y382972D01*
X240453Y374311D02*
Y379232D01*
X244193Y382972D02*
X254232D01*
X262402Y391142D01*
X316988Y330610D02*
X317421D01*
Y372342D01*
Y330020D02*
Y330610D01*
X304035Y343563D02*
X316988Y330610D01*
X304035Y343563D02*
Y372342D01*
X350000Y301322D02*
Y342028D01*
X344094Y345965D02*
X348031Y342028D01*
X350854Y407382D02*
X357547Y400689D01*
X293819Y407382D02*
X350854D01*
X287402Y400965D02*
X293819Y407382D01*
X438287Y326181D02*
X445522Y333415D01*
X393878Y324764D02*
X395295Y326181D01*
X438287D01*
X389587Y320472D02*
Y322303D01*
X392047Y324764D01*
X393878D01*
X417110Y390665D02*
X418669Y392224D01*
X463661D01*
X357547Y400689D02*
X360319Y397917D01*
X357547Y400689D02*
X407087D01*
X417110Y363386D02*
Y390665D01*
X407087Y400689D02*
X417110Y390665D01*
X287402Y400965D02*
X304114D01*
X260187D02*
X287402D01*
X360319Y364075D02*
Y397917D01*
X344094Y345965D02*
Y379823D01*
X348031Y342028D02*
X422752D01*
X444110Y363386D01*
X300942Y139524D02*
X304232Y142815D01*
X289665Y147539D02*
Y157382D01*
Y147539D02*
X297680Y139524D01*
X300942D01*
X304232Y142815D02*
X357283D01*
X235905Y250184D02*
X236220Y250499D01*
X230992Y250184D02*
X235905D01*
X235610Y224899D02*
X236220D01*
X248425Y302264D02*
Y325114D01*
Y302264D02*
X248988Y301701D01*
X267194D01*
X248425Y325114D02*
X250731Y327420D01*
X267371D01*
X267036Y245808D02*
X267233Y246005D01*
X268005Y238884D02*
Y245808D01*
Y238884D02*
X268209Y238681D01*
X267233Y246005D02*
X267808D01*
X268005Y245808D01*
X311417Y239468D02*
X325984D01*
X302750D02*
X311417D01*
X314075Y242126D02*
Y251279D01*
X311417Y239468D02*
X314075Y242126D01*
X164370Y233169D02*
Y279180D01*
X165354Y232185D02*
X183366D01*
X164370Y233169D02*
X165354Y232185D01*
X164370Y279180D02*
X169038Y283848D01*
X166732Y286154D02*
X169038Y283848D01*
X183545D01*
X205906Y373425D02*
X206043Y373563D01*
X184843Y373425D02*
X205906D01*
X184153Y372736D02*
X184843Y373425D01*
X206043Y373563D02*
Y374035D01*
X304114Y400965D02*
X304134Y400945D01*
X209350Y407874D02*
X253278D01*
X304134Y372342D02*
Y400945D01*
X253278Y407874D02*
X260187Y400965D01*
X189665Y404528D02*
X206004D01*
X209350Y407874D01*
X184153Y399016D02*
X189665Y404528D01*
X184153Y372736D02*
Y399016D01*
X325984Y239468D02*
Y259804D01*
X338582Y231594D02*
X346063Y239075D01*
X325984Y231594D02*
X338582D01*
X303180Y267648D02*
X325954D01*
X325984Y267678D01*
X303150Y267618D02*
X303180Y267648D01*
X358661Y267678D02*
X359055Y268072D01*
Y270571D01*
X325984Y267678D02*
X358661D01*
X309350Y178237D02*
X317019Y185906D01*
X317609D01*
X309350Y157382D02*
Y178237D01*
X289725Y185906D02*
X299508Y176123D01*
Y157382D02*
Y176123D01*
X289135Y185906D02*
X289725D01*
X232776D02*
X238090Y180591D01*
X232185Y185906D02*
X232776D01*
X238090Y157382D02*
Y180591D01*
X218406Y144685D02*
Y157382D01*
Y144685D02*
X227165Y135925D01*
X273031D01*
X279823Y142717D01*
Y157382D01*
X183545Y293690D02*
X204724Y314870D01*
X206890Y317036D01*
X219762Y343110D02*
X235452Y327420D01*
X206890Y343110D02*
X219762D01*
X235452Y327420D02*
X236043D01*
X215059Y374035D02*
Y374508D01*
X195873Y393694D02*
X215059Y374508D01*
X195873Y393694D02*
Y397730D01*
X195669Y397933D02*
X195873Y397730D01*
X227264Y349508D02*
X283521D01*
X224075Y352697D02*
X227264Y349508D01*
X224075Y352697D02*
Y365200D01*
X221769Y362894D02*
X224075Y365200D01*
X184153Y362894D02*
X221769D01*
X224075Y365200D02*
Y374035D01*
D82*
X538996Y290610D02*
D03*
D83*
X548996D02*
D03*
Y320610D02*
D03*
X538996D02*
D03*
D84*
X184153Y362894D02*
D03*
X183545Y320169D02*
D03*
Y283848D02*
D03*
D85*
X184153Y372736D02*
D03*
X183545Y330011D02*
D03*
Y293690D02*
D03*
D86*
X493661Y392224D02*
D03*
X483661D02*
D03*
X473661D02*
D03*
D87*
X463661D02*
D03*
D88*
X439173Y179095D02*
D03*
Y169095D02*
D03*
X429173D02*
D03*
Y179095D02*
D03*
X439173Y189094D02*
D03*
X429173D02*
D03*
D89*
X279823Y157382D02*
D03*
X289665D02*
D03*
X299508D02*
D03*
X218406D02*
D03*
X228248D02*
D03*
X238090D02*
D03*
X581791Y250984D02*
D03*
Y260827D02*
D03*
Y270669D02*
D03*
X184941Y194587D02*
D03*
Y184744D02*
D03*
Y174902D02*
D03*
X183366Y251870D02*
D03*
Y242028D02*
D03*
Y232185D02*
D03*
D90*
X309350Y157382D02*
D03*
X247933D02*
D03*
D91*
X581791Y280512D02*
D03*
X184941Y165059D02*
D03*
X183366Y222342D02*
D03*
D92*
X604134Y332382D02*
D03*
X574705D02*
D03*
D93*
X158957Y399410D02*
D03*
Y133268D02*
D03*
X606201D02*
D03*
Y399410D02*
D03*
D94*
X378346Y212697D02*
D03*
X390059Y216535D02*
D03*
X401024Y216240D02*
D03*
X277658Y201476D02*
D03*
X337402Y207382D02*
D03*
X429012Y215673D02*
D03*
X501083Y326181D02*
D03*
X509252Y321024D02*
D03*
X522001Y367440D02*
D03*
X259252Y210531D02*
D03*
X213583Y300787D02*
D03*
X257185Y275098D02*
D03*
X277756Y258465D02*
D03*
X462303Y234842D02*
D03*
X405020Y227658D02*
D03*
X406595Y220276D02*
D03*
X402559Y236398D02*
D03*
X319666Y224095D02*
D03*
X311352Y231077D02*
D03*
X287992Y219193D02*
D03*
X200787Y220669D02*
D03*
X212795Y245276D02*
D03*
X455905Y253398D02*
D03*
X254953Y173228D02*
D03*
X275098Y186516D02*
D03*
X203445Y170768D02*
D03*
X228051Y200847D02*
D03*
X206890Y343110D02*
D03*
X312894Y286319D02*
D03*
X467717Y250394D02*
D03*
X463386Y242520D02*
D03*
X407874Y302461D02*
D03*
X398057Y264640D02*
D03*
X524311Y309350D02*
D03*
X485532Y308071D02*
D03*
X486713Y292520D02*
D03*
X455965Y286417D02*
D03*
X480217Y300590D02*
D03*
X416929Y282382D02*
D03*
X371102Y156398D02*
D03*
X394232Y228346D02*
D03*
X388976Y240945D02*
D03*
X415551Y289567D02*
D03*
X493405Y273819D02*
D03*
X476575Y271496D02*
D03*
X454823Y273425D02*
D03*
X474925Y328665D02*
D03*
X475394Y370079D02*
D03*
X437795Y307874D02*
D03*
X494783Y361122D02*
D03*
X529429Y356004D02*
D03*
X542717Y374410D02*
D03*
X499409D02*
D03*
X503937Y367323D02*
D03*
X465846Y271654D02*
D03*
X446358Y235433D02*
D03*
X524606Y253346D02*
D03*
X514272Y271161D02*
D03*
X437303Y223524D02*
D03*
X387106Y389469D02*
D03*
X338583Y306201D02*
D03*
X275000Y339764D02*
D03*
X310531Y386910D02*
D03*
X356594Y296063D02*
D03*
X232382Y402165D02*
D03*
X321063Y396457D02*
D03*
X268209Y238681D02*
D03*
X314075Y251279D02*
D03*
X425886Y308366D02*
D03*
X195669Y397933D02*
D03*
M02*
