G04*
G04 #@! TF.GenerationSoftware,Altium Limited,Altium Designer,22.1.2 (22)*
G04*
G04 Layer_Color=16711935*
%FSLAX25Y25*%
%MOIN*%
G70*
G04*
G04 #@! TF.SameCoordinates,3CC87442-B0F0-4D04-9EAA-D9769B1F071C*
G04*
G04*
G04 #@! TF.FilePolarity,Positive*
G04*
G01*
G75*
%ADD10C,0.00787*%
%ADD12C,0.00500*%
%ADD15C,0.01000*%
%ADD16C,0.00800*%
G36*
X269595Y247580D02*
Y245611D01*
X264871D01*
Y247580D01*
X269595D01*
D02*
G37*
G36*
Y253485D02*
Y251517D01*
X264871D01*
Y253485D01*
X269595D01*
D02*
G37*
D10*
X332776Y382579D02*
G03*
X332776Y382579I-394J0D01*
G01*
X539390Y286280D02*
G03*
X539390Y286280I-394J0D01*
G01*
X355906Y320472D02*
G03*
X355906Y320472I-394J0D01*
G01*
X264871Y245611D02*
Y253485D01*
X269595D01*
Y245611D02*
Y253485D01*
X264871Y245611D02*
X269595D01*
D12*
X608268Y332382D02*
G03*
X608268Y332382I-18898J0D01*
G01*
X337421Y322075D02*
Y357197D01*
X297421D02*
X337421D01*
X297421Y322075D02*
Y357197D01*
Y322075D02*
X337421D01*
X533957Y291831D02*
Y319390D01*
X554035Y291831D02*
Y319390D01*
X533957Y291831D02*
X554035D01*
X533957Y319390D02*
X554035D01*
X270048Y319526D02*
Y327794D01*
X264694Y319526D02*
Y327794D01*
X270048D01*
X264694Y319526D02*
X270048D01*
X264359Y302567D02*
X270028D01*
X264359Y293906D02*
X270028D01*
Y302567D01*
X264359Y293906D02*
Y302567D01*
X270048Y268325D02*
Y276592D01*
X264694Y268325D02*
Y276592D01*
X270048D01*
X264694Y268325D02*
X270048D01*
X381988Y380413D02*
X390158Y372244D01*
X357480Y380413D02*
X381988D01*
X357480Y347736D02*
Y380413D01*
Y347736D02*
X381988D01*
X390158Y355906D01*
Y372244D01*
X362451Y332087D02*
X389518D01*
Y308858D02*
Y332087D01*
X362451Y308858D02*
Y332087D01*
Y308858D02*
X389518D01*
X438779Y379724D02*
X446949Y371555D01*
X414272Y379724D02*
X438779D01*
X414272Y347047D02*
Y379724D01*
Y347047D02*
X438779D01*
X446949Y355217D01*
Y371555D01*
X201831Y379882D02*
Y394528D01*
X228287D01*
Y379882D02*
Y394528D01*
X201831Y379882D02*
X228287D01*
X238720Y319526D02*
Y327794D01*
X233366Y319526D02*
Y327794D01*
X238720D01*
X233366Y319526D02*
X238720D01*
X233385Y293906D02*
X239054D01*
X233385Y302567D02*
X239054D01*
X233385Y293906D02*
Y302567D01*
X239054Y293906D02*
Y302567D01*
X233385Y268305D02*
X239054D01*
X233385Y276966D02*
X239054D01*
X233385Y268305D02*
Y276966D01*
X239054Y268305D02*
Y276966D01*
X233385Y242704D02*
X239054D01*
X233385Y251365D02*
X239054D01*
X233385Y242704D02*
Y251365D01*
X239054Y242704D02*
Y251365D01*
X233385Y217103D02*
X239054D01*
X233385Y225765D02*
X239054D01*
X233385Y217103D02*
Y225765D01*
X239054Y217103D02*
Y225765D01*
X286457Y185531D02*
Y193799D01*
X291812Y185531D02*
Y193799D01*
X286457Y185531D02*
X291812D01*
X286457Y193799D02*
X291812D01*
X314932Y185531D02*
Y193799D01*
X320286Y185531D02*
Y193799D01*
X314932Y185531D02*
X320286D01*
X314932Y193799D02*
X320286D01*
X229508Y185531D02*
Y193799D01*
X234862Y185531D02*
Y193799D01*
X229508Y185531D02*
X234862D01*
X229508Y193799D02*
X234862D01*
X257983Y185531D02*
Y193799D01*
X263337Y185531D02*
Y193799D01*
X257983Y185531D02*
X263337D01*
X257983Y193799D02*
X263337D01*
D15*
X608680Y348130D02*
Y344798D01*
X610346Y346464D02*
X607014D01*
X572224Y348130D02*
Y344798D01*
D16*
X482372Y311278D02*
Y316478D01*
X471172Y311278D02*
X482372D01*
X471172D02*
Y316478D01*
X482372D01*
M02*
