G04*
G04 #@! TF.GenerationSoftware,Altium Limited,Altium Designer,22.1.2 (22)*
G04*
G04 Layer_Color=128*
%FSLAX25Y25*%
%MOIN*%
G70*
G04*
G04 #@! TF.SameCoordinates,3CC87442-B0F0-4D04-9EAA-D9769B1F071C*
G04*
G04*
G04 #@! TF.FilePolarity,Positive*
G04*
G01*
G75*
%ADD97C,0.00200*%
D97*
X537323Y290610D02*
X540669D01*
X538996Y288937D02*
Y292284D01*
X547323Y290610D02*
X550669D01*
X548996Y288937D02*
Y292284D01*
X547323Y320610D02*
X550669D01*
X548996Y318937D02*
Y322284D01*
X537323Y320610D02*
X540669D01*
X538996Y318937D02*
Y322284D01*
X181496Y362894D02*
X186811D01*
X184153Y360236D02*
Y365551D01*
X181496Y372736D02*
X186811D01*
X184153Y370079D02*
Y375394D01*
X492087Y392224D02*
X495236D01*
X493661Y390650D02*
Y393799D01*
X482087Y392224D02*
X485236D01*
X483661Y390650D02*
Y393799D01*
X472087Y392224D02*
X475236D01*
X473661Y390650D02*
Y393799D01*
X462087Y392224D02*
X465236D01*
X463661Y390650D02*
Y393799D01*
X437402Y179095D02*
X440945D01*
X439173Y177323D02*
Y180866D01*
X437402Y169095D02*
X440945D01*
X439173Y167323D02*
Y170866D01*
X427402Y169095D02*
X430945D01*
X429173Y167323D02*
Y170866D01*
X427402Y179095D02*
X430945D01*
X429173Y177323D02*
Y180866D01*
X437402Y189094D02*
X440945D01*
X439173Y187323D02*
Y190866D01*
X427402Y189094D02*
X430945D01*
X429173Y187323D02*
Y190866D01*
X277854Y157382D02*
X281791D01*
X279823Y155413D02*
Y159350D01*
X287697Y157382D02*
X291634D01*
X289665Y155413D02*
Y159350D01*
X297539Y157382D02*
X301476D01*
X299508Y155413D02*
Y159350D01*
X307382Y157382D02*
X311319D01*
X309350Y155413D02*
Y159350D01*
X216437Y157382D02*
X220374D01*
X218406Y155413D02*
Y159350D01*
X226279Y157382D02*
X230217D01*
X228248Y155413D02*
Y159350D01*
X236122Y157382D02*
X240059D01*
X238090Y155413D02*
Y159350D01*
X245965Y157382D02*
X249902D01*
X247933Y155413D02*
Y159350D01*
X579823Y250984D02*
X583760D01*
X581791Y249016D02*
Y252953D01*
X579823Y260827D02*
X583760D01*
X581791Y258858D02*
Y262795D01*
X579823Y270669D02*
X583760D01*
X581791Y268701D02*
Y272638D01*
X579823Y280512D02*
X583760D01*
X581791Y278543D02*
Y282480D01*
X182972Y194587D02*
X186909D01*
X184941Y192618D02*
Y196555D01*
X182972Y184744D02*
X186909D01*
X184941Y182776D02*
Y186713D01*
X182972Y174902D02*
X186909D01*
X184941Y172933D02*
Y176870D01*
X182972Y165059D02*
X186909D01*
X184941Y163091D02*
Y167027D01*
X180887Y320169D02*
X186202D01*
X183545Y317511D02*
Y322826D01*
X180887Y330011D02*
X186202D01*
X183545Y327354D02*
Y332669D01*
X180887Y283848D02*
X186202D01*
X183545Y281190D02*
Y286506D01*
X180887Y293690D02*
X186202D01*
X183545Y291033D02*
Y296348D01*
X181398Y251870D02*
X185335D01*
X183366Y249902D02*
Y253839D01*
X181398Y242028D02*
X185335D01*
X183366Y240059D02*
Y243996D01*
X181398Y232185D02*
X185335D01*
X183366Y230217D02*
Y234154D01*
X181398Y222342D02*
X185335D01*
X183366Y220374D02*
Y224311D01*
X602559Y332382D02*
X605709D01*
X604134Y330807D02*
Y333957D01*
X573130Y332382D02*
X576279D01*
X574705Y330807D02*
Y333957D01*
X152657Y399410D02*
X165256D01*
X158957Y393110D02*
Y405709D01*
X152657Y133268D02*
X165256D01*
X158957Y126969D02*
Y139567D01*
X599902Y133268D02*
X612500D01*
X606201Y126969D02*
Y139567D01*
X599902Y399410D02*
X612500D01*
X606201Y393110D02*
Y405709D01*
X376946Y212697D02*
X379747D01*
X378346Y211297D02*
Y214097D01*
X388659Y216535D02*
X391459D01*
X390059Y215135D02*
Y217935D01*
X399624Y216240D02*
X402424D01*
X401024Y214840D02*
Y217640D01*
X276257Y201476D02*
X279058D01*
X277658Y200076D02*
Y202876D01*
X336002Y207382D02*
X338802D01*
X337402Y205982D02*
Y208782D01*
X427612Y215673D02*
X430412D01*
X429012Y214273D02*
Y217073D01*
X499683Y326181D02*
X502483D01*
X501083Y324781D02*
Y327581D01*
X507852Y321024D02*
X510652D01*
X509252Y319624D02*
Y322424D01*
X520601Y367440D02*
X523401D01*
X522001Y366040D02*
Y368840D01*
X257852Y210531D02*
X260652D01*
X259252Y209132D02*
Y211931D01*
X212183Y300787D02*
X214983D01*
X213583Y299387D02*
Y302187D01*
X255785Y275098D02*
X258585D01*
X257185Y273698D02*
Y276498D01*
X276356Y258465D02*
X279156D01*
X277756Y257065D02*
Y259865D01*
X460903Y234842D02*
X463703D01*
X462303Y233442D02*
Y236243D01*
X403620Y227658D02*
X406420D01*
X405020Y226257D02*
Y229058D01*
X405195Y220276D02*
X407995D01*
X406595Y218876D02*
Y221676D01*
X401159Y236398D02*
X403959D01*
X402559Y234998D02*
Y237798D01*
X318266Y224095D02*
X321066D01*
X319666Y222695D02*
Y225495D01*
X309952Y231077D02*
X312752D01*
X311352Y229677D02*
Y232477D01*
X286592Y219193D02*
X289392D01*
X287992Y217793D02*
Y220593D01*
X199387Y220669D02*
X202187D01*
X200787Y219269D02*
Y222069D01*
X211395Y245276D02*
X214195D01*
X212795Y243876D02*
Y246676D01*
X454505Y253398D02*
X457305D01*
X455905Y251998D02*
Y254798D01*
X253553Y173228D02*
X256353D01*
X254953Y171828D02*
Y174628D01*
X273698Y186516D02*
X276498D01*
X275098Y185116D02*
Y187916D01*
X202045Y170768D02*
X204845D01*
X203445Y169368D02*
Y172168D01*
X226651Y200847D02*
X229451D01*
X228051Y199446D02*
Y202246D01*
X205490Y343110D02*
X208290D01*
X206890Y341710D02*
Y344510D01*
X311494Y286319D02*
X314294D01*
X312894Y284919D02*
Y287719D01*
X466317Y250394D02*
X469116D01*
X467717Y248994D02*
Y251794D01*
X461986Y242520D02*
X464786D01*
X463386Y241120D02*
Y243920D01*
X406474Y302461D02*
X409274D01*
X407874Y301061D02*
Y303861D01*
X396657Y264640D02*
X399457D01*
X398057Y263240D02*
Y266040D01*
X522911Y309350D02*
X525711D01*
X524311Y307950D02*
Y310750D01*
X484131Y308071D02*
X486932D01*
X485532Y306671D02*
Y309471D01*
X485313Y292520D02*
X488113D01*
X486713Y291120D02*
Y293920D01*
X454565Y286417D02*
X457365D01*
X455965Y285017D02*
Y287817D01*
X478817Y300590D02*
X481616D01*
X480217Y299190D02*
Y301991D01*
X415529Y282382D02*
X418329D01*
X416929Y280982D02*
Y283782D01*
X369702Y156398D02*
X372502D01*
X371102Y154998D02*
Y157798D01*
X392832Y228346D02*
X395632D01*
X394232Y226946D02*
Y229747D01*
X387576Y240945D02*
X390376D01*
X388976Y239545D02*
Y242345D01*
X414151Y289567D02*
X416951D01*
X415551Y288167D02*
Y290967D01*
X492005Y273819D02*
X494805D01*
X493405Y272419D02*
Y275219D01*
X475175Y271496D02*
X477975D01*
X476575Y270096D02*
Y272896D01*
X453423Y273425D02*
X456223D01*
X454823Y272025D02*
Y274825D01*
X473525Y328665D02*
X476325D01*
X474925Y327265D02*
Y330065D01*
X473994Y370079D02*
X476794D01*
X475394Y368679D02*
Y371479D01*
X436395Y307874D02*
X439195D01*
X437795Y306474D02*
Y309274D01*
X493384Y361122D02*
X496183D01*
X494783Y359722D02*
Y362522D01*
X528029Y356004D02*
X530829D01*
X529429Y354604D02*
Y357404D01*
X541317Y374410D02*
X544116D01*
X542717Y373009D02*
Y375810D01*
X498009Y374410D02*
X500809D01*
X499409Y373009D02*
Y375810D01*
X502537Y367323D02*
X505337D01*
X503937Y365923D02*
Y368723D01*
X464446Y271654D02*
X467246D01*
X465846Y270253D02*
Y273054D01*
X444958Y235433D02*
X447758D01*
X446358Y234033D02*
Y236833D01*
X523206Y253346D02*
X526006D01*
X524606Y251946D02*
Y254747D01*
X512872Y271161D02*
X515672D01*
X514272Y269761D02*
Y272561D01*
X435903Y223524D02*
X438703D01*
X437303Y222124D02*
Y224924D01*
X385706Y389469D02*
X388506D01*
X387106Y388069D02*
Y390868D01*
X337183Y306201D02*
X339983D01*
X338583Y304801D02*
Y307601D01*
X273600Y339764D02*
X276400D01*
X275000Y338364D02*
Y341164D01*
X309132Y386910D02*
X311931D01*
X310531Y385509D02*
Y388310D01*
X355194Y296063D02*
X357995D01*
X356594Y294663D02*
Y297463D01*
X230982Y402165D02*
X233782D01*
X232382Y400765D02*
Y403565D01*
X319663Y396457D02*
X322463D01*
X321063Y395057D02*
Y397857D01*
X266809Y238681D02*
X269609D01*
X268209Y237281D02*
Y240081D01*
X312675Y251279D02*
X315475D01*
X314075Y249880D02*
Y252679D01*
X424486Y308366D02*
X427286D01*
X425886Y306966D02*
Y309766D01*
X194269Y397933D02*
X197069D01*
X195669Y396533D02*
Y399333D01*
M02*
